G04 #@! TF.GenerationSoftware,KiCad,Pcbnew,(5.1.5)-3*
G04 #@! TF.CreationDate,2020-12-04T11:48:41+08:00*
G04 #@! TF.ProjectId,Clock PCB,436c6f63-6b20-4504-9342-2e6b69636164,rev?*
G04 #@! TF.SameCoordinates,Original*
G04 #@! TF.FileFunction,Paste,Bot*
G04 #@! TF.FilePolarity,Positive*
%FSLAX46Y46*%
G04 Gerber Fmt 4.6, Leading zero omitted, Abs format (unit mm)*
G04 Created by KiCad (PCBNEW (5.1.5)-3) date 2020-12-04 11:48:41*
%MOMM*%
%LPD*%
G04 APERTURE LIST*
%ADD10C,0.150000*%
G04 APERTURE END LIST*
D10*
G36*
X171846703Y-76662722D02*
G01*
X171861264Y-76664882D01*
X171875543Y-76668459D01*
X171889403Y-76673418D01*
X171902710Y-76679712D01*
X171915336Y-76687280D01*
X171927159Y-76696048D01*
X171938066Y-76705934D01*
X171947952Y-76716841D01*
X171956720Y-76728664D01*
X171964288Y-76741290D01*
X171970582Y-76754597D01*
X171975541Y-76768457D01*
X171979118Y-76782736D01*
X171981278Y-76797297D01*
X171982000Y-76812000D01*
X171982000Y-77112000D01*
X171981278Y-77126703D01*
X171979118Y-77141264D01*
X171975541Y-77155543D01*
X171970582Y-77169403D01*
X171964288Y-77182710D01*
X171956720Y-77195336D01*
X171947952Y-77207159D01*
X171938066Y-77218066D01*
X171927159Y-77227952D01*
X171915336Y-77236720D01*
X171902710Y-77244288D01*
X171889403Y-77250582D01*
X171875543Y-77255541D01*
X171861264Y-77259118D01*
X171846703Y-77261278D01*
X171832000Y-77262000D01*
X170182000Y-77262000D01*
X170167297Y-77261278D01*
X170152736Y-77259118D01*
X170138457Y-77255541D01*
X170124597Y-77250582D01*
X170111290Y-77244288D01*
X170098664Y-77236720D01*
X170086841Y-77227952D01*
X170075934Y-77218066D01*
X170066048Y-77207159D01*
X170057280Y-77195336D01*
X170049712Y-77182710D01*
X170043418Y-77169403D01*
X170038459Y-77155543D01*
X170034882Y-77141264D01*
X170032722Y-77126703D01*
X170032000Y-77112000D01*
X170032000Y-76812000D01*
X170032722Y-76797297D01*
X170034882Y-76782736D01*
X170038459Y-76768457D01*
X170043418Y-76754597D01*
X170049712Y-76741290D01*
X170057280Y-76728664D01*
X170066048Y-76716841D01*
X170075934Y-76705934D01*
X170086841Y-76696048D01*
X170098664Y-76687280D01*
X170111290Y-76679712D01*
X170124597Y-76673418D01*
X170138457Y-76668459D01*
X170152736Y-76664882D01*
X170167297Y-76662722D01*
X170182000Y-76662000D01*
X171832000Y-76662000D01*
X171846703Y-76662722D01*
G37*
G36*
X171846703Y-77932722D02*
G01*
X171861264Y-77934882D01*
X171875543Y-77938459D01*
X171889403Y-77943418D01*
X171902710Y-77949712D01*
X171915336Y-77957280D01*
X171927159Y-77966048D01*
X171938066Y-77975934D01*
X171947952Y-77986841D01*
X171956720Y-77998664D01*
X171964288Y-78011290D01*
X171970582Y-78024597D01*
X171975541Y-78038457D01*
X171979118Y-78052736D01*
X171981278Y-78067297D01*
X171982000Y-78082000D01*
X171982000Y-78382000D01*
X171981278Y-78396703D01*
X171979118Y-78411264D01*
X171975541Y-78425543D01*
X171970582Y-78439403D01*
X171964288Y-78452710D01*
X171956720Y-78465336D01*
X171947952Y-78477159D01*
X171938066Y-78488066D01*
X171927159Y-78497952D01*
X171915336Y-78506720D01*
X171902710Y-78514288D01*
X171889403Y-78520582D01*
X171875543Y-78525541D01*
X171861264Y-78529118D01*
X171846703Y-78531278D01*
X171832000Y-78532000D01*
X170182000Y-78532000D01*
X170167297Y-78531278D01*
X170152736Y-78529118D01*
X170138457Y-78525541D01*
X170124597Y-78520582D01*
X170111290Y-78514288D01*
X170098664Y-78506720D01*
X170086841Y-78497952D01*
X170075934Y-78488066D01*
X170066048Y-78477159D01*
X170057280Y-78465336D01*
X170049712Y-78452710D01*
X170043418Y-78439403D01*
X170038459Y-78425543D01*
X170034882Y-78411264D01*
X170032722Y-78396703D01*
X170032000Y-78382000D01*
X170032000Y-78082000D01*
X170032722Y-78067297D01*
X170034882Y-78052736D01*
X170038459Y-78038457D01*
X170043418Y-78024597D01*
X170049712Y-78011290D01*
X170057280Y-77998664D01*
X170066048Y-77986841D01*
X170075934Y-77975934D01*
X170086841Y-77966048D01*
X170098664Y-77957280D01*
X170111290Y-77949712D01*
X170124597Y-77943418D01*
X170138457Y-77938459D01*
X170152736Y-77934882D01*
X170167297Y-77932722D01*
X170182000Y-77932000D01*
X171832000Y-77932000D01*
X171846703Y-77932722D01*
G37*
G36*
X171846703Y-79202722D02*
G01*
X171861264Y-79204882D01*
X171875543Y-79208459D01*
X171889403Y-79213418D01*
X171902710Y-79219712D01*
X171915336Y-79227280D01*
X171927159Y-79236048D01*
X171938066Y-79245934D01*
X171947952Y-79256841D01*
X171956720Y-79268664D01*
X171964288Y-79281290D01*
X171970582Y-79294597D01*
X171975541Y-79308457D01*
X171979118Y-79322736D01*
X171981278Y-79337297D01*
X171982000Y-79352000D01*
X171982000Y-79652000D01*
X171981278Y-79666703D01*
X171979118Y-79681264D01*
X171975541Y-79695543D01*
X171970582Y-79709403D01*
X171964288Y-79722710D01*
X171956720Y-79735336D01*
X171947952Y-79747159D01*
X171938066Y-79758066D01*
X171927159Y-79767952D01*
X171915336Y-79776720D01*
X171902710Y-79784288D01*
X171889403Y-79790582D01*
X171875543Y-79795541D01*
X171861264Y-79799118D01*
X171846703Y-79801278D01*
X171832000Y-79802000D01*
X170182000Y-79802000D01*
X170167297Y-79801278D01*
X170152736Y-79799118D01*
X170138457Y-79795541D01*
X170124597Y-79790582D01*
X170111290Y-79784288D01*
X170098664Y-79776720D01*
X170086841Y-79767952D01*
X170075934Y-79758066D01*
X170066048Y-79747159D01*
X170057280Y-79735336D01*
X170049712Y-79722710D01*
X170043418Y-79709403D01*
X170038459Y-79695543D01*
X170034882Y-79681264D01*
X170032722Y-79666703D01*
X170032000Y-79652000D01*
X170032000Y-79352000D01*
X170032722Y-79337297D01*
X170034882Y-79322736D01*
X170038459Y-79308457D01*
X170043418Y-79294597D01*
X170049712Y-79281290D01*
X170057280Y-79268664D01*
X170066048Y-79256841D01*
X170075934Y-79245934D01*
X170086841Y-79236048D01*
X170098664Y-79227280D01*
X170111290Y-79219712D01*
X170124597Y-79213418D01*
X170138457Y-79208459D01*
X170152736Y-79204882D01*
X170167297Y-79202722D01*
X170182000Y-79202000D01*
X171832000Y-79202000D01*
X171846703Y-79202722D01*
G37*
G36*
X171846703Y-80472722D02*
G01*
X171861264Y-80474882D01*
X171875543Y-80478459D01*
X171889403Y-80483418D01*
X171902710Y-80489712D01*
X171915336Y-80497280D01*
X171927159Y-80506048D01*
X171938066Y-80515934D01*
X171947952Y-80526841D01*
X171956720Y-80538664D01*
X171964288Y-80551290D01*
X171970582Y-80564597D01*
X171975541Y-80578457D01*
X171979118Y-80592736D01*
X171981278Y-80607297D01*
X171982000Y-80622000D01*
X171982000Y-80922000D01*
X171981278Y-80936703D01*
X171979118Y-80951264D01*
X171975541Y-80965543D01*
X171970582Y-80979403D01*
X171964288Y-80992710D01*
X171956720Y-81005336D01*
X171947952Y-81017159D01*
X171938066Y-81028066D01*
X171927159Y-81037952D01*
X171915336Y-81046720D01*
X171902710Y-81054288D01*
X171889403Y-81060582D01*
X171875543Y-81065541D01*
X171861264Y-81069118D01*
X171846703Y-81071278D01*
X171832000Y-81072000D01*
X170182000Y-81072000D01*
X170167297Y-81071278D01*
X170152736Y-81069118D01*
X170138457Y-81065541D01*
X170124597Y-81060582D01*
X170111290Y-81054288D01*
X170098664Y-81046720D01*
X170086841Y-81037952D01*
X170075934Y-81028066D01*
X170066048Y-81017159D01*
X170057280Y-81005336D01*
X170049712Y-80992710D01*
X170043418Y-80979403D01*
X170038459Y-80965543D01*
X170034882Y-80951264D01*
X170032722Y-80936703D01*
X170032000Y-80922000D01*
X170032000Y-80622000D01*
X170032722Y-80607297D01*
X170034882Y-80592736D01*
X170038459Y-80578457D01*
X170043418Y-80564597D01*
X170049712Y-80551290D01*
X170057280Y-80538664D01*
X170066048Y-80526841D01*
X170075934Y-80515934D01*
X170086841Y-80506048D01*
X170098664Y-80497280D01*
X170111290Y-80489712D01*
X170124597Y-80483418D01*
X170138457Y-80478459D01*
X170152736Y-80474882D01*
X170167297Y-80472722D01*
X170182000Y-80472000D01*
X171832000Y-80472000D01*
X171846703Y-80472722D01*
G37*
G36*
X176796703Y-80472722D02*
G01*
X176811264Y-80474882D01*
X176825543Y-80478459D01*
X176839403Y-80483418D01*
X176852710Y-80489712D01*
X176865336Y-80497280D01*
X176877159Y-80506048D01*
X176888066Y-80515934D01*
X176897952Y-80526841D01*
X176906720Y-80538664D01*
X176914288Y-80551290D01*
X176920582Y-80564597D01*
X176925541Y-80578457D01*
X176929118Y-80592736D01*
X176931278Y-80607297D01*
X176932000Y-80622000D01*
X176932000Y-80922000D01*
X176931278Y-80936703D01*
X176929118Y-80951264D01*
X176925541Y-80965543D01*
X176920582Y-80979403D01*
X176914288Y-80992710D01*
X176906720Y-81005336D01*
X176897952Y-81017159D01*
X176888066Y-81028066D01*
X176877159Y-81037952D01*
X176865336Y-81046720D01*
X176852710Y-81054288D01*
X176839403Y-81060582D01*
X176825543Y-81065541D01*
X176811264Y-81069118D01*
X176796703Y-81071278D01*
X176782000Y-81072000D01*
X175132000Y-81072000D01*
X175117297Y-81071278D01*
X175102736Y-81069118D01*
X175088457Y-81065541D01*
X175074597Y-81060582D01*
X175061290Y-81054288D01*
X175048664Y-81046720D01*
X175036841Y-81037952D01*
X175025934Y-81028066D01*
X175016048Y-81017159D01*
X175007280Y-81005336D01*
X174999712Y-80992710D01*
X174993418Y-80979403D01*
X174988459Y-80965543D01*
X174984882Y-80951264D01*
X174982722Y-80936703D01*
X174982000Y-80922000D01*
X174982000Y-80622000D01*
X174982722Y-80607297D01*
X174984882Y-80592736D01*
X174988459Y-80578457D01*
X174993418Y-80564597D01*
X174999712Y-80551290D01*
X175007280Y-80538664D01*
X175016048Y-80526841D01*
X175025934Y-80515934D01*
X175036841Y-80506048D01*
X175048664Y-80497280D01*
X175061290Y-80489712D01*
X175074597Y-80483418D01*
X175088457Y-80478459D01*
X175102736Y-80474882D01*
X175117297Y-80472722D01*
X175132000Y-80472000D01*
X176782000Y-80472000D01*
X176796703Y-80472722D01*
G37*
G36*
X176796703Y-79202722D02*
G01*
X176811264Y-79204882D01*
X176825543Y-79208459D01*
X176839403Y-79213418D01*
X176852710Y-79219712D01*
X176865336Y-79227280D01*
X176877159Y-79236048D01*
X176888066Y-79245934D01*
X176897952Y-79256841D01*
X176906720Y-79268664D01*
X176914288Y-79281290D01*
X176920582Y-79294597D01*
X176925541Y-79308457D01*
X176929118Y-79322736D01*
X176931278Y-79337297D01*
X176932000Y-79352000D01*
X176932000Y-79652000D01*
X176931278Y-79666703D01*
X176929118Y-79681264D01*
X176925541Y-79695543D01*
X176920582Y-79709403D01*
X176914288Y-79722710D01*
X176906720Y-79735336D01*
X176897952Y-79747159D01*
X176888066Y-79758066D01*
X176877159Y-79767952D01*
X176865336Y-79776720D01*
X176852710Y-79784288D01*
X176839403Y-79790582D01*
X176825543Y-79795541D01*
X176811264Y-79799118D01*
X176796703Y-79801278D01*
X176782000Y-79802000D01*
X175132000Y-79802000D01*
X175117297Y-79801278D01*
X175102736Y-79799118D01*
X175088457Y-79795541D01*
X175074597Y-79790582D01*
X175061290Y-79784288D01*
X175048664Y-79776720D01*
X175036841Y-79767952D01*
X175025934Y-79758066D01*
X175016048Y-79747159D01*
X175007280Y-79735336D01*
X174999712Y-79722710D01*
X174993418Y-79709403D01*
X174988459Y-79695543D01*
X174984882Y-79681264D01*
X174982722Y-79666703D01*
X174982000Y-79652000D01*
X174982000Y-79352000D01*
X174982722Y-79337297D01*
X174984882Y-79322736D01*
X174988459Y-79308457D01*
X174993418Y-79294597D01*
X174999712Y-79281290D01*
X175007280Y-79268664D01*
X175016048Y-79256841D01*
X175025934Y-79245934D01*
X175036841Y-79236048D01*
X175048664Y-79227280D01*
X175061290Y-79219712D01*
X175074597Y-79213418D01*
X175088457Y-79208459D01*
X175102736Y-79204882D01*
X175117297Y-79202722D01*
X175132000Y-79202000D01*
X176782000Y-79202000D01*
X176796703Y-79202722D01*
G37*
G36*
X176796703Y-77932722D02*
G01*
X176811264Y-77934882D01*
X176825543Y-77938459D01*
X176839403Y-77943418D01*
X176852710Y-77949712D01*
X176865336Y-77957280D01*
X176877159Y-77966048D01*
X176888066Y-77975934D01*
X176897952Y-77986841D01*
X176906720Y-77998664D01*
X176914288Y-78011290D01*
X176920582Y-78024597D01*
X176925541Y-78038457D01*
X176929118Y-78052736D01*
X176931278Y-78067297D01*
X176932000Y-78082000D01*
X176932000Y-78382000D01*
X176931278Y-78396703D01*
X176929118Y-78411264D01*
X176925541Y-78425543D01*
X176920582Y-78439403D01*
X176914288Y-78452710D01*
X176906720Y-78465336D01*
X176897952Y-78477159D01*
X176888066Y-78488066D01*
X176877159Y-78497952D01*
X176865336Y-78506720D01*
X176852710Y-78514288D01*
X176839403Y-78520582D01*
X176825543Y-78525541D01*
X176811264Y-78529118D01*
X176796703Y-78531278D01*
X176782000Y-78532000D01*
X175132000Y-78532000D01*
X175117297Y-78531278D01*
X175102736Y-78529118D01*
X175088457Y-78525541D01*
X175074597Y-78520582D01*
X175061290Y-78514288D01*
X175048664Y-78506720D01*
X175036841Y-78497952D01*
X175025934Y-78488066D01*
X175016048Y-78477159D01*
X175007280Y-78465336D01*
X174999712Y-78452710D01*
X174993418Y-78439403D01*
X174988459Y-78425543D01*
X174984882Y-78411264D01*
X174982722Y-78396703D01*
X174982000Y-78382000D01*
X174982000Y-78082000D01*
X174982722Y-78067297D01*
X174984882Y-78052736D01*
X174988459Y-78038457D01*
X174993418Y-78024597D01*
X174999712Y-78011290D01*
X175007280Y-77998664D01*
X175016048Y-77986841D01*
X175025934Y-77975934D01*
X175036841Y-77966048D01*
X175048664Y-77957280D01*
X175061290Y-77949712D01*
X175074597Y-77943418D01*
X175088457Y-77938459D01*
X175102736Y-77934882D01*
X175117297Y-77932722D01*
X175132000Y-77932000D01*
X176782000Y-77932000D01*
X176796703Y-77932722D01*
G37*
G36*
X176796703Y-76662722D02*
G01*
X176811264Y-76664882D01*
X176825543Y-76668459D01*
X176839403Y-76673418D01*
X176852710Y-76679712D01*
X176865336Y-76687280D01*
X176877159Y-76696048D01*
X176888066Y-76705934D01*
X176897952Y-76716841D01*
X176906720Y-76728664D01*
X176914288Y-76741290D01*
X176920582Y-76754597D01*
X176925541Y-76768457D01*
X176929118Y-76782736D01*
X176931278Y-76797297D01*
X176932000Y-76812000D01*
X176932000Y-77112000D01*
X176931278Y-77126703D01*
X176929118Y-77141264D01*
X176925541Y-77155543D01*
X176920582Y-77169403D01*
X176914288Y-77182710D01*
X176906720Y-77195336D01*
X176897952Y-77207159D01*
X176888066Y-77218066D01*
X176877159Y-77227952D01*
X176865336Y-77236720D01*
X176852710Y-77244288D01*
X176839403Y-77250582D01*
X176825543Y-77255541D01*
X176811264Y-77259118D01*
X176796703Y-77261278D01*
X176782000Y-77262000D01*
X175132000Y-77262000D01*
X175117297Y-77261278D01*
X175102736Y-77259118D01*
X175088457Y-77255541D01*
X175074597Y-77250582D01*
X175061290Y-77244288D01*
X175048664Y-77236720D01*
X175036841Y-77227952D01*
X175025934Y-77218066D01*
X175016048Y-77207159D01*
X175007280Y-77195336D01*
X174999712Y-77182710D01*
X174993418Y-77169403D01*
X174988459Y-77155543D01*
X174984882Y-77141264D01*
X174982722Y-77126703D01*
X174982000Y-77112000D01*
X174982000Y-76812000D01*
X174982722Y-76797297D01*
X174984882Y-76782736D01*
X174988459Y-76768457D01*
X174993418Y-76754597D01*
X174999712Y-76741290D01*
X175007280Y-76728664D01*
X175016048Y-76716841D01*
X175025934Y-76705934D01*
X175036841Y-76696048D01*
X175048664Y-76687280D01*
X175061290Y-76679712D01*
X175074597Y-76673418D01*
X175088457Y-76668459D01*
X175102736Y-76664882D01*
X175117297Y-76662722D01*
X175132000Y-76662000D01*
X176782000Y-76662000D01*
X176796703Y-76662722D01*
G37*
G36*
X171323703Y-93934722D02*
G01*
X171338264Y-93936882D01*
X171352543Y-93940459D01*
X171366403Y-93945418D01*
X171379710Y-93951712D01*
X171392336Y-93959280D01*
X171404159Y-93968048D01*
X171415066Y-93977934D01*
X171424952Y-93988841D01*
X171433720Y-94000664D01*
X171441288Y-94013290D01*
X171447582Y-94026597D01*
X171452541Y-94040457D01*
X171456118Y-94054736D01*
X171458278Y-94069297D01*
X171459000Y-94084000D01*
X171459000Y-94384000D01*
X171458278Y-94398703D01*
X171456118Y-94413264D01*
X171452541Y-94427543D01*
X171447582Y-94441403D01*
X171441288Y-94454710D01*
X171433720Y-94467336D01*
X171424952Y-94479159D01*
X171415066Y-94490066D01*
X171404159Y-94499952D01*
X171392336Y-94508720D01*
X171379710Y-94516288D01*
X171366403Y-94522582D01*
X171352543Y-94527541D01*
X171338264Y-94531118D01*
X171323703Y-94533278D01*
X171309000Y-94534000D01*
X169559000Y-94534000D01*
X169544297Y-94533278D01*
X169529736Y-94531118D01*
X169515457Y-94527541D01*
X169501597Y-94522582D01*
X169488290Y-94516288D01*
X169475664Y-94508720D01*
X169463841Y-94499952D01*
X169452934Y-94490066D01*
X169443048Y-94479159D01*
X169434280Y-94467336D01*
X169426712Y-94454710D01*
X169420418Y-94441403D01*
X169415459Y-94427543D01*
X169411882Y-94413264D01*
X169409722Y-94398703D01*
X169409000Y-94384000D01*
X169409000Y-94084000D01*
X169409722Y-94069297D01*
X169411882Y-94054736D01*
X169415459Y-94040457D01*
X169420418Y-94026597D01*
X169426712Y-94013290D01*
X169434280Y-94000664D01*
X169443048Y-93988841D01*
X169452934Y-93977934D01*
X169463841Y-93968048D01*
X169475664Y-93959280D01*
X169488290Y-93951712D01*
X169501597Y-93945418D01*
X169515457Y-93940459D01*
X169529736Y-93936882D01*
X169544297Y-93934722D01*
X169559000Y-93934000D01*
X171309000Y-93934000D01*
X171323703Y-93934722D01*
G37*
G36*
X171323703Y-95204722D02*
G01*
X171338264Y-95206882D01*
X171352543Y-95210459D01*
X171366403Y-95215418D01*
X171379710Y-95221712D01*
X171392336Y-95229280D01*
X171404159Y-95238048D01*
X171415066Y-95247934D01*
X171424952Y-95258841D01*
X171433720Y-95270664D01*
X171441288Y-95283290D01*
X171447582Y-95296597D01*
X171452541Y-95310457D01*
X171456118Y-95324736D01*
X171458278Y-95339297D01*
X171459000Y-95354000D01*
X171459000Y-95654000D01*
X171458278Y-95668703D01*
X171456118Y-95683264D01*
X171452541Y-95697543D01*
X171447582Y-95711403D01*
X171441288Y-95724710D01*
X171433720Y-95737336D01*
X171424952Y-95749159D01*
X171415066Y-95760066D01*
X171404159Y-95769952D01*
X171392336Y-95778720D01*
X171379710Y-95786288D01*
X171366403Y-95792582D01*
X171352543Y-95797541D01*
X171338264Y-95801118D01*
X171323703Y-95803278D01*
X171309000Y-95804000D01*
X169559000Y-95804000D01*
X169544297Y-95803278D01*
X169529736Y-95801118D01*
X169515457Y-95797541D01*
X169501597Y-95792582D01*
X169488290Y-95786288D01*
X169475664Y-95778720D01*
X169463841Y-95769952D01*
X169452934Y-95760066D01*
X169443048Y-95749159D01*
X169434280Y-95737336D01*
X169426712Y-95724710D01*
X169420418Y-95711403D01*
X169415459Y-95697543D01*
X169411882Y-95683264D01*
X169409722Y-95668703D01*
X169409000Y-95654000D01*
X169409000Y-95354000D01*
X169409722Y-95339297D01*
X169411882Y-95324736D01*
X169415459Y-95310457D01*
X169420418Y-95296597D01*
X169426712Y-95283290D01*
X169434280Y-95270664D01*
X169443048Y-95258841D01*
X169452934Y-95247934D01*
X169463841Y-95238048D01*
X169475664Y-95229280D01*
X169488290Y-95221712D01*
X169501597Y-95215418D01*
X169515457Y-95210459D01*
X169529736Y-95206882D01*
X169544297Y-95204722D01*
X169559000Y-95204000D01*
X171309000Y-95204000D01*
X171323703Y-95204722D01*
G37*
G36*
X171323703Y-96474722D02*
G01*
X171338264Y-96476882D01*
X171352543Y-96480459D01*
X171366403Y-96485418D01*
X171379710Y-96491712D01*
X171392336Y-96499280D01*
X171404159Y-96508048D01*
X171415066Y-96517934D01*
X171424952Y-96528841D01*
X171433720Y-96540664D01*
X171441288Y-96553290D01*
X171447582Y-96566597D01*
X171452541Y-96580457D01*
X171456118Y-96594736D01*
X171458278Y-96609297D01*
X171459000Y-96624000D01*
X171459000Y-96924000D01*
X171458278Y-96938703D01*
X171456118Y-96953264D01*
X171452541Y-96967543D01*
X171447582Y-96981403D01*
X171441288Y-96994710D01*
X171433720Y-97007336D01*
X171424952Y-97019159D01*
X171415066Y-97030066D01*
X171404159Y-97039952D01*
X171392336Y-97048720D01*
X171379710Y-97056288D01*
X171366403Y-97062582D01*
X171352543Y-97067541D01*
X171338264Y-97071118D01*
X171323703Y-97073278D01*
X171309000Y-97074000D01*
X169559000Y-97074000D01*
X169544297Y-97073278D01*
X169529736Y-97071118D01*
X169515457Y-97067541D01*
X169501597Y-97062582D01*
X169488290Y-97056288D01*
X169475664Y-97048720D01*
X169463841Y-97039952D01*
X169452934Y-97030066D01*
X169443048Y-97019159D01*
X169434280Y-97007336D01*
X169426712Y-96994710D01*
X169420418Y-96981403D01*
X169415459Y-96967543D01*
X169411882Y-96953264D01*
X169409722Y-96938703D01*
X169409000Y-96924000D01*
X169409000Y-96624000D01*
X169409722Y-96609297D01*
X169411882Y-96594736D01*
X169415459Y-96580457D01*
X169420418Y-96566597D01*
X169426712Y-96553290D01*
X169434280Y-96540664D01*
X169443048Y-96528841D01*
X169452934Y-96517934D01*
X169463841Y-96508048D01*
X169475664Y-96499280D01*
X169488290Y-96491712D01*
X169501597Y-96485418D01*
X169515457Y-96480459D01*
X169529736Y-96476882D01*
X169544297Y-96474722D01*
X169559000Y-96474000D01*
X171309000Y-96474000D01*
X171323703Y-96474722D01*
G37*
G36*
X171323703Y-97744722D02*
G01*
X171338264Y-97746882D01*
X171352543Y-97750459D01*
X171366403Y-97755418D01*
X171379710Y-97761712D01*
X171392336Y-97769280D01*
X171404159Y-97778048D01*
X171415066Y-97787934D01*
X171424952Y-97798841D01*
X171433720Y-97810664D01*
X171441288Y-97823290D01*
X171447582Y-97836597D01*
X171452541Y-97850457D01*
X171456118Y-97864736D01*
X171458278Y-97879297D01*
X171459000Y-97894000D01*
X171459000Y-98194000D01*
X171458278Y-98208703D01*
X171456118Y-98223264D01*
X171452541Y-98237543D01*
X171447582Y-98251403D01*
X171441288Y-98264710D01*
X171433720Y-98277336D01*
X171424952Y-98289159D01*
X171415066Y-98300066D01*
X171404159Y-98309952D01*
X171392336Y-98318720D01*
X171379710Y-98326288D01*
X171366403Y-98332582D01*
X171352543Y-98337541D01*
X171338264Y-98341118D01*
X171323703Y-98343278D01*
X171309000Y-98344000D01*
X169559000Y-98344000D01*
X169544297Y-98343278D01*
X169529736Y-98341118D01*
X169515457Y-98337541D01*
X169501597Y-98332582D01*
X169488290Y-98326288D01*
X169475664Y-98318720D01*
X169463841Y-98309952D01*
X169452934Y-98300066D01*
X169443048Y-98289159D01*
X169434280Y-98277336D01*
X169426712Y-98264710D01*
X169420418Y-98251403D01*
X169415459Y-98237543D01*
X169411882Y-98223264D01*
X169409722Y-98208703D01*
X169409000Y-98194000D01*
X169409000Y-97894000D01*
X169409722Y-97879297D01*
X169411882Y-97864736D01*
X169415459Y-97850457D01*
X169420418Y-97836597D01*
X169426712Y-97823290D01*
X169434280Y-97810664D01*
X169443048Y-97798841D01*
X169452934Y-97787934D01*
X169463841Y-97778048D01*
X169475664Y-97769280D01*
X169488290Y-97761712D01*
X169501597Y-97755418D01*
X169515457Y-97750459D01*
X169529736Y-97746882D01*
X169544297Y-97744722D01*
X169559000Y-97744000D01*
X171309000Y-97744000D01*
X171323703Y-97744722D01*
G37*
G36*
X171323703Y-99014722D02*
G01*
X171338264Y-99016882D01*
X171352543Y-99020459D01*
X171366403Y-99025418D01*
X171379710Y-99031712D01*
X171392336Y-99039280D01*
X171404159Y-99048048D01*
X171415066Y-99057934D01*
X171424952Y-99068841D01*
X171433720Y-99080664D01*
X171441288Y-99093290D01*
X171447582Y-99106597D01*
X171452541Y-99120457D01*
X171456118Y-99134736D01*
X171458278Y-99149297D01*
X171459000Y-99164000D01*
X171459000Y-99464000D01*
X171458278Y-99478703D01*
X171456118Y-99493264D01*
X171452541Y-99507543D01*
X171447582Y-99521403D01*
X171441288Y-99534710D01*
X171433720Y-99547336D01*
X171424952Y-99559159D01*
X171415066Y-99570066D01*
X171404159Y-99579952D01*
X171392336Y-99588720D01*
X171379710Y-99596288D01*
X171366403Y-99602582D01*
X171352543Y-99607541D01*
X171338264Y-99611118D01*
X171323703Y-99613278D01*
X171309000Y-99614000D01*
X169559000Y-99614000D01*
X169544297Y-99613278D01*
X169529736Y-99611118D01*
X169515457Y-99607541D01*
X169501597Y-99602582D01*
X169488290Y-99596288D01*
X169475664Y-99588720D01*
X169463841Y-99579952D01*
X169452934Y-99570066D01*
X169443048Y-99559159D01*
X169434280Y-99547336D01*
X169426712Y-99534710D01*
X169420418Y-99521403D01*
X169415459Y-99507543D01*
X169411882Y-99493264D01*
X169409722Y-99478703D01*
X169409000Y-99464000D01*
X169409000Y-99164000D01*
X169409722Y-99149297D01*
X169411882Y-99134736D01*
X169415459Y-99120457D01*
X169420418Y-99106597D01*
X169426712Y-99093290D01*
X169434280Y-99080664D01*
X169443048Y-99068841D01*
X169452934Y-99057934D01*
X169463841Y-99048048D01*
X169475664Y-99039280D01*
X169488290Y-99031712D01*
X169501597Y-99025418D01*
X169515457Y-99020459D01*
X169529736Y-99016882D01*
X169544297Y-99014722D01*
X169559000Y-99014000D01*
X171309000Y-99014000D01*
X171323703Y-99014722D01*
G37*
G36*
X171323703Y-100284722D02*
G01*
X171338264Y-100286882D01*
X171352543Y-100290459D01*
X171366403Y-100295418D01*
X171379710Y-100301712D01*
X171392336Y-100309280D01*
X171404159Y-100318048D01*
X171415066Y-100327934D01*
X171424952Y-100338841D01*
X171433720Y-100350664D01*
X171441288Y-100363290D01*
X171447582Y-100376597D01*
X171452541Y-100390457D01*
X171456118Y-100404736D01*
X171458278Y-100419297D01*
X171459000Y-100434000D01*
X171459000Y-100734000D01*
X171458278Y-100748703D01*
X171456118Y-100763264D01*
X171452541Y-100777543D01*
X171447582Y-100791403D01*
X171441288Y-100804710D01*
X171433720Y-100817336D01*
X171424952Y-100829159D01*
X171415066Y-100840066D01*
X171404159Y-100849952D01*
X171392336Y-100858720D01*
X171379710Y-100866288D01*
X171366403Y-100872582D01*
X171352543Y-100877541D01*
X171338264Y-100881118D01*
X171323703Y-100883278D01*
X171309000Y-100884000D01*
X169559000Y-100884000D01*
X169544297Y-100883278D01*
X169529736Y-100881118D01*
X169515457Y-100877541D01*
X169501597Y-100872582D01*
X169488290Y-100866288D01*
X169475664Y-100858720D01*
X169463841Y-100849952D01*
X169452934Y-100840066D01*
X169443048Y-100829159D01*
X169434280Y-100817336D01*
X169426712Y-100804710D01*
X169420418Y-100791403D01*
X169415459Y-100777543D01*
X169411882Y-100763264D01*
X169409722Y-100748703D01*
X169409000Y-100734000D01*
X169409000Y-100434000D01*
X169409722Y-100419297D01*
X169411882Y-100404736D01*
X169415459Y-100390457D01*
X169420418Y-100376597D01*
X169426712Y-100363290D01*
X169434280Y-100350664D01*
X169443048Y-100338841D01*
X169452934Y-100327934D01*
X169463841Y-100318048D01*
X169475664Y-100309280D01*
X169488290Y-100301712D01*
X169501597Y-100295418D01*
X169515457Y-100290459D01*
X169529736Y-100286882D01*
X169544297Y-100284722D01*
X169559000Y-100284000D01*
X171309000Y-100284000D01*
X171323703Y-100284722D01*
G37*
G36*
X171323703Y-101554722D02*
G01*
X171338264Y-101556882D01*
X171352543Y-101560459D01*
X171366403Y-101565418D01*
X171379710Y-101571712D01*
X171392336Y-101579280D01*
X171404159Y-101588048D01*
X171415066Y-101597934D01*
X171424952Y-101608841D01*
X171433720Y-101620664D01*
X171441288Y-101633290D01*
X171447582Y-101646597D01*
X171452541Y-101660457D01*
X171456118Y-101674736D01*
X171458278Y-101689297D01*
X171459000Y-101704000D01*
X171459000Y-102004000D01*
X171458278Y-102018703D01*
X171456118Y-102033264D01*
X171452541Y-102047543D01*
X171447582Y-102061403D01*
X171441288Y-102074710D01*
X171433720Y-102087336D01*
X171424952Y-102099159D01*
X171415066Y-102110066D01*
X171404159Y-102119952D01*
X171392336Y-102128720D01*
X171379710Y-102136288D01*
X171366403Y-102142582D01*
X171352543Y-102147541D01*
X171338264Y-102151118D01*
X171323703Y-102153278D01*
X171309000Y-102154000D01*
X169559000Y-102154000D01*
X169544297Y-102153278D01*
X169529736Y-102151118D01*
X169515457Y-102147541D01*
X169501597Y-102142582D01*
X169488290Y-102136288D01*
X169475664Y-102128720D01*
X169463841Y-102119952D01*
X169452934Y-102110066D01*
X169443048Y-102099159D01*
X169434280Y-102087336D01*
X169426712Y-102074710D01*
X169420418Y-102061403D01*
X169415459Y-102047543D01*
X169411882Y-102033264D01*
X169409722Y-102018703D01*
X169409000Y-102004000D01*
X169409000Y-101704000D01*
X169409722Y-101689297D01*
X169411882Y-101674736D01*
X169415459Y-101660457D01*
X169420418Y-101646597D01*
X169426712Y-101633290D01*
X169434280Y-101620664D01*
X169443048Y-101608841D01*
X169452934Y-101597934D01*
X169463841Y-101588048D01*
X169475664Y-101579280D01*
X169488290Y-101571712D01*
X169501597Y-101565418D01*
X169515457Y-101560459D01*
X169529736Y-101556882D01*
X169544297Y-101554722D01*
X169559000Y-101554000D01*
X171309000Y-101554000D01*
X171323703Y-101554722D01*
G37*
G36*
X171323703Y-102824722D02*
G01*
X171338264Y-102826882D01*
X171352543Y-102830459D01*
X171366403Y-102835418D01*
X171379710Y-102841712D01*
X171392336Y-102849280D01*
X171404159Y-102858048D01*
X171415066Y-102867934D01*
X171424952Y-102878841D01*
X171433720Y-102890664D01*
X171441288Y-102903290D01*
X171447582Y-102916597D01*
X171452541Y-102930457D01*
X171456118Y-102944736D01*
X171458278Y-102959297D01*
X171459000Y-102974000D01*
X171459000Y-103274000D01*
X171458278Y-103288703D01*
X171456118Y-103303264D01*
X171452541Y-103317543D01*
X171447582Y-103331403D01*
X171441288Y-103344710D01*
X171433720Y-103357336D01*
X171424952Y-103369159D01*
X171415066Y-103380066D01*
X171404159Y-103389952D01*
X171392336Y-103398720D01*
X171379710Y-103406288D01*
X171366403Y-103412582D01*
X171352543Y-103417541D01*
X171338264Y-103421118D01*
X171323703Y-103423278D01*
X171309000Y-103424000D01*
X169559000Y-103424000D01*
X169544297Y-103423278D01*
X169529736Y-103421118D01*
X169515457Y-103417541D01*
X169501597Y-103412582D01*
X169488290Y-103406288D01*
X169475664Y-103398720D01*
X169463841Y-103389952D01*
X169452934Y-103380066D01*
X169443048Y-103369159D01*
X169434280Y-103357336D01*
X169426712Y-103344710D01*
X169420418Y-103331403D01*
X169415459Y-103317543D01*
X169411882Y-103303264D01*
X169409722Y-103288703D01*
X169409000Y-103274000D01*
X169409000Y-102974000D01*
X169409722Y-102959297D01*
X169411882Y-102944736D01*
X169415459Y-102930457D01*
X169420418Y-102916597D01*
X169426712Y-102903290D01*
X169434280Y-102890664D01*
X169443048Y-102878841D01*
X169452934Y-102867934D01*
X169463841Y-102858048D01*
X169475664Y-102849280D01*
X169488290Y-102841712D01*
X169501597Y-102835418D01*
X169515457Y-102830459D01*
X169529736Y-102826882D01*
X169544297Y-102824722D01*
X169559000Y-102824000D01*
X171309000Y-102824000D01*
X171323703Y-102824722D01*
G37*
G36*
X180623703Y-102824722D02*
G01*
X180638264Y-102826882D01*
X180652543Y-102830459D01*
X180666403Y-102835418D01*
X180679710Y-102841712D01*
X180692336Y-102849280D01*
X180704159Y-102858048D01*
X180715066Y-102867934D01*
X180724952Y-102878841D01*
X180733720Y-102890664D01*
X180741288Y-102903290D01*
X180747582Y-102916597D01*
X180752541Y-102930457D01*
X180756118Y-102944736D01*
X180758278Y-102959297D01*
X180759000Y-102974000D01*
X180759000Y-103274000D01*
X180758278Y-103288703D01*
X180756118Y-103303264D01*
X180752541Y-103317543D01*
X180747582Y-103331403D01*
X180741288Y-103344710D01*
X180733720Y-103357336D01*
X180724952Y-103369159D01*
X180715066Y-103380066D01*
X180704159Y-103389952D01*
X180692336Y-103398720D01*
X180679710Y-103406288D01*
X180666403Y-103412582D01*
X180652543Y-103417541D01*
X180638264Y-103421118D01*
X180623703Y-103423278D01*
X180609000Y-103424000D01*
X178859000Y-103424000D01*
X178844297Y-103423278D01*
X178829736Y-103421118D01*
X178815457Y-103417541D01*
X178801597Y-103412582D01*
X178788290Y-103406288D01*
X178775664Y-103398720D01*
X178763841Y-103389952D01*
X178752934Y-103380066D01*
X178743048Y-103369159D01*
X178734280Y-103357336D01*
X178726712Y-103344710D01*
X178720418Y-103331403D01*
X178715459Y-103317543D01*
X178711882Y-103303264D01*
X178709722Y-103288703D01*
X178709000Y-103274000D01*
X178709000Y-102974000D01*
X178709722Y-102959297D01*
X178711882Y-102944736D01*
X178715459Y-102930457D01*
X178720418Y-102916597D01*
X178726712Y-102903290D01*
X178734280Y-102890664D01*
X178743048Y-102878841D01*
X178752934Y-102867934D01*
X178763841Y-102858048D01*
X178775664Y-102849280D01*
X178788290Y-102841712D01*
X178801597Y-102835418D01*
X178815457Y-102830459D01*
X178829736Y-102826882D01*
X178844297Y-102824722D01*
X178859000Y-102824000D01*
X180609000Y-102824000D01*
X180623703Y-102824722D01*
G37*
G36*
X180623703Y-101554722D02*
G01*
X180638264Y-101556882D01*
X180652543Y-101560459D01*
X180666403Y-101565418D01*
X180679710Y-101571712D01*
X180692336Y-101579280D01*
X180704159Y-101588048D01*
X180715066Y-101597934D01*
X180724952Y-101608841D01*
X180733720Y-101620664D01*
X180741288Y-101633290D01*
X180747582Y-101646597D01*
X180752541Y-101660457D01*
X180756118Y-101674736D01*
X180758278Y-101689297D01*
X180759000Y-101704000D01*
X180759000Y-102004000D01*
X180758278Y-102018703D01*
X180756118Y-102033264D01*
X180752541Y-102047543D01*
X180747582Y-102061403D01*
X180741288Y-102074710D01*
X180733720Y-102087336D01*
X180724952Y-102099159D01*
X180715066Y-102110066D01*
X180704159Y-102119952D01*
X180692336Y-102128720D01*
X180679710Y-102136288D01*
X180666403Y-102142582D01*
X180652543Y-102147541D01*
X180638264Y-102151118D01*
X180623703Y-102153278D01*
X180609000Y-102154000D01*
X178859000Y-102154000D01*
X178844297Y-102153278D01*
X178829736Y-102151118D01*
X178815457Y-102147541D01*
X178801597Y-102142582D01*
X178788290Y-102136288D01*
X178775664Y-102128720D01*
X178763841Y-102119952D01*
X178752934Y-102110066D01*
X178743048Y-102099159D01*
X178734280Y-102087336D01*
X178726712Y-102074710D01*
X178720418Y-102061403D01*
X178715459Y-102047543D01*
X178711882Y-102033264D01*
X178709722Y-102018703D01*
X178709000Y-102004000D01*
X178709000Y-101704000D01*
X178709722Y-101689297D01*
X178711882Y-101674736D01*
X178715459Y-101660457D01*
X178720418Y-101646597D01*
X178726712Y-101633290D01*
X178734280Y-101620664D01*
X178743048Y-101608841D01*
X178752934Y-101597934D01*
X178763841Y-101588048D01*
X178775664Y-101579280D01*
X178788290Y-101571712D01*
X178801597Y-101565418D01*
X178815457Y-101560459D01*
X178829736Y-101556882D01*
X178844297Y-101554722D01*
X178859000Y-101554000D01*
X180609000Y-101554000D01*
X180623703Y-101554722D01*
G37*
G36*
X180623703Y-100284722D02*
G01*
X180638264Y-100286882D01*
X180652543Y-100290459D01*
X180666403Y-100295418D01*
X180679710Y-100301712D01*
X180692336Y-100309280D01*
X180704159Y-100318048D01*
X180715066Y-100327934D01*
X180724952Y-100338841D01*
X180733720Y-100350664D01*
X180741288Y-100363290D01*
X180747582Y-100376597D01*
X180752541Y-100390457D01*
X180756118Y-100404736D01*
X180758278Y-100419297D01*
X180759000Y-100434000D01*
X180759000Y-100734000D01*
X180758278Y-100748703D01*
X180756118Y-100763264D01*
X180752541Y-100777543D01*
X180747582Y-100791403D01*
X180741288Y-100804710D01*
X180733720Y-100817336D01*
X180724952Y-100829159D01*
X180715066Y-100840066D01*
X180704159Y-100849952D01*
X180692336Y-100858720D01*
X180679710Y-100866288D01*
X180666403Y-100872582D01*
X180652543Y-100877541D01*
X180638264Y-100881118D01*
X180623703Y-100883278D01*
X180609000Y-100884000D01*
X178859000Y-100884000D01*
X178844297Y-100883278D01*
X178829736Y-100881118D01*
X178815457Y-100877541D01*
X178801597Y-100872582D01*
X178788290Y-100866288D01*
X178775664Y-100858720D01*
X178763841Y-100849952D01*
X178752934Y-100840066D01*
X178743048Y-100829159D01*
X178734280Y-100817336D01*
X178726712Y-100804710D01*
X178720418Y-100791403D01*
X178715459Y-100777543D01*
X178711882Y-100763264D01*
X178709722Y-100748703D01*
X178709000Y-100734000D01*
X178709000Y-100434000D01*
X178709722Y-100419297D01*
X178711882Y-100404736D01*
X178715459Y-100390457D01*
X178720418Y-100376597D01*
X178726712Y-100363290D01*
X178734280Y-100350664D01*
X178743048Y-100338841D01*
X178752934Y-100327934D01*
X178763841Y-100318048D01*
X178775664Y-100309280D01*
X178788290Y-100301712D01*
X178801597Y-100295418D01*
X178815457Y-100290459D01*
X178829736Y-100286882D01*
X178844297Y-100284722D01*
X178859000Y-100284000D01*
X180609000Y-100284000D01*
X180623703Y-100284722D01*
G37*
G36*
X180623703Y-99014722D02*
G01*
X180638264Y-99016882D01*
X180652543Y-99020459D01*
X180666403Y-99025418D01*
X180679710Y-99031712D01*
X180692336Y-99039280D01*
X180704159Y-99048048D01*
X180715066Y-99057934D01*
X180724952Y-99068841D01*
X180733720Y-99080664D01*
X180741288Y-99093290D01*
X180747582Y-99106597D01*
X180752541Y-99120457D01*
X180756118Y-99134736D01*
X180758278Y-99149297D01*
X180759000Y-99164000D01*
X180759000Y-99464000D01*
X180758278Y-99478703D01*
X180756118Y-99493264D01*
X180752541Y-99507543D01*
X180747582Y-99521403D01*
X180741288Y-99534710D01*
X180733720Y-99547336D01*
X180724952Y-99559159D01*
X180715066Y-99570066D01*
X180704159Y-99579952D01*
X180692336Y-99588720D01*
X180679710Y-99596288D01*
X180666403Y-99602582D01*
X180652543Y-99607541D01*
X180638264Y-99611118D01*
X180623703Y-99613278D01*
X180609000Y-99614000D01*
X178859000Y-99614000D01*
X178844297Y-99613278D01*
X178829736Y-99611118D01*
X178815457Y-99607541D01*
X178801597Y-99602582D01*
X178788290Y-99596288D01*
X178775664Y-99588720D01*
X178763841Y-99579952D01*
X178752934Y-99570066D01*
X178743048Y-99559159D01*
X178734280Y-99547336D01*
X178726712Y-99534710D01*
X178720418Y-99521403D01*
X178715459Y-99507543D01*
X178711882Y-99493264D01*
X178709722Y-99478703D01*
X178709000Y-99464000D01*
X178709000Y-99164000D01*
X178709722Y-99149297D01*
X178711882Y-99134736D01*
X178715459Y-99120457D01*
X178720418Y-99106597D01*
X178726712Y-99093290D01*
X178734280Y-99080664D01*
X178743048Y-99068841D01*
X178752934Y-99057934D01*
X178763841Y-99048048D01*
X178775664Y-99039280D01*
X178788290Y-99031712D01*
X178801597Y-99025418D01*
X178815457Y-99020459D01*
X178829736Y-99016882D01*
X178844297Y-99014722D01*
X178859000Y-99014000D01*
X180609000Y-99014000D01*
X180623703Y-99014722D01*
G37*
G36*
X180623703Y-97744722D02*
G01*
X180638264Y-97746882D01*
X180652543Y-97750459D01*
X180666403Y-97755418D01*
X180679710Y-97761712D01*
X180692336Y-97769280D01*
X180704159Y-97778048D01*
X180715066Y-97787934D01*
X180724952Y-97798841D01*
X180733720Y-97810664D01*
X180741288Y-97823290D01*
X180747582Y-97836597D01*
X180752541Y-97850457D01*
X180756118Y-97864736D01*
X180758278Y-97879297D01*
X180759000Y-97894000D01*
X180759000Y-98194000D01*
X180758278Y-98208703D01*
X180756118Y-98223264D01*
X180752541Y-98237543D01*
X180747582Y-98251403D01*
X180741288Y-98264710D01*
X180733720Y-98277336D01*
X180724952Y-98289159D01*
X180715066Y-98300066D01*
X180704159Y-98309952D01*
X180692336Y-98318720D01*
X180679710Y-98326288D01*
X180666403Y-98332582D01*
X180652543Y-98337541D01*
X180638264Y-98341118D01*
X180623703Y-98343278D01*
X180609000Y-98344000D01*
X178859000Y-98344000D01*
X178844297Y-98343278D01*
X178829736Y-98341118D01*
X178815457Y-98337541D01*
X178801597Y-98332582D01*
X178788290Y-98326288D01*
X178775664Y-98318720D01*
X178763841Y-98309952D01*
X178752934Y-98300066D01*
X178743048Y-98289159D01*
X178734280Y-98277336D01*
X178726712Y-98264710D01*
X178720418Y-98251403D01*
X178715459Y-98237543D01*
X178711882Y-98223264D01*
X178709722Y-98208703D01*
X178709000Y-98194000D01*
X178709000Y-97894000D01*
X178709722Y-97879297D01*
X178711882Y-97864736D01*
X178715459Y-97850457D01*
X178720418Y-97836597D01*
X178726712Y-97823290D01*
X178734280Y-97810664D01*
X178743048Y-97798841D01*
X178752934Y-97787934D01*
X178763841Y-97778048D01*
X178775664Y-97769280D01*
X178788290Y-97761712D01*
X178801597Y-97755418D01*
X178815457Y-97750459D01*
X178829736Y-97746882D01*
X178844297Y-97744722D01*
X178859000Y-97744000D01*
X180609000Y-97744000D01*
X180623703Y-97744722D01*
G37*
G36*
X180623703Y-96474722D02*
G01*
X180638264Y-96476882D01*
X180652543Y-96480459D01*
X180666403Y-96485418D01*
X180679710Y-96491712D01*
X180692336Y-96499280D01*
X180704159Y-96508048D01*
X180715066Y-96517934D01*
X180724952Y-96528841D01*
X180733720Y-96540664D01*
X180741288Y-96553290D01*
X180747582Y-96566597D01*
X180752541Y-96580457D01*
X180756118Y-96594736D01*
X180758278Y-96609297D01*
X180759000Y-96624000D01*
X180759000Y-96924000D01*
X180758278Y-96938703D01*
X180756118Y-96953264D01*
X180752541Y-96967543D01*
X180747582Y-96981403D01*
X180741288Y-96994710D01*
X180733720Y-97007336D01*
X180724952Y-97019159D01*
X180715066Y-97030066D01*
X180704159Y-97039952D01*
X180692336Y-97048720D01*
X180679710Y-97056288D01*
X180666403Y-97062582D01*
X180652543Y-97067541D01*
X180638264Y-97071118D01*
X180623703Y-97073278D01*
X180609000Y-97074000D01*
X178859000Y-97074000D01*
X178844297Y-97073278D01*
X178829736Y-97071118D01*
X178815457Y-97067541D01*
X178801597Y-97062582D01*
X178788290Y-97056288D01*
X178775664Y-97048720D01*
X178763841Y-97039952D01*
X178752934Y-97030066D01*
X178743048Y-97019159D01*
X178734280Y-97007336D01*
X178726712Y-96994710D01*
X178720418Y-96981403D01*
X178715459Y-96967543D01*
X178711882Y-96953264D01*
X178709722Y-96938703D01*
X178709000Y-96924000D01*
X178709000Y-96624000D01*
X178709722Y-96609297D01*
X178711882Y-96594736D01*
X178715459Y-96580457D01*
X178720418Y-96566597D01*
X178726712Y-96553290D01*
X178734280Y-96540664D01*
X178743048Y-96528841D01*
X178752934Y-96517934D01*
X178763841Y-96508048D01*
X178775664Y-96499280D01*
X178788290Y-96491712D01*
X178801597Y-96485418D01*
X178815457Y-96480459D01*
X178829736Y-96476882D01*
X178844297Y-96474722D01*
X178859000Y-96474000D01*
X180609000Y-96474000D01*
X180623703Y-96474722D01*
G37*
G36*
X180623703Y-95204722D02*
G01*
X180638264Y-95206882D01*
X180652543Y-95210459D01*
X180666403Y-95215418D01*
X180679710Y-95221712D01*
X180692336Y-95229280D01*
X180704159Y-95238048D01*
X180715066Y-95247934D01*
X180724952Y-95258841D01*
X180733720Y-95270664D01*
X180741288Y-95283290D01*
X180747582Y-95296597D01*
X180752541Y-95310457D01*
X180756118Y-95324736D01*
X180758278Y-95339297D01*
X180759000Y-95354000D01*
X180759000Y-95654000D01*
X180758278Y-95668703D01*
X180756118Y-95683264D01*
X180752541Y-95697543D01*
X180747582Y-95711403D01*
X180741288Y-95724710D01*
X180733720Y-95737336D01*
X180724952Y-95749159D01*
X180715066Y-95760066D01*
X180704159Y-95769952D01*
X180692336Y-95778720D01*
X180679710Y-95786288D01*
X180666403Y-95792582D01*
X180652543Y-95797541D01*
X180638264Y-95801118D01*
X180623703Y-95803278D01*
X180609000Y-95804000D01*
X178859000Y-95804000D01*
X178844297Y-95803278D01*
X178829736Y-95801118D01*
X178815457Y-95797541D01*
X178801597Y-95792582D01*
X178788290Y-95786288D01*
X178775664Y-95778720D01*
X178763841Y-95769952D01*
X178752934Y-95760066D01*
X178743048Y-95749159D01*
X178734280Y-95737336D01*
X178726712Y-95724710D01*
X178720418Y-95711403D01*
X178715459Y-95697543D01*
X178711882Y-95683264D01*
X178709722Y-95668703D01*
X178709000Y-95654000D01*
X178709000Y-95354000D01*
X178709722Y-95339297D01*
X178711882Y-95324736D01*
X178715459Y-95310457D01*
X178720418Y-95296597D01*
X178726712Y-95283290D01*
X178734280Y-95270664D01*
X178743048Y-95258841D01*
X178752934Y-95247934D01*
X178763841Y-95238048D01*
X178775664Y-95229280D01*
X178788290Y-95221712D01*
X178801597Y-95215418D01*
X178815457Y-95210459D01*
X178829736Y-95206882D01*
X178844297Y-95204722D01*
X178859000Y-95204000D01*
X180609000Y-95204000D01*
X180623703Y-95204722D01*
G37*
G36*
X180623703Y-93934722D02*
G01*
X180638264Y-93936882D01*
X180652543Y-93940459D01*
X180666403Y-93945418D01*
X180679710Y-93951712D01*
X180692336Y-93959280D01*
X180704159Y-93968048D01*
X180715066Y-93977934D01*
X180724952Y-93988841D01*
X180733720Y-94000664D01*
X180741288Y-94013290D01*
X180747582Y-94026597D01*
X180752541Y-94040457D01*
X180756118Y-94054736D01*
X180758278Y-94069297D01*
X180759000Y-94084000D01*
X180759000Y-94384000D01*
X180758278Y-94398703D01*
X180756118Y-94413264D01*
X180752541Y-94427543D01*
X180747582Y-94441403D01*
X180741288Y-94454710D01*
X180733720Y-94467336D01*
X180724952Y-94479159D01*
X180715066Y-94490066D01*
X180704159Y-94499952D01*
X180692336Y-94508720D01*
X180679710Y-94516288D01*
X180666403Y-94522582D01*
X180652543Y-94527541D01*
X180638264Y-94531118D01*
X180623703Y-94533278D01*
X180609000Y-94534000D01*
X178859000Y-94534000D01*
X178844297Y-94533278D01*
X178829736Y-94531118D01*
X178815457Y-94527541D01*
X178801597Y-94522582D01*
X178788290Y-94516288D01*
X178775664Y-94508720D01*
X178763841Y-94499952D01*
X178752934Y-94490066D01*
X178743048Y-94479159D01*
X178734280Y-94467336D01*
X178726712Y-94454710D01*
X178720418Y-94441403D01*
X178715459Y-94427543D01*
X178711882Y-94413264D01*
X178709722Y-94398703D01*
X178709000Y-94384000D01*
X178709000Y-94084000D01*
X178709722Y-94069297D01*
X178711882Y-94054736D01*
X178715459Y-94040457D01*
X178720418Y-94026597D01*
X178726712Y-94013290D01*
X178734280Y-94000664D01*
X178743048Y-93988841D01*
X178752934Y-93977934D01*
X178763841Y-93968048D01*
X178775664Y-93959280D01*
X178788290Y-93951712D01*
X178801597Y-93945418D01*
X178815457Y-93940459D01*
X178829736Y-93936882D01*
X178844297Y-93934722D01*
X178859000Y-93934000D01*
X180609000Y-93934000D01*
X180623703Y-93934722D01*
G37*
G36*
X170660142Y-106272174D02*
G01*
X170683803Y-106275684D01*
X170707007Y-106281496D01*
X170729529Y-106289554D01*
X170751153Y-106299782D01*
X170771670Y-106312079D01*
X170790883Y-106326329D01*
X170808607Y-106342393D01*
X170824671Y-106360117D01*
X170838921Y-106379330D01*
X170851218Y-106399847D01*
X170861446Y-106421471D01*
X170869504Y-106443993D01*
X170875316Y-106467197D01*
X170878826Y-106490858D01*
X170880000Y-106514750D01*
X170880000Y-107002250D01*
X170878826Y-107026142D01*
X170875316Y-107049803D01*
X170869504Y-107073007D01*
X170861446Y-107095529D01*
X170851218Y-107117153D01*
X170838921Y-107137670D01*
X170824671Y-107156883D01*
X170808607Y-107174607D01*
X170790883Y-107190671D01*
X170771670Y-107204921D01*
X170751153Y-107217218D01*
X170729529Y-107227446D01*
X170707007Y-107235504D01*
X170683803Y-107241316D01*
X170660142Y-107244826D01*
X170636250Y-107246000D01*
X169723750Y-107246000D01*
X169699858Y-107244826D01*
X169676197Y-107241316D01*
X169652993Y-107235504D01*
X169630471Y-107227446D01*
X169608847Y-107217218D01*
X169588330Y-107204921D01*
X169569117Y-107190671D01*
X169551393Y-107174607D01*
X169535329Y-107156883D01*
X169521079Y-107137670D01*
X169508782Y-107117153D01*
X169498554Y-107095529D01*
X169490496Y-107073007D01*
X169484684Y-107049803D01*
X169481174Y-107026142D01*
X169480000Y-107002250D01*
X169480000Y-106514750D01*
X169481174Y-106490858D01*
X169484684Y-106467197D01*
X169490496Y-106443993D01*
X169498554Y-106421471D01*
X169508782Y-106399847D01*
X169521079Y-106379330D01*
X169535329Y-106360117D01*
X169551393Y-106342393D01*
X169569117Y-106326329D01*
X169588330Y-106312079D01*
X169608847Y-106299782D01*
X169630471Y-106289554D01*
X169652993Y-106281496D01*
X169676197Y-106275684D01*
X169699858Y-106272174D01*
X169723750Y-106271000D01*
X170636250Y-106271000D01*
X170660142Y-106272174D01*
G37*
G36*
X170660142Y-108147174D02*
G01*
X170683803Y-108150684D01*
X170707007Y-108156496D01*
X170729529Y-108164554D01*
X170751153Y-108174782D01*
X170771670Y-108187079D01*
X170790883Y-108201329D01*
X170808607Y-108217393D01*
X170824671Y-108235117D01*
X170838921Y-108254330D01*
X170851218Y-108274847D01*
X170861446Y-108296471D01*
X170869504Y-108318993D01*
X170875316Y-108342197D01*
X170878826Y-108365858D01*
X170880000Y-108389750D01*
X170880000Y-108877250D01*
X170878826Y-108901142D01*
X170875316Y-108924803D01*
X170869504Y-108948007D01*
X170861446Y-108970529D01*
X170851218Y-108992153D01*
X170838921Y-109012670D01*
X170824671Y-109031883D01*
X170808607Y-109049607D01*
X170790883Y-109065671D01*
X170771670Y-109079921D01*
X170751153Y-109092218D01*
X170729529Y-109102446D01*
X170707007Y-109110504D01*
X170683803Y-109116316D01*
X170660142Y-109119826D01*
X170636250Y-109121000D01*
X169723750Y-109121000D01*
X169699858Y-109119826D01*
X169676197Y-109116316D01*
X169652993Y-109110504D01*
X169630471Y-109102446D01*
X169608847Y-109092218D01*
X169588330Y-109079921D01*
X169569117Y-109065671D01*
X169551393Y-109049607D01*
X169535329Y-109031883D01*
X169521079Y-109012670D01*
X169508782Y-108992153D01*
X169498554Y-108970529D01*
X169490496Y-108948007D01*
X169484684Y-108924803D01*
X169481174Y-108901142D01*
X169480000Y-108877250D01*
X169480000Y-108389750D01*
X169481174Y-108365858D01*
X169484684Y-108342197D01*
X169490496Y-108318993D01*
X169498554Y-108296471D01*
X169508782Y-108274847D01*
X169521079Y-108254330D01*
X169535329Y-108235117D01*
X169551393Y-108217393D01*
X169569117Y-108201329D01*
X169588330Y-108187079D01*
X169608847Y-108174782D01*
X169630471Y-108164554D01*
X169652993Y-108156496D01*
X169676197Y-108150684D01*
X169699858Y-108147174D01*
X169723750Y-108146000D01*
X170636250Y-108146000D01*
X170660142Y-108147174D01*
G37*
G36*
X173200142Y-108147174D02*
G01*
X173223803Y-108150684D01*
X173247007Y-108156496D01*
X173269529Y-108164554D01*
X173291153Y-108174782D01*
X173311670Y-108187079D01*
X173330883Y-108201329D01*
X173348607Y-108217393D01*
X173364671Y-108235117D01*
X173378921Y-108254330D01*
X173391218Y-108274847D01*
X173401446Y-108296471D01*
X173409504Y-108318993D01*
X173415316Y-108342197D01*
X173418826Y-108365858D01*
X173420000Y-108389750D01*
X173420000Y-108877250D01*
X173418826Y-108901142D01*
X173415316Y-108924803D01*
X173409504Y-108948007D01*
X173401446Y-108970529D01*
X173391218Y-108992153D01*
X173378921Y-109012670D01*
X173364671Y-109031883D01*
X173348607Y-109049607D01*
X173330883Y-109065671D01*
X173311670Y-109079921D01*
X173291153Y-109092218D01*
X173269529Y-109102446D01*
X173247007Y-109110504D01*
X173223803Y-109116316D01*
X173200142Y-109119826D01*
X173176250Y-109121000D01*
X172263750Y-109121000D01*
X172239858Y-109119826D01*
X172216197Y-109116316D01*
X172192993Y-109110504D01*
X172170471Y-109102446D01*
X172148847Y-109092218D01*
X172128330Y-109079921D01*
X172109117Y-109065671D01*
X172091393Y-109049607D01*
X172075329Y-109031883D01*
X172061079Y-109012670D01*
X172048782Y-108992153D01*
X172038554Y-108970529D01*
X172030496Y-108948007D01*
X172024684Y-108924803D01*
X172021174Y-108901142D01*
X172020000Y-108877250D01*
X172020000Y-108389750D01*
X172021174Y-108365858D01*
X172024684Y-108342197D01*
X172030496Y-108318993D01*
X172038554Y-108296471D01*
X172048782Y-108274847D01*
X172061079Y-108254330D01*
X172075329Y-108235117D01*
X172091393Y-108217393D01*
X172109117Y-108201329D01*
X172128330Y-108187079D01*
X172148847Y-108174782D01*
X172170471Y-108164554D01*
X172192993Y-108156496D01*
X172216197Y-108150684D01*
X172239858Y-108147174D01*
X172263750Y-108146000D01*
X173176250Y-108146000D01*
X173200142Y-108147174D01*
G37*
G36*
X173200142Y-106272174D02*
G01*
X173223803Y-106275684D01*
X173247007Y-106281496D01*
X173269529Y-106289554D01*
X173291153Y-106299782D01*
X173311670Y-106312079D01*
X173330883Y-106326329D01*
X173348607Y-106342393D01*
X173364671Y-106360117D01*
X173378921Y-106379330D01*
X173391218Y-106399847D01*
X173401446Y-106421471D01*
X173409504Y-106443993D01*
X173415316Y-106467197D01*
X173418826Y-106490858D01*
X173420000Y-106514750D01*
X173420000Y-107002250D01*
X173418826Y-107026142D01*
X173415316Y-107049803D01*
X173409504Y-107073007D01*
X173401446Y-107095529D01*
X173391218Y-107117153D01*
X173378921Y-107137670D01*
X173364671Y-107156883D01*
X173348607Y-107174607D01*
X173330883Y-107190671D01*
X173311670Y-107204921D01*
X173291153Y-107217218D01*
X173269529Y-107227446D01*
X173247007Y-107235504D01*
X173223803Y-107241316D01*
X173200142Y-107244826D01*
X173176250Y-107246000D01*
X172263750Y-107246000D01*
X172239858Y-107244826D01*
X172216197Y-107241316D01*
X172192993Y-107235504D01*
X172170471Y-107227446D01*
X172148847Y-107217218D01*
X172128330Y-107204921D01*
X172109117Y-107190671D01*
X172091393Y-107174607D01*
X172075329Y-107156883D01*
X172061079Y-107137670D01*
X172048782Y-107117153D01*
X172038554Y-107095529D01*
X172030496Y-107073007D01*
X172024684Y-107049803D01*
X172021174Y-107026142D01*
X172020000Y-107002250D01*
X172020000Y-106514750D01*
X172021174Y-106490858D01*
X172024684Y-106467197D01*
X172030496Y-106443993D01*
X172038554Y-106421471D01*
X172048782Y-106399847D01*
X172061079Y-106379330D01*
X172075329Y-106360117D01*
X172091393Y-106342393D01*
X172109117Y-106326329D01*
X172128330Y-106312079D01*
X172148847Y-106299782D01*
X172170471Y-106289554D01*
X172192993Y-106281496D01*
X172216197Y-106275684D01*
X172239858Y-106272174D01*
X172263750Y-106271000D01*
X173176250Y-106271000D01*
X173200142Y-106272174D01*
G37*
G36*
X177481142Y-85661174D02*
G01*
X177504803Y-85664684D01*
X177528007Y-85670496D01*
X177550529Y-85678554D01*
X177572153Y-85688782D01*
X177592670Y-85701079D01*
X177611883Y-85715329D01*
X177629607Y-85731393D01*
X177645671Y-85749117D01*
X177659921Y-85768330D01*
X177672218Y-85788847D01*
X177682446Y-85810471D01*
X177690504Y-85832993D01*
X177696316Y-85856197D01*
X177699826Y-85879858D01*
X177701000Y-85903750D01*
X177701000Y-86816250D01*
X177699826Y-86840142D01*
X177696316Y-86863803D01*
X177690504Y-86887007D01*
X177682446Y-86909529D01*
X177672218Y-86931153D01*
X177659921Y-86951670D01*
X177645671Y-86970883D01*
X177629607Y-86988607D01*
X177611883Y-87004671D01*
X177592670Y-87018921D01*
X177572153Y-87031218D01*
X177550529Y-87041446D01*
X177528007Y-87049504D01*
X177504803Y-87055316D01*
X177481142Y-87058826D01*
X177457250Y-87060000D01*
X176969750Y-87060000D01*
X176945858Y-87058826D01*
X176922197Y-87055316D01*
X176898993Y-87049504D01*
X176876471Y-87041446D01*
X176854847Y-87031218D01*
X176834330Y-87018921D01*
X176815117Y-87004671D01*
X176797393Y-86988607D01*
X176781329Y-86970883D01*
X176767079Y-86951670D01*
X176754782Y-86931153D01*
X176744554Y-86909529D01*
X176736496Y-86887007D01*
X176730684Y-86863803D01*
X176727174Y-86840142D01*
X176726000Y-86816250D01*
X176726000Y-85903750D01*
X176727174Y-85879858D01*
X176730684Y-85856197D01*
X176736496Y-85832993D01*
X176744554Y-85810471D01*
X176754782Y-85788847D01*
X176767079Y-85768330D01*
X176781329Y-85749117D01*
X176797393Y-85731393D01*
X176815117Y-85715329D01*
X176834330Y-85701079D01*
X176854847Y-85688782D01*
X176876471Y-85678554D01*
X176898993Y-85670496D01*
X176922197Y-85664684D01*
X176945858Y-85661174D01*
X176969750Y-85660000D01*
X177457250Y-85660000D01*
X177481142Y-85661174D01*
G37*
G36*
X175606142Y-85661174D02*
G01*
X175629803Y-85664684D01*
X175653007Y-85670496D01*
X175675529Y-85678554D01*
X175697153Y-85688782D01*
X175717670Y-85701079D01*
X175736883Y-85715329D01*
X175754607Y-85731393D01*
X175770671Y-85749117D01*
X175784921Y-85768330D01*
X175797218Y-85788847D01*
X175807446Y-85810471D01*
X175815504Y-85832993D01*
X175821316Y-85856197D01*
X175824826Y-85879858D01*
X175826000Y-85903750D01*
X175826000Y-86816250D01*
X175824826Y-86840142D01*
X175821316Y-86863803D01*
X175815504Y-86887007D01*
X175807446Y-86909529D01*
X175797218Y-86931153D01*
X175784921Y-86951670D01*
X175770671Y-86970883D01*
X175754607Y-86988607D01*
X175736883Y-87004671D01*
X175717670Y-87018921D01*
X175697153Y-87031218D01*
X175675529Y-87041446D01*
X175653007Y-87049504D01*
X175629803Y-87055316D01*
X175606142Y-87058826D01*
X175582250Y-87060000D01*
X175094750Y-87060000D01*
X175070858Y-87058826D01*
X175047197Y-87055316D01*
X175023993Y-87049504D01*
X175001471Y-87041446D01*
X174979847Y-87031218D01*
X174959330Y-87018921D01*
X174940117Y-87004671D01*
X174922393Y-86988607D01*
X174906329Y-86970883D01*
X174892079Y-86951670D01*
X174879782Y-86931153D01*
X174869554Y-86909529D01*
X174861496Y-86887007D01*
X174855684Y-86863803D01*
X174852174Y-86840142D01*
X174851000Y-86816250D01*
X174851000Y-85903750D01*
X174852174Y-85879858D01*
X174855684Y-85856197D01*
X174861496Y-85832993D01*
X174869554Y-85810471D01*
X174879782Y-85788847D01*
X174892079Y-85768330D01*
X174906329Y-85749117D01*
X174922393Y-85731393D01*
X174940117Y-85715329D01*
X174959330Y-85701079D01*
X174979847Y-85688782D01*
X175001471Y-85678554D01*
X175023993Y-85670496D01*
X175047197Y-85664684D01*
X175070858Y-85661174D01*
X175094750Y-85660000D01*
X175582250Y-85660000D01*
X175606142Y-85661174D01*
G37*
G36*
X177481142Y-88201174D02*
G01*
X177504803Y-88204684D01*
X177528007Y-88210496D01*
X177550529Y-88218554D01*
X177572153Y-88228782D01*
X177592670Y-88241079D01*
X177611883Y-88255329D01*
X177629607Y-88271393D01*
X177645671Y-88289117D01*
X177659921Y-88308330D01*
X177672218Y-88328847D01*
X177682446Y-88350471D01*
X177690504Y-88372993D01*
X177696316Y-88396197D01*
X177699826Y-88419858D01*
X177701000Y-88443750D01*
X177701000Y-89356250D01*
X177699826Y-89380142D01*
X177696316Y-89403803D01*
X177690504Y-89427007D01*
X177682446Y-89449529D01*
X177672218Y-89471153D01*
X177659921Y-89491670D01*
X177645671Y-89510883D01*
X177629607Y-89528607D01*
X177611883Y-89544671D01*
X177592670Y-89558921D01*
X177572153Y-89571218D01*
X177550529Y-89581446D01*
X177528007Y-89589504D01*
X177504803Y-89595316D01*
X177481142Y-89598826D01*
X177457250Y-89600000D01*
X176969750Y-89600000D01*
X176945858Y-89598826D01*
X176922197Y-89595316D01*
X176898993Y-89589504D01*
X176876471Y-89581446D01*
X176854847Y-89571218D01*
X176834330Y-89558921D01*
X176815117Y-89544671D01*
X176797393Y-89528607D01*
X176781329Y-89510883D01*
X176767079Y-89491670D01*
X176754782Y-89471153D01*
X176744554Y-89449529D01*
X176736496Y-89427007D01*
X176730684Y-89403803D01*
X176727174Y-89380142D01*
X176726000Y-89356250D01*
X176726000Y-88443750D01*
X176727174Y-88419858D01*
X176730684Y-88396197D01*
X176736496Y-88372993D01*
X176744554Y-88350471D01*
X176754782Y-88328847D01*
X176767079Y-88308330D01*
X176781329Y-88289117D01*
X176797393Y-88271393D01*
X176815117Y-88255329D01*
X176834330Y-88241079D01*
X176854847Y-88228782D01*
X176876471Y-88218554D01*
X176898993Y-88210496D01*
X176922197Y-88204684D01*
X176945858Y-88201174D01*
X176969750Y-88200000D01*
X177457250Y-88200000D01*
X177481142Y-88201174D01*
G37*
G36*
X175606142Y-88201174D02*
G01*
X175629803Y-88204684D01*
X175653007Y-88210496D01*
X175675529Y-88218554D01*
X175697153Y-88228782D01*
X175717670Y-88241079D01*
X175736883Y-88255329D01*
X175754607Y-88271393D01*
X175770671Y-88289117D01*
X175784921Y-88308330D01*
X175797218Y-88328847D01*
X175807446Y-88350471D01*
X175815504Y-88372993D01*
X175821316Y-88396197D01*
X175824826Y-88419858D01*
X175826000Y-88443750D01*
X175826000Y-89356250D01*
X175824826Y-89380142D01*
X175821316Y-89403803D01*
X175815504Y-89427007D01*
X175807446Y-89449529D01*
X175797218Y-89471153D01*
X175784921Y-89491670D01*
X175770671Y-89510883D01*
X175754607Y-89528607D01*
X175736883Y-89544671D01*
X175717670Y-89558921D01*
X175697153Y-89571218D01*
X175675529Y-89581446D01*
X175653007Y-89589504D01*
X175629803Y-89595316D01*
X175606142Y-89598826D01*
X175582250Y-89600000D01*
X175094750Y-89600000D01*
X175070858Y-89598826D01*
X175047197Y-89595316D01*
X175023993Y-89589504D01*
X175001471Y-89581446D01*
X174979847Y-89571218D01*
X174959330Y-89558921D01*
X174940117Y-89544671D01*
X174922393Y-89528607D01*
X174906329Y-89510883D01*
X174892079Y-89491670D01*
X174879782Y-89471153D01*
X174869554Y-89449529D01*
X174861496Y-89427007D01*
X174855684Y-89403803D01*
X174852174Y-89380142D01*
X174851000Y-89356250D01*
X174851000Y-88443750D01*
X174852174Y-88419858D01*
X174855684Y-88396197D01*
X174861496Y-88372993D01*
X174869554Y-88350471D01*
X174879782Y-88328847D01*
X174892079Y-88308330D01*
X174906329Y-88289117D01*
X174922393Y-88271393D01*
X174940117Y-88255329D01*
X174959330Y-88241079D01*
X174979847Y-88228782D01*
X175001471Y-88218554D01*
X175023993Y-88210496D01*
X175047197Y-88204684D01*
X175070858Y-88201174D01*
X175094750Y-88200000D01*
X175582250Y-88200000D01*
X175606142Y-88201174D01*
G37*
G36*
X172655142Y-82867174D02*
G01*
X172678803Y-82870684D01*
X172702007Y-82876496D01*
X172724529Y-82884554D01*
X172746153Y-82894782D01*
X172766670Y-82907079D01*
X172785883Y-82921329D01*
X172803607Y-82937393D01*
X172819671Y-82955117D01*
X172833921Y-82974330D01*
X172846218Y-82994847D01*
X172856446Y-83016471D01*
X172864504Y-83038993D01*
X172870316Y-83062197D01*
X172873826Y-83085858D01*
X172875000Y-83109750D01*
X172875000Y-84022250D01*
X172873826Y-84046142D01*
X172870316Y-84069803D01*
X172864504Y-84093007D01*
X172856446Y-84115529D01*
X172846218Y-84137153D01*
X172833921Y-84157670D01*
X172819671Y-84176883D01*
X172803607Y-84194607D01*
X172785883Y-84210671D01*
X172766670Y-84224921D01*
X172746153Y-84237218D01*
X172724529Y-84247446D01*
X172702007Y-84255504D01*
X172678803Y-84261316D01*
X172655142Y-84264826D01*
X172631250Y-84266000D01*
X172143750Y-84266000D01*
X172119858Y-84264826D01*
X172096197Y-84261316D01*
X172072993Y-84255504D01*
X172050471Y-84247446D01*
X172028847Y-84237218D01*
X172008330Y-84224921D01*
X171989117Y-84210671D01*
X171971393Y-84194607D01*
X171955329Y-84176883D01*
X171941079Y-84157670D01*
X171928782Y-84137153D01*
X171918554Y-84115529D01*
X171910496Y-84093007D01*
X171904684Y-84069803D01*
X171901174Y-84046142D01*
X171900000Y-84022250D01*
X171900000Y-83109750D01*
X171901174Y-83085858D01*
X171904684Y-83062197D01*
X171910496Y-83038993D01*
X171918554Y-83016471D01*
X171928782Y-82994847D01*
X171941079Y-82974330D01*
X171955329Y-82955117D01*
X171971393Y-82937393D01*
X171989117Y-82921329D01*
X172008330Y-82907079D01*
X172028847Y-82894782D01*
X172050471Y-82884554D01*
X172072993Y-82876496D01*
X172096197Y-82870684D01*
X172119858Y-82867174D01*
X172143750Y-82866000D01*
X172631250Y-82866000D01*
X172655142Y-82867174D01*
G37*
G36*
X170780142Y-82867174D02*
G01*
X170803803Y-82870684D01*
X170827007Y-82876496D01*
X170849529Y-82884554D01*
X170871153Y-82894782D01*
X170891670Y-82907079D01*
X170910883Y-82921329D01*
X170928607Y-82937393D01*
X170944671Y-82955117D01*
X170958921Y-82974330D01*
X170971218Y-82994847D01*
X170981446Y-83016471D01*
X170989504Y-83038993D01*
X170995316Y-83062197D01*
X170998826Y-83085858D01*
X171000000Y-83109750D01*
X171000000Y-84022250D01*
X170998826Y-84046142D01*
X170995316Y-84069803D01*
X170989504Y-84093007D01*
X170981446Y-84115529D01*
X170971218Y-84137153D01*
X170958921Y-84157670D01*
X170944671Y-84176883D01*
X170928607Y-84194607D01*
X170910883Y-84210671D01*
X170891670Y-84224921D01*
X170871153Y-84237218D01*
X170849529Y-84247446D01*
X170827007Y-84255504D01*
X170803803Y-84261316D01*
X170780142Y-84264826D01*
X170756250Y-84266000D01*
X170268750Y-84266000D01*
X170244858Y-84264826D01*
X170221197Y-84261316D01*
X170197993Y-84255504D01*
X170175471Y-84247446D01*
X170153847Y-84237218D01*
X170133330Y-84224921D01*
X170114117Y-84210671D01*
X170096393Y-84194607D01*
X170080329Y-84176883D01*
X170066079Y-84157670D01*
X170053782Y-84137153D01*
X170043554Y-84115529D01*
X170035496Y-84093007D01*
X170029684Y-84069803D01*
X170026174Y-84046142D01*
X170025000Y-84022250D01*
X170025000Y-83109750D01*
X170026174Y-83085858D01*
X170029684Y-83062197D01*
X170035496Y-83038993D01*
X170043554Y-83016471D01*
X170053782Y-82994847D01*
X170066079Y-82974330D01*
X170080329Y-82955117D01*
X170096393Y-82937393D01*
X170114117Y-82921329D01*
X170133330Y-82907079D01*
X170153847Y-82894782D01*
X170175471Y-82884554D01*
X170197993Y-82876496D01*
X170221197Y-82870684D01*
X170244858Y-82867174D01*
X170268750Y-82866000D01*
X170756250Y-82866000D01*
X170780142Y-82867174D01*
G37*
G36*
X175527642Y-82867174D02*
G01*
X175551303Y-82870684D01*
X175574507Y-82876496D01*
X175597029Y-82884554D01*
X175618653Y-82894782D01*
X175639170Y-82907079D01*
X175658383Y-82921329D01*
X175676107Y-82937393D01*
X175692171Y-82955117D01*
X175706421Y-82974330D01*
X175718718Y-82994847D01*
X175728946Y-83016471D01*
X175737004Y-83038993D01*
X175742816Y-83062197D01*
X175746326Y-83085858D01*
X175747500Y-83109750D01*
X175747500Y-84022250D01*
X175746326Y-84046142D01*
X175742816Y-84069803D01*
X175737004Y-84093007D01*
X175728946Y-84115529D01*
X175718718Y-84137153D01*
X175706421Y-84157670D01*
X175692171Y-84176883D01*
X175676107Y-84194607D01*
X175658383Y-84210671D01*
X175639170Y-84224921D01*
X175618653Y-84237218D01*
X175597029Y-84247446D01*
X175574507Y-84255504D01*
X175551303Y-84261316D01*
X175527642Y-84264826D01*
X175503750Y-84266000D01*
X175016250Y-84266000D01*
X174992358Y-84264826D01*
X174968697Y-84261316D01*
X174945493Y-84255504D01*
X174922971Y-84247446D01*
X174901347Y-84237218D01*
X174880830Y-84224921D01*
X174861617Y-84210671D01*
X174843893Y-84194607D01*
X174827829Y-84176883D01*
X174813579Y-84157670D01*
X174801282Y-84137153D01*
X174791054Y-84115529D01*
X174782996Y-84093007D01*
X174777184Y-84069803D01*
X174773674Y-84046142D01*
X174772500Y-84022250D01*
X174772500Y-83109750D01*
X174773674Y-83085858D01*
X174777184Y-83062197D01*
X174782996Y-83038993D01*
X174791054Y-83016471D01*
X174801282Y-82994847D01*
X174813579Y-82974330D01*
X174827829Y-82955117D01*
X174843893Y-82937393D01*
X174861617Y-82921329D01*
X174880830Y-82907079D01*
X174901347Y-82894782D01*
X174922971Y-82884554D01*
X174945493Y-82876496D01*
X174968697Y-82870684D01*
X174992358Y-82867174D01*
X175016250Y-82866000D01*
X175503750Y-82866000D01*
X175527642Y-82867174D01*
G37*
G36*
X177402642Y-82867174D02*
G01*
X177426303Y-82870684D01*
X177449507Y-82876496D01*
X177472029Y-82884554D01*
X177493653Y-82894782D01*
X177514170Y-82907079D01*
X177533383Y-82921329D01*
X177551107Y-82937393D01*
X177567171Y-82955117D01*
X177581421Y-82974330D01*
X177593718Y-82994847D01*
X177603946Y-83016471D01*
X177612004Y-83038993D01*
X177617816Y-83062197D01*
X177621326Y-83085858D01*
X177622500Y-83109750D01*
X177622500Y-84022250D01*
X177621326Y-84046142D01*
X177617816Y-84069803D01*
X177612004Y-84093007D01*
X177603946Y-84115529D01*
X177593718Y-84137153D01*
X177581421Y-84157670D01*
X177567171Y-84176883D01*
X177551107Y-84194607D01*
X177533383Y-84210671D01*
X177514170Y-84224921D01*
X177493653Y-84237218D01*
X177472029Y-84247446D01*
X177449507Y-84255504D01*
X177426303Y-84261316D01*
X177402642Y-84264826D01*
X177378750Y-84266000D01*
X176891250Y-84266000D01*
X176867358Y-84264826D01*
X176843697Y-84261316D01*
X176820493Y-84255504D01*
X176797971Y-84247446D01*
X176776347Y-84237218D01*
X176755830Y-84224921D01*
X176736617Y-84210671D01*
X176718893Y-84194607D01*
X176702829Y-84176883D01*
X176688579Y-84157670D01*
X176676282Y-84137153D01*
X176666054Y-84115529D01*
X176657996Y-84093007D01*
X176652184Y-84069803D01*
X176648674Y-84046142D01*
X176647500Y-84022250D01*
X176647500Y-83109750D01*
X176648674Y-83085858D01*
X176652184Y-83062197D01*
X176657996Y-83038993D01*
X176666054Y-83016471D01*
X176676282Y-82994847D01*
X176688579Y-82974330D01*
X176702829Y-82955117D01*
X176718893Y-82937393D01*
X176736617Y-82921329D01*
X176755830Y-82907079D01*
X176776347Y-82894782D01*
X176797971Y-82884554D01*
X176820493Y-82876496D01*
X176843697Y-82870684D01*
X176867358Y-82867174D01*
X176891250Y-82866000D01*
X177378750Y-82866000D01*
X177402642Y-82867174D01*
G37*
G36*
X170780142Y-88201174D02*
G01*
X170803803Y-88204684D01*
X170827007Y-88210496D01*
X170849529Y-88218554D01*
X170871153Y-88228782D01*
X170891670Y-88241079D01*
X170910883Y-88255329D01*
X170928607Y-88271393D01*
X170944671Y-88289117D01*
X170958921Y-88308330D01*
X170971218Y-88328847D01*
X170981446Y-88350471D01*
X170989504Y-88372993D01*
X170995316Y-88396197D01*
X170998826Y-88419858D01*
X171000000Y-88443750D01*
X171000000Y-89356250D01*
X170998826Y-89380142D01*
X170995316Y-89403803D01*
X170989504Y-89427007D01*
X170981446Y-89449529D01*
X170971218Y-89471153D01*
X170958921Y-89491670D01*
X170944671Y-89510883D01*
X170928607Y-89528607D01*
X170910883Y-89544671D01*
X170891670Y-89558921D01*
X170871153Y-89571218D01*
X170849529Y-89581446D01*
X170827007Y-89589504D01*
X170803803Y-89595316D01*
X170780142Y-89598826D01*
X170756250Y-89600000D01*
X170268750Y-89600000D01*
X170244858Y-89598826D01*
X170221197Y-89595316D01*
X170197993Y-89589504D01*
X170175471Y-89581446D01*
X170153847Y-89571218D01*
X170133330Y-89558921D01*
X170114117Y-89544671D01*
X170096393Y-89528607D01*
X170080329Y-89510883D01*
X170066079Y-89491670D01*
X170053782Y-89471153D01*
X170043554Y-89449529D01*
X170035496Y-89427007D01*
X170029684Y-89403803D01*
X170026174Y-89380142D01*
X170025000Y-89356250D01*
X170025000Y-88443750D01*
X170026174Y-88419858D01*
X170029684Y-88396197D01*
X170035496Y-88372993D01*
X170043554Y-88350471D01*
X170053782Y-88328847D01*
X170066079Y-88308330D01*
X170080329Y-88289117D01*
X170096393Y-88271393D01*
X170114117Y-88255329D01*
X170133330Y-88241079D01*
X170153847Y-88228782D01*
X170175471Y-88218554D01*
X170197993Y-88210496D01*
X170221197Y-88204684D01*
X170244858Y-88201174D01*
X170268750Y-88200000D01*
X170756250Y-88200000D01*
X170780142Y-88201174D01*
G37*
G36*
X172655142Y-88201174D02*
G01*
X172678803Y-88204684D01*
X172702007Y-88210496D01*
X172724529Y-88218554D01*
X172746153Y-88228782D01*
X172766670Y-88241079D01*
X172785883Y-88255329D01*
X172803607Y-88271393D01*
X172819671Y-88289117D01*
X172833921Y-88308330D01*
X172846218Y-88328847D01*
X172856446Y-88350471D01*
X172864504Y-88372993D01*
X172870316Y-88396197D01*
X172873826Y-88419858D01*
X172875000Y-88443750D01*
X172875000Y-89356250D01*
X172873826Y-89380142D01*
X172870316Y-89403803D01*
X172864504Y-89427007D01*
X172856446Y-89449529D01*
X172846218Y-89471153D01*
X172833921Y-89491670D01*
X172819671Y-89510883D01*
X172803607Y-89528607D01*
X172785883Y-89544671D01*
X172766670Y-89558921D01*
X172746153Y-89571218D01*
X172724529Y-89581446D01*
X172702007Y-89589504D01*
X172678803Y-89595316D01*
X172655142Y-89598826D01*
X172631250Y-89600000D01*
X172143750Y-89600000D01*
X172119858Y-89598826D01*
X172096197Y-89595316D01*
X172072993Y-89589504D01*
X172050471Y-89581446D01*
X172028847Y-89571218D01*
X172008330Y-89558921D01*
X171989117Y-89544671D01*
X171971393Y-89528607D01*
X171955329Y-89510883D01*
X171941079Y-89491670D01*
X171928782Y-89471153D01*
X171918554Y-89449529D01*
X171910496Y-89427007D01*
X171904684Y-89403803D01*
X171901174Y-89380142D01*
X171900000Y-89356250D01*
X171900000Y-88443750D01*
X171901174Y-88419858D01*
X171904684Y-88396197D01*
X171910496Y-88372993D01*
X171918554Y-88350471D01*
X171928782Y-88328847D01*
X171941079Y-88308330D01*
X171955329Y-88289117D01*
X171971393Y-88271393D01*
X171989117Y-88255329D01*
X172008330Y-88241079D01*
X172028847Y-88228782D01*
X172050471Y-88218554D01*
X172072993Y-88210496D01*
X172096197Y-88204684D01*
X172119858Y-88201174D01*
X172143750Y-88200000D01*
X172631250Y-88200000D01*
X172655142Y-88201174D01*
G37*
G36*
X170780142Y-85661174D02*
G01*
X170803803Y-85664684D01*
X170827007Y-85670496D01*
X170849529Y-85678554D01*
X170871153Y-85688782D01*
X170891670Y-85701079D01*
X170910883Y-85715329D01*
X170928607Y-85731393D01*
X170944671Y-85749117D01*
X170958921Y-85768330D01*
X170971218Y-85788847D01*
X170981446Y-85810471D01*
X170989504Y-85832993D01*
X170995316Y-85856197D01*
X170998826Y-85879858D01*
X171000000Y-85903750D01*
X171000000Y-86816250D01*
X170998826Y-86840142D01*
X170995316Y-86863803D01*
X170989504Y-86887007D01*
X170981446Y-86909529D01*
X170971218Y-86931153D01*
X170958921Y-86951670D01*
X170944671Y-86970883D01*
X170928607Y-86988607D01*
X170910883Y-87004671D01*
X170891670Y-87018921D01*
X170871153Y-87031218D01*
X170849529Y-87041446D01*
X170827007Y-87049504D01*
X170803803Y-87055316D01*
X170780142Y-87058826D01*
X170756250Y-87060000D01*
X170268750Y-87060000D01*
X170244858Y-87058826D01*
X170221197Y-87055316D01*
X170197993Y-87049504D01*
X170175471Y-87041446D01*
X170153847Y-87031218D01*
X170133330Y-87018921D01*
X170114117Y-87004671D01*
X170096393Y-86988607D01*
X170080329Y-86970883D01*
X170066079Y-86951670D01*
X170053782Y-86931153D01*
X170043554Y-86909529D01*
X170035496Y-86887007D01*
X170029684Y-86863803D01*
X170026174Y-86840142D01*
X170025000Y-86816250D01*
X170025000Y-85903750D01*
X170026174Y-85879858D01*
X170029684Y-85856197D01*
X170035496Y-85832993D01*
X170043554Y-85810471D01*
X170053782Y-85788847D01*
X170066079Y-85768330D01*
X170080329Y-85749117D01*
X170096393Y-85731393D01*
X170114117Y-85715329D01*
X170133330Y-85701079D01*
X170153847Y-85688782D01*
X170175471Y-85678554D01*
X170197993Y-85670496D01*
X170221197Y-85664684D01*
X170244858Y-85661174D01*
X170268750Y-85660000D01*
X170756250Y-85660000D01*
X170780142Y-85661174D01*
G37*
G36*
X172655142Y-85661174D02*
G01*
X172678803Y-85664684D01*
X172702007Y-85670496D01*
X172724529Y-85678554D01*
X172746153Y-85688782D01*
X172766670Y-85701079D01*
X172785883Y-85715329D01*
X172803607Y-85731393D01*
X172819671Y-85749117D01*
X172833921Y-85768330D01*
X172846218Y-85788847D01*
X172856446Y-85810471D01*
X172864504Y-85832993D01*
X172870316Y-85856197D01*
X172873826Y-85879858D01*
X172875000Y-85903750D01*
X172875000Y-86816250D01*
X172873826Y-86840142D01*
X172870316Y-86863803D01*
X172864504Y-86887007D01*
X172856446Y-86909529D01*
X172846218Y-86931153D01*
X172833921Y-86951670D01*
X172819671Y-86970883D01*
X172803607Y-86988607D01*
X172785883Y-87004671D01*
X172766670Y-87018921D01*
X172746153Y-87031218D01*
X172724529Y-87041446D01*
X172702007Y-87049504D01*
X172678803Y-87055316D01*
X172655142Y-87058826D01*
X172631250Y-87060000D01*
X172143750Y-87060000D01*
X172119858Y-87058826D01*
X172096197Y-87055316D01*
X172072993Y-87049504D01*
X172050471Y-87041446D01*
X172028847Y-87031218D01*
X172008330Y-87018921D01*
X171989117Y-87004671D01*
X171971393Y-86988607D01*
X171955329Y-86970883D01*
X171941079Y-86951670D01*
X171928782Y-86931153D01*
X171918554Y-86909529D01*
X171910496Y-86887007D01*
X171904684Y-86863803D01*
X171901174Y-86840142D01*
X171900000Y-86816250D01*
X171900000Y-85903750D01*
X171901174Y-85879858D01*
X171904684Y-85856197D01*
X171910496Y-85832993D01*
X171918554Y-85810471D01*
X171928782Y-85788847D01*
X171941079Y-85768330D01*
X171955329Y-85749117D01*
X171971393Y-85731393D01*
X171989117Y-85715329D01*
X172008330Y-85701079D01*
X172028847Y-85688782D01*
X172050471Y-85678554D01*
X172072993Y-85670496D01*
X172096197Y-85664684D01*
X172119858Y-85661174D01*
X172143750Y-85660000D01*
X172631250Y-85660000D01*
X172655142Y-85661174D01*
G37*
G36*
X177264142Y-106272174D02*
G01*
X177287803Y-106275684D01*
X177311007Y-106281496D01*
X177333529Y-106289554D01*
X177355153Y-106299782D01*
X177375670Y-106312079D01*
X177394883Y-106326329D01*
X177412607Y-106342393D01*
X177428671Y-106360117D01*
X177442921Y-106379330D01*
X177455218Y-106399847D01*
X177465446Y-106421471D01*
X177473504Y-106443993D01*
X177479316Y-106467197D01*
X177482826Y-106490858D01*
X177484000Y-106514750D01*
X177484000Y-107002250D01*
X177482826Y-107026142D01*
X177479316Y-107049803D01*
X177473504Y-107073007D01*
X177465446Y-107095529D01*
X177455218Y-107117153D01*
X177442921Y-107137670D01*
X177428671Y-107156883D01*
X177412607Y-107174607D01*
X177394883Y-107190671D01*
X177375670Y-107204921D01*
X177355153Y-107217218D01*
X177333529Y-107227446D01*
X177311007Y-107235504D01*
X177287803Y-107241316D01*
X177264142Y-107244826D01*
X177240250Y-107246000D01*
X176327750Y-107246000D01*
X176303858Y-107244826D01*
X176280197Y-107241316D01*
X176256993Y-107235504D01*
X176234471Y-107227446D01*
X176212847Y-107217218D01*
X176192330Y-107204921D01*
X176173117Y-107190671D01*
X176155393Y-107174607D01*
X176139329Y-107156883D01*
X176125079Y-107137670D01*
X176112782Y-107117153D01*
X176102554Y-107095529D01*
X176094496Y-107073007D01*
X176088684Y-107049803D01*
X176085174Y-107026142D01*
X176084000Y-107002250D01*
X176084000Y-106514750D01*
X176085174Y-106490858D01*
X176088684Y-106467197D01*
X176094496Y-106443993D01*
X176102554Y-106421471D01*
X176112782Y-106399847D01*
X176125079Y-106379330D01*
X176139329Y-106360117D01*
X176155393Y-106342393D01*
X176173117Y-106326329D01*
X176192330Y-106312079D01*
X176212847Y-106299782D01*
X176234471Y-106289554D01*
X176256993Y-106281496D01*
X176280197Y-106275684D01*
X176303858Y-106272174D01*
X176327750Y-106271000D01*
X177240250Y-106271000D01*
X177264142Y-106272174D01*
G37*
G36*
X177264142Y-108147174D02*
G01*
X177287803Y-108150684D01*
X177311007Y-108156496D01*
X177333529Y-108164554D01*
X177355153Y-108174782D01*
X177375670Y-108187079D01*
X177394883Y-108201329D01*
X177412607Y-108217393D01*
X177428671Y-108235117D01*
X177442921Y-108254330D01*
X177455218Y-108274847D01*
X177465446Y-108296471D01*
X177473504Y-108318993D01*
X177479316Y-108342197D01*
X177482826Y-108365858D01*
X177484000Y-108389750D01*
X177484000Y-108877250D01*
X177482826Y-108901142D01*
X177479316Y-108924803D01*
X177473504Y-108948007D01*
X177465446Y-108970529D01*
X177455218Y-108992153D01*
X177442921Y-109012670D01*
X177428671Y-109031883D01*
X177412607Y-109049607D01*
X177394883Y-109065671D01*
X177375670Y-109079921D01*
X177355153Y-109092218D01*
X177333529Y-109102446D01*
X177311007Y-109110504D01*
X177287803Y-109116316D01*
X177264142Y-109119826D01*
X177240250Y-109121000D01*
X176327750Y-109121000D01*
X176303858Y-109119826D01*
X176280197Y-109116316D01*
X176256993Y-109110504D01*
X176234471Y-109102446D01*
X176212847Y-109092218D01*
X176192330Y-109079921D01*
X176173117Y-109065671D01*
X176155393Y-109049607D01*
X176139329Y-109031883D01*
X176125079Y-109012670D01*
X176112782Y-108992153D01*
X176102554Y-108970529D01*
X176094496Y-108948007D01*
X176088684Y-108924803D01*
X176085174Y-108901142D01*
X176084000Y-108877250D01*
X176084000Y-108389750D01*
X176085174Y-108365858D01*
X176088684Y-108342197D01*
X176094496Y-108318993D01*
X176102554Y-108296471D01*
X176112782Y-108274847D01*
X176125079Y-108254330D01*
X176139329Y-108235117D01*
X176155393Y-108217393D01*
X176173117Y-108201329D01*
X176192330Y-108187079D01*
X176212847Y-108174782D01*
X176234471Y-108164554D01*
X176256993Y-108156496D01*
X176280197Y-108150684D01*
X176303858Y-108147174D01*
X176327750Y-108146000D01*
X177240250Y-108146000D01*
X177264142Y-108147174D01*
G37*
G36*
X173320142Y-90995174D02*
G01*
X173343803Y-90998684D01*
X173367007Y-91004496D01*
X173389529Y-91012554D01*
X173411153Y-91022782D01*
X173431670Y-91035079D01*
X173450883Y-91049329D01*
X173468607Y-91065393D01*
X173484671Y-91083117D01*
X173498921Y-91102330D01*
X173511218Y-91122847D01*
X173521446Y-91144471D01*
X173529504Y-91166993D01*
X173535316Y-91190197D01*
X173538826Y-91213858D01*
X173540000Y-91237750D01*
X173540000Y-92150250D01*
X173538826Y-92174142D01*
X173535316Y-92197803D01*
X173529504Y-92221007D01*
X173521446Y-92243529D01*
X173511218Y-92265153D01*
X173498921Y-92285670D01*
X173484671Y-92304883D01*
X173468607Y-92322607D01*
X173450883Y-92338671D01*
X173431670Y-92352921D01*
X173411153Y-92365218D01*
X173389529Y-92375446D01*
X173367007Y-92383504D01*
X173343803Y-92389316D01*
X173320142Y-92392826D01*
X173296250Y-92394000D01*
X172808750Y-92394000D01*
X172784858Y-92392826D01*
X172761197Y-92389316D01*
X172737993Y-92383504D01*
X172715471Y-92375446D01*
X172693847Y-92365218D01*
X172673330Y-92352921D01*
X172654117Y-92338671D01*
X172636393Y-92322607D01*
X172620329Y-92304883D01*
X172606079Y-92285670D01*
X172593782Y-92265153D01*
X172583554Y-92243529D01*
X172575496Y-92221007D01*
X172569684Y-92197803D01*
X172566174Y-92174142D01*
X172565000Y-92150250D01*
X172565000Y-91237750D01*
X172566174Y-91213858D01*
X172569684Y-91190197D01*
X172575496Y-91166993D01*
X172583554Y-91144471D01*
X172593782Y-91122847D01*
X172606079Y-91102330D01*
X172620329Y-91083117D01*
X172636393Y-91065393D01*
X172654117Y-91049329D01*
X172673330Y-91035079D01*
X172693847Y-91022782D01*
X172715471Y-91012554D01*
X172737993Y-91004496D01*
X172761197Y-90998684D01*
X172784858Y-90995174D01*
X172808750Y-90994000D01*
X173296250Y-90994000D01*
X173320142Y-90995174D01*
G37*
G36*
X175195142Y-90995174D02*
G01*
X175218803Y-90998684D01*
X175242007Y-91004496D01*
X175264529Y-91012554D01*
X175286153Y-91022782D01*
X175306670Y-91035079D01*
X175325883Y-91049329D01*
X175343607Y-91065393D01*
X175359671Y-91083117D01*
X175373921Y-91102330D01*
X175386218Y-91122847D01*
X175396446Y-91144471D01*
X175404504Y-91166993D01*
X175410316Y-91190197D01*
X175413826Y-91213858D01*
X175415000Y-91237750D01*
X175415000Y-92150250D01*
X175413826Y-92174142D01*
X175410316Y-92197803D01*
X175404504Y-92221007D01*
X175396446Y-92243529D01*
X175386218Y-92265153D01*
X175373921Y-92285670D01*
X175359671Y-92304883D01*
X175343607Y-92322607D01*
X175325883Y-92338671D01*
X175306670Y-92352921D01*
X175286153Y-92365218D01*
X175264529Y-92375446D01*
X175242007Y-92383504D01*
X175218803Y-92389316D01*
X175195142Y-92392826D01*
X175171250Y-92394000D01*
X174683750Y-92394000D01*
X174659858Y-92392826D01*
X174636197Y-92389316D01*
X174612993Y-92383504D01*
X174590471Y-92375446D01*
X174568847Y-92365218D01*
X174548330Y-92352921D01*
X174529117Y-92338671D01*
X174511393Y-92322607D01*
X174495329Y-92304883D01*
X174481079Y-92285670D01*
X174468782Y-92265153D01*
X174458554Y-92243529D01*
X174450496Y-92221007D01*
X174444684Y-92197803D01*
X174441174Y-92174142D01*
X174440000Y-92150250D01*
X174440000Y-91237750D01*
X174441174Y-91213858D01*
X174444684Y-91190197D01*
X174450496Y-91166993D01*
X174458554Y-91144471D01*
X174468782Y-91122847D01*
X174481079Y-91102330D01*
X174495329Y-91083117D01*
X174511393Y-91065393D01*
X174529117Y-91049329D01*
X174548330Y-91035079D01*
X174568847Y-91022782D01*
X174590471Y-91012554D01*
X174612993Y-91004496D01*
X174636197Y-90998684D01*
X174659858Y-90995174D01*
X174683750Y-90994000D01*
X175171250Y-90994000D01*
X175195142Y-90995174D01*
G37*
G36*
X171288142Y-73469174D02*
G01*
X171311803Y-73472684D01*
X171335007Y-73478496D01*
X171357529Y-73486554D01*
X171379153Y-73496782D01*
X171399670Y-73509079D01*
X171418883Y-73523329D01*
X171436607Y-73539393D01*
X171452671Y-73557117D01*
X171466921Y-73576330D01*
X171479218Y-73596847D01*
X171489446Y-73618471D01*
X171497504Y-73640993D01*
X171503316Y-73664197D01*
X171506826Y-73687858D01*
X171508000Y-73711750D01*
X171508000Y-74624250D01*
X171506826Y-74648142D01*
X171503316Y-74671803D01*
X171497504Y-74695007D01*
X171489446Y-74717529D01*
X171479218Y-74739153D01*
X171466921Y-74759670D01*
X171452671Y-74778883D01*
X171436607Y-74796607D01*
X171418883Y-74812671D01*
X171399670Y-74826921D01*
X171379153Y-74839218D01*
X171357529Y-74849446D01*
X171335007Y-74857504D01*
X171311803Y-74863316D01*
X171288142Y-74866826D01*
X171264250Y-74868000D01*
X170776750Y-74868000D01*
X170752858Y-74866826D01*
X170729197Y-74863316D01*
X170705993Y-74857504D01*
X170683471Y-74849446D01*
X170661847Y-74839218D01*
X170641330Y-74826921D01*
X170622117Y-74812671D01*
X170604393Y-74796607D01*
X170588329Y-74778883D01*
X170574079Y-74759670D01*
X170561782Y-74739153D01*
X170551554Y-74717529D01*
X170543496Y-74695007D01*
X170537684Y-74671803D01*
X170534174Y-74648142D01*
X170533000Y-74624250D01*
X170533000Y-73711750D01*
X170534174Y-73687858D01*
X170537684Y-73664197D01*
X170543496Y-73640993D01*
X170551554Y-73618471D01*
X170561782Y-73596847D01*
X170574079Y-73576330D01*
X170588329Y-73557117D01*
X170604393Y-73539393D01*
X170622117Y-73523329D01*
X170641330Y-73509079D01*
X170661847Y-73496782D01*
X170683471Y-73486554D01*
X170705993Y-73478496D01*
X170729197Y-73472684D01*
X170752858Y-73469174D01*
X170776750Y-73468000D01*
X171264250Y-73468000D01*
X171288142Y-73469174D01*
G37*
G36*
X173163142Y-73469174D02*
G01*
X173186803Y-73472684D01*
X173210007Y-73478496D01*
X173232529Y-73486554D01*
X173254153Y-73496782D01*
X173274670Y-73509079D01*
X173293883Y-73523329D01*
X173311607Y-73539393D01*
X173327671Y-73557117D01*
X173341921Y-73576330D01*
X173354218Y-73596847D01*
X173364446Y-73618471D01*
X173372504Y-73640993D01*
X173378316Y-73664197D01*
X173381826Y-73687858D01*
X173383000Y-73711750D01*
X173383000Y-74624250D01*
X173381826Y-74648142D01*
X173378316Y-74671803D01*
X173372504Y-74695007D01*
X173364446Y-74717529D01*
X173354218Y-74739153D01*
X173341921Y-74759670D01*
X173327671Y-74778883D01*
X173311607Y-74796607D01*
X173293883Y-74812671D01*
X173274670Y-74826921D01*
X173254153Y-74839218D01*
X173232529Y-74849446D01*
X173210007Y-74857504D01*
X173186803Y-74863316D01*
X173163142Y-74866826D01*
X173139250Y-74868000D01*
X172651750Y-74868000D01*
X172627858Y-74866826D01*
X172604197Y-74863316D01*
X172580993Y-74857504D01*
X172558471Y-74849446D01*
X172536847Y-74839218D01*
X172516330Y-74826921D01*
X172497117Y-74812671D01*
X172479393Y-74796607D01*
X172463329Y-74778883D01*
X172449079Y-74759670D01*
X172436782Y-74739153D01*
X172426554Y-74717529D01*
X172418496Y-74695007D01*
X172412684Y-74671803D01*
X172409174Y-74648142D01*
X172408000Y-74624250D01*
X172408000Y-73711750D01*
X172409174Y-73687858D01*
X172412684Y-73664197D01*
X172418496Y-73640993D01*
X172426554Y-73618471D01*
X172436782Y-73596847D01*
X172449079Y-73576330D01*
X172463329Y-73557117D01*
X172479393Y-73539393D01*
X172497117Y-73523329D01*
X172516330Y-73509079D01*
X172536847Y-73496782D01*
X172558471Y-73486554D01*
X172580993Y-73478496D01*
X172604197Y-73472684D01*
X172627858Y-73469174D01*
X172651750Y-73468000D01*
X173139250Y-73468000D01*
X173163142Y-73469174D01*
G37*
M02*
