G04 #@! TF.GenerationSoftware,KiCad,Pcbnew,(5.1.5)-3*
G04 #@! TF.CreationDate,2020-12-04T11:48:41+08:00*
G04 #@! TF.ProjectId,Clock PCB,436c6f63-6b20-4504-9342-2e6b69636164,rev?*
G04 #@! TF.SameCoordinates,Original*
G04 #@! TF.FileFunction,Soldermask,Bot*
G04 #@! TF.FilePolarity,Negative*
%FSLAX46Y46*%
G04 Gerber Fmt 4.6, Leading zero omitted, Abs format (unit mm)*
G04 Created by KiCad (PCBNEW (5.1.5)-3) date 2020-12-04 11:48:41*
%MOMM*%
%LPD*%
G04 APERTURE LIST*
%ADD10C,0.150000*%
G04 APERTURE END LIST*
D10*
G36*
X189605256Y-120311298D02*
G01*
X189711579Y-120332447D01*
X190012042Y-120456903D01*
X190282451Y-120637585D01*
X190512415Y-120867549D01*
X190693097Y-121137958D01*
X190817553Y-121438421D01*
X190881000Y-121757391D01*
X190881000Y-122082609D01*
X190817553Y-122401579D01*
X190693097Y-122702042D01*
X190512415Y-122972451D01*
X190282451Y-123202415D01*
X190012042Y-123383097D01*
X189711579Y-123507553D01*
X189605256Y-123528702D01*
X189392611Y-123571000D01*
X189067389Y-123571000D01*
X188854744Y-123528702D01*
X188748421Y-123507553D01*
X188447958Y-123383097D01*
X188177549Y-123202415D01*
X187947585Y-122972451D01*
X187766903Y-122702042D01*
X187642447Y-122401579D01*
X187579000Y-122082609D01*
X187579000Y-121757391D01*
X187642447Y-121438421D01*
X187766903Y-121137958D01*
X187947585Y-120867549D01*
X188177549Y-120637585D01*
X188447958Y-120456903D01*
X188748421Y-120332447D01*
X188854744Y-120311298D01*
X189067389Y-120269000D01*
X189392611Y-120269000D01*
X189605256Y-120311298D01*
G37*
G36*
X172079256Y-120311298D02*
G01*
X172185579Y-120332447D01*
X172486042Y-120456903D01*
X172756451Y-120637585D01*
X172986415Y-120867549D01*
X173167097Y-121137958D01*
X173291553Y-121438421D01*
X173355000Y-121757391D01*
X173355000Y-122082609D01*
X173291553Y-122401579D01*
X173167097Y-122702042D01*
X172986415Y-122972451D01*
X172756451Y-123202415D01*
X172486042Y-123383097D01*
X172185579Y-123507553D01*
X172079256Y-123528702D01*
X171866611Y-123571000D01*
X171541389Y-123571000D01*
X171328744Y-123528702D01*
X171222421Y-123507553D01*
X170921958Y-123383097D01*
X170651549Y-123202415D01*
X170421585Y-122972451D01*
X170240903Y-122702042D01*
X170116447Y-122401579D01*
X170053000Y-122082609D01*
X170053000Y-121757391D01*
X170116447Y-121438421D01*
X170240903Y-121137958D01*
X170421585Y-120867549D01*
X170651549Y-120637585D01*
X170921958Y-120456903D01*
X171222421Y-120332447D01*
X171328744Y-120311298D01*
X171541389Y-120269000D01*
X171866611Y-120269000D01*
X172079256Y-120311298D01*
G37*
G36*
X176389512Y-114927927D02*
G01*
X176538812Y-114957624D01*
X176702784Y-115025544D01*
X176850354Y-115124147D01*
X176975853Y-115249646D01*
X177074456Y-115397216D01*
X177142376Y-115561188D01*
X177177000Y-115735259D01*
X177177000Y-115912741D01*
X177142376Y-116086812D01*
X177074456Y-116250784D01*
X176975853Y-116398354D01*
X176850354Y-116523853D01*
X176702784Y-116622456D01*
X176538812Y-116690376D01*
X176389512Y-116720073D01*
X176364742Y-116725000D01*
X176187258Y-116725000D01*
X176162488Y-116720073D01*
X176013188Y-116690376D01*
X175849216Y-116622456D01*
X175701646Y-116523853D01*
X175576147Y-116398354D01*
X175477544Y-116250784D01*
X175409624Y-116086812D01*
X175375000Y-115912741D01*
X175375000Y-115735259D01*
X175409624Y-115561188D01*
X175477544Y-115397216D01*
X175576147Y-115249646D01*
X175701646Y-115124147D01*
X175849216Y-115025544D01*
X176013188Y-114957624D01*
X176162488Y-114927927D01*
X176187258Y-114923000D01*
X176364742Y-114923000D01*
X176389512Y-114927927D01*
G37*
G36*
X171309512Y-114927927D02*
G01*
X171458812Y-114957624D01*
X171622784Y-115025544D01*
X171770354Y-115124147D01*
X171895853Y-115249646D01*
X171994456Y-115397216D01*
X172062376Y-115561188D01*
X172097000Y-115735259D01*
X172097000Y-115912741D01*
X172062376Y-116086812D01*
X171994456Y-116250784D01*
X171895853Y-116398354D01*
X171770354Y-116523853D01*
X171622784Y-116622456D01*
X171458812Y-116690376D01*
X171309512Y-116720073D01*
X171284742Y-116725000D01*
X171107258Y-116725000D01*
X171082488Y-116720073D01*
X170933188Y-116690376D01*
X170769216Y-116622456D01*
X170621646Y-116523853D01*
X170496147Y-116398354D01*
X170397544Y-116250784D01*
X170329624Y-116086812D01*
X170295000Y-115912741D01*
X170295000Y-115735259D01*
X170329624Y-115561188D01*
X170397544Y-115397216D01*
X170496147Y-115249646D01*
X170621646Y-115124147D01*
X170769216Y-115025544D01*
X170933188Y-114957624D01*
X171082488Y-114927927D01*
X171107258Y-114923000D01*
X171284742Y-114923000D01*
X171309512Y-114927927D01*
G37*
G36*
X173849512Y-114927927D02*
G01*
X173998812Y-114957624D01*
X174162784Y-115025544D01*
X174310354Y-115124147D01*
X174435853Y-115249646D01*
X174534456Y-115397216D01*
X174602376Y-115561188D01*
X174637000Y-115735259D01*
X174637000Y-115912741D01*
X174602376Y-116086812D01*
X174534456Y-116250784D01*
X174435853Y-116398354D01*
X174310354Y-116523853D01*
X174162784Y-116622456D01*
X173998812Y-116690376D01*
X173849512Y-116720073D01*
X173824742Y-116725000D01*
X173647258Y-116725000D01*
X173622488Y-116720073D01*
X173473188Y-116690376D01*
X173309216Y-116622456D01*
X173161646Y-116523853D01*
X173036147Y-116398354D01*
X172937544Y-116250784D01*
X172869624Y-116086812D01*
X172835000Y-115912741D01*
X172835000Y-115735259D01*
X172869624Y-115561188D01*
X172937544Y-115397216D01*
X173036147Y-115249646D01*
X173161646Y-115124147D01*
X173309216Y-115025544D01*
X173473188Y-114957624D01*
X173622488Y-114927927D01*
X173647258Y-114923000D01*
X173824742Y-114923000D01*
X173849512Y-114927927D01*
G37*
G36*
X180961512Y-113657927D02*
G01*
X181110812Y-113687624D01*
X181274784Y-113755544D01*
X181422354Y-113854147D01*
X181547853Y-113979646D01*
X181646456Y-114127216D01*
X181714376Y-114291188D01*
X181749000Y-114465259D01*
X181749000Y-114642741D01*
X181714376Y-114816812D01*
X181646456Y-114980784D01*
X181547853Y-115128354D01*
X181422354Y-115253853D01*
X181274784Y-115352456D01*
X181110812Y-115420376D01*
X180961512Y-115450073D01*
X180936742Y-115455000D01*
X180759258Y-115455000D01*
X180734488Y-115450073D01*
X180585188Y-115420376D01*
X180421216Y-115352456D01*
X180273646Y-115253853D01*
X180148147Y-115128354D01*
X180049544Y-114980784D01*
X179981624Y-114816812D01*
X179947000Y-114642741D01*
X179947000Y-114465259D01*
X179981624Y-114291188D01*
X180049544Y-114127216D01*
X180148147Y-113979646D01*
X180273646Y-113854147D01*
X180421216Y-113755544D01*
X180585188Y-113687624D01*
X180734488Y-113657927D01*
X180759258Y-113653000D01*
X180936742Y-113653000D01*
X180961512Y-113657927D01*
G37*
G36*
X184289000Y-115455000D02*
G01*
X182487000Y-115455000D01*
X182487000Y-113653000D01*
X184289000Y-113653000D01*
X184289000Y-115455000D01*
G37*
G36*
X171309512Y-112387927D02*
G01*
X171458812Y-112417624D01*
X171622784Y-112485544D01*
X171770354Y-112584147D01*
X171895853Y-112709646D01*
X171994456Y-112857216D01*
X172062376Y-113021188D01*
X172097000Y-113195259D01*
X172097000Y-113372741D01*
X172062376Y-113546812D01*
X171994456Y-113710784D01*
X171895853Y-113858354D01*
X171770354Y-113983853D01*
X171622784Y-114082456D01*
X171458812Y-114150376D01*
X171309512Y-114180073D01*
X171284742Y-114185000D01*
X171107258Y-114185000D01*
X171082488Y-114180073D01*
X170933188Y-114150376D01*
X170769216Y-114082456D01*
X170621646Y-113983853D01*
X170496147Y-113858354D01*
X170397544Y-113710784D01*
X170329624Y-113546812D01*
X170295000Y-113372741D01*
X170295000Y-113195259D01*
X170329624Y-113021188D01*
X170397544Y-112857216D01*
X170496147Y-112709646D01*
X170621646Y-112584147D01*
X170769216Y-112485544D01*
X170933188Y-112417624D01*
X171082488Y-112387927D01*
X171107258Y-112383000D01*
X171284742Y-112383000D01*
X171309512Y-112387927D01*
G37*
G36*
X177177000Y-114185000D02*
G01*
X175375000Y-114185000D01*
X175375000Y-112383000D01*
X177177000Y-112383000D01*
X177177000Y-114185000D01*
G37*
G36*
X173849512Y-112387927D02*
G01*
X173998812Y-112417624D01*
X174162784Y-112485544D01*
X174310354Y-112584147D01*
X174435853Y-112709646D01*
X174534456Y-112857216D01*
X174602376Y-113021188D01*
X174637000Y-113195259D01*
X174637000Y-113372741D01*
X174602376Y-113546812D01*
X174534456Y-113710784D01*
X174435853Y-113858354D01*
X174310354Y-113983853D01*
X174162784Y-114082456D01*
X173998812Y-114150376D01*
X173849512Y-114180073D01*
X173824742Y-114185000D01*
X173647258Y-114185000D01*
X173622488Y-114180073D01*
X173473188Y-114150376D01*
X173309216Y-114082456D01*
X173161646Y-113983853D01*
X173036147Y-113858354D01*
X172937544Y-113710784D01*
X172869624Y-113546812D01*
X172835000Y-113372741D01*
X172835000Y-113195259D01*
X172869624Y-113021188D01*
X172937544Y-112857216D01*
X173036147Y-112709646D01*
X173161646Y-112584147D01*
X173309216Y-112485544D01*
X173473188Y-112417624D01*
X173622488Y-112387927D01*
X173647258Y-112383000D01*
X173824742Y-112383000D01*
X173849512Y-112387927D01*
G37*
G36*
X191210564Y-109407389D02*
G01*
X191401833Y-109486615D01*
X191401835Y-109486616D01*
X191573973Y-109601635D01*
X191720365Y-109748027D01*
X191835385Y-109920167D01*
X191914611Y-110111436D01*
X191955000Y-110314484D01*
X191955000Y-110521516D01*
X191914611Y-110724564D01*
X191835385Y-110915833D01*
X191835384Y-110915835D01*
X191720365Y-111087973D01*
X191573973Y-111234365D01*
X191401835Y-111349384D01*
X191401834Y-111349385D01*
X191401833Y-111349385D01*
X191210564Y-111428611D01*
X191007516Y-111469000D01*
X190800484Y-111469000D01*
X190597436Y-111428611D01*
X190406167Y-111349385D01*
X190406166Y-111349385D01*
X190406165Y-111349384D01*
X190234027Y-111234365D01*
X190087635Y-111087973D01*
X189972616Y-110915835D01*
X189972615Y-110915833D01*
X189893389Y-110724564D01*
X189853000Y-110521516D01*
X189853000Y-110314484D01*
X189893389Y-110111436D01*
X189972615Y-109920167D01*
X190087635Y-109748027D01*
X190234027Y-109601635D01*
X190406165Y-109486616D01*
X190406167Y-109486615D01*
X190597436Y-109407389D01*
X190800484Y-109367000D01*
X191007516Y-109367000D01*
X191210564Y-109407389D01*
G37*
G36*
X184710564Y-109407389D02*
G01*
X184901833Y-109486615D01*
X184901835Y-109486616D01*
X185073973Y-109601635D01*
X185220365Y-109748027D01*
X185335385Y-109920167D01*
X185414611Y-110111436D01*
X185455000Y-110314484D01*
X185455000Y-110521516D01*
X185414611Y-110724564D01*
X185335385Y-110915833D01*
X185335384Y-110915835D01*
X185220365Y-111087973D01*
X185073973Y-111234365D01*
X184901835Y-111349384D01*
X184901834Y-111349385D01*
X184901833Y-111349385D01*
X184710564Y-111428611D01*
X184507516Y-111469000D01*
X184300484Y-111469000D01*
X184097436Y-111428611D01*
X183906167Y-111349385D01*
X183906166Y-111349385D01*
X183906165Y-111349384D01*
X183734027Y-111234365D01*
X183587635Y-111087973D01*
X183472616Y-110915835D01*
X183472615Y-110915833D01*
X183393389Y-110724564D01*
X183353000Y-110521516D01*
X183353000Y-110314484D01*
X183393389Y-110111436D01*
X183472615Y-109920167D01*
X183587635Y-109748027D01*
X183734027Y-109601635D01*
X183906165Y-109486616D01*
X183906167Y-109486615D01*
X184097436Y-109407389D01*
X184300484Y-109367000D01*
X184507516Y-109367000D01*
X184710564Y-109407389D01*
G37*
G36*
X181495000Y-109867000D02*
G01*
X179693000Y-109867000D01*
X179693000Y-108065000D01*
X181495000Y-108065000D01*
X181495000Y-109867000D01*
G37*
G36*
X177368468Y-108099565D02*
G01*
X177407138Y-108111296D01*
X177442777Y-108130346D01*
X177474017Y-108155983D01*
X177499654Y-108187223D01*
X177518704Y-108222862D01*
X177530435Y-108261532D01*
X177535000Y-108307888D01*
X177535000Y-108959112D01*
X177530435Y-109005468D01*
X177518704Y-109044138D01*
X177499654Y-109079777D01*
X177474017Y-109111017D01*
X177442777Y-109136654D01*
X177407138Y-109155704D01*
X177368468Y-109167435D01*
X177322112Y-109172000D01*
X176245888Y-109172000D01*
X176199532Y-109167435D01*
X176160862Y-109155704D01*
X176125223Y-109136654D01*
X176093983Y-109111017D01*
X176068346Y-109079777D01*
X176049296Y-109044138D01*
X176037565Y-109005468D01*
X176033000Y-108959112D01*
X176033000Y-108307888D01*
X176037565Y-108261532D01*
X176049296Y-108222862D01*
X176068346Y-108187223D01*
X176093983Y-108155983D01*
X176125223Y-108130346D01*
X176160862Y-108111296D01*
X176199532Y-108099565D01*
X176245888Y-108095000D01*
X177322112Y-108095000D01*
X177368468Y-108099565D01*
G37*
G36*
X173304468Y-108099565D02*
G01*
X173343138Y-108111296D01*
X173378777Y-108130346D01*
X173410017Y-108155983D01*
X173435654Y-108187223D01*
X173454704Y-108222862D01*
X173466435Y-108261532D01*
X173471000Y-108307888D01*
X173471000Y-108959112D01*
X173466435Y-109005468D01*
X173454704Y-109044138D01*
X173435654Y-109079777D01*
X173410017Y-109111017D01*
X173378777Y-109136654D01*
X173343138Y-109155704D01*
X173304468Y-109167435D01*
X173258112Y-109172000D01*
X172181888Y-109172000D01*
X172135532Y-109167435D01*
X172096862Y-109155704D01*
X172061223Y-109136654D01*
X172029983Y-109111017D01*
X172004346Y-109079777D01*
X171985296Y-109044138D01*
X171973565Y-109005468D01*
X171969000Y-108959112D01*
X171969000Y-108307888D01*
X171973565Y-108261532D01*
X171985296Y-108222862D01*
X172004346Y-108187223D01*
X172029983Y-108155983D01*
X172061223Y-108130346D01*
X172096862Y-108111296D01*
X172135532Y-108099565D01*
X172181888Y-108095000D01*
X173258112Y-108095000D01*
X173304468Y-108099565D01*
G37*
G36*
X170764468Y-108099565D02*
G01*
X170803138Y-108111296D01*
X170838777Y-108130346D01*
X170870017Y-108155983D01*
X170895654Y-108187223D01*
X170914704Y-108222862D01*
X170926435Y-108261532D01*
X170931000Y-108307888D01*
X170931000Y-108959112D01*
X170926435Y-109005468D01*
X170914704Y-109044138D01*
X170895654Y-109079777D01*
X170870017Y-109111017D01*
X170838777Y-109136654D01*
X170803138Y-109155704D01*
X170764468Y-109167435D01*
X170718112Y-109172000D01*
X169641888Y-109172000D01*
X169595532Y-109167435D01*
X169556862Y-109155704D01*
X169521223Y-109136654D01*
X169489983Y-109111017D01*
X169464346Y-109079777D01*
X169445296Y-109044138D01*
X169433565Y-109005468D01*
X169429000Y-108959112D01*
X169429000Y-108307888D01*
X169433565Y-108261532D01*
X169445296Y-108222862D01*
X169464346Y-108187223D01*
X169489983Y-108155983D01*
X169521223Y-108130346D01*
X169556862Y-108111296D01*
X169595532Y-108099565D01*
X169641888Y-108095000D01*
X170718112Y-108095000D01*
X170764468Y-108099565D01*
G37*
G36*
X180707512Y-105529927D02*
G01*
X180856812Y-105559624D01*
X181020784Y-105627544D01*
X181168354Y-105726147D01*
X181293853Y-105851646D01*
X181392456Y-105999216D01*
X181460376Y-106163188D01*
X181495000Y-106337259D01*
X181495000Y-106514741D01*
X181460376Y-106688812D01*
X181392456Y-106852784D01*
X181293853Y-107000354D01*
X181168354Y-107125853D01*
X181020784Y-107224456D01*
X180856812Y-107292376D01*
X180707512Y-107322073D01*
X180682742Y-107327000D01*
X180505258Y-107327000D01*
X180480488Y-107322073D01*
X180331188Y-107292376D01*
X180167216Y-107224456D01*
X180019646Y-107125853D01*
X179894147Y-107000354D01*
X179795544Y-106852784D01*
X179727624Y-106688812D01*
X179693000Y-106514741D01*
X179693000Y-106337259D01*
X179727624Y-106163188D01*
X179795544Y-105999216D01*
X179894147Y-105851646D01*
X180019646Y-105726147D01*
X180167216Y-105627544D01*
X180331188Y-105559624D01*
X180480488Y-105529927D01*
X180505258Y-105525000D01*
X180682742Y-105525000D01*
X180707512Y-105529927D01*
G37*
G36*
X177368468Y-106224565D02*
G01*
X177407138Y-106236296D01*
X177442777Y-106255346D01*
X177474017Y-106280983D01*
X177499654Y-106312223D01*
X177518704Y-106347862D01*
X177530435Y-106386532D01*
X177535000Y-106432888D01*
X177535000Y-107084112D01*
X177530435Y-107130468D01*
X177518704Y-107169138D01*
X177499654Y-107204777D01*
X177474017Y-107236017D01*
X177442777Y-107261654D01*
X177407138Y-107280704D01*
X177368468Y-107292435D01*
X177322112Y-107297000D01*
X176245888Y-107297000D01*
X176199532Y-107292435D01*
X176160862Y-107280704D01*
X176125223Y-107261654D01*
X176093983Y-107236017D01*
X176068346Y-107204777D01*
X176049296Y-107169138D01*
X176037565Y-107130468D01*
X176033000Y-107084112D01*
X176033000Y-106432888D01*
X176037565Y-106386532D01*
X176049296Y-106347862D01*
X176068346Y-106312223D01*
X176093983Y-106280983D01*
X176125223Y-106255346D01*
X176160862Y-106236296D01*
X176199532Y-106224565D01*
X176245888Y-106220000D01*
X177322112Y-106220000D01*
X177368468Y-106224565D01*
G37*
G36*
X173304468Y-106224565D02*
G01*
X173343138Y-106236296D01*
X173378777Y-106255346D01*
X173410017Y-106280983D01*
X173435654Y-106312223D01*
X173454704Y-106347862D01*
X173466435Y-106386532D01*
X173471000Y-106432888D01*
X173471000Y-107084112D01*
X173466435Y-107130468D01*
X173454704Y-107169138D01*
X173435654Y-107204777D01*
X173410017Y-107236017D01*
X173378777Y-107261654D01*
X173343138Y-107280704D01*
X173304468Y-107292435D01*
X173258112Y-107297000D01*
X172181888Y-107297000D01*
X172135532Y-107292435D01*
X172096862Y-107280704D01*
X172061223Y-107261654D01*
X172029983Y-107236017D01*
X172004346Y-107204777D01*
X171985296Y-107169138D01*
X171973565Y-107130468D01*
X171969000Y-107084112D01*
X171969000Y-106432888D01*
X171973565Y-106386532D01*
X171985296Y-106347862D01*
X172004346Y-106312223D01*
X172029983Y-106280983D01*
X172061223Y-106255346D01*
X172096862Y-106236296D01*
X172135532Y-106224565D01*
X172181888Y-106220000D01*
X173258112Y-106220000D01*
X173304468Y-106224565D01*
G37*
G36*
X170764468Y-106224565D02*
G01*
X170803138Y-106236296D01*
X170838777Y-106255346D01*
X170870017Y-106280983D01*
X170895654Y-106312223D01*
X170914704Y-106347862D01*
X170926435Y-106386532D01*
X170931000Y-106432888D01*
X170931000Y-107084112D01*
X170926435Y-107130468D01*
X170914704Y-107169138D01*
X170895654Y-107204777D01*
X170870017Y-107236017D01*
X170838777Y-107261654D01*
X170803138Y-107280704D01*
X170764468Y-107292435D01*
X170718112Y-107297000D01*
X169641888Y-107297000D01*
X169595532Y-107292435D01*
X169556862Y-107280704D01*
X169521223Y-107261654D01*
X169489983Y-107236017D01*
X169464346Y-107204777D01*
X169445296Y-107169138D01*
X169433565Y-107130468D01*
X169429000Y-107084112D01*
X169429000Y-106432888D01*
X169433565Y-106386532D01*
X169445296Y-106347862D01*
X169464346Y-106312223D01*
X169489983Y-106280983D01*
X169521223Y-106255346D01*
X169556862Y-106236296D01*
X169595532Y-106224565D01*
X169641888Y-106220000D01*
X170718112Y-106220000D01*
X170764468Y-106224565D01*
G37*
G36*
X184710564Y-104907389D02*
G01*
X184901833Y-104986615D01*
X184901835Y-104986616D01*
X185073973Y-105101635D01*
X185220365Y-105248027D01*
X185335385Y-105420167D01*
X185414611Y-105611436D01*
X185455000Y-105814484D01*
X185455000Y-106021516D01*
X185414611Y-106224564D01*
X185363539Y-106347862D01*
X185335384Y-106415835D01*
X185220365Y-106587973D01*
X185073973Y-106734365D01*
X184901835Y-106849384D01*
X184901834Y-106849385D01*
X184901833Y-106849385D01*
X184710564Y-106928611D01*
X184507516Y-106969000D01*
X184300484Y-106969000D01*
X184097436Y-106928611D01*
X183906167Y-106849385D01*
X183906166Y-106849385D01*
X183906165Y-106849384D01*
X183734027Y-106734365D01*
X183587635Y-106587973D01*
X183472616Y-106415835D01*
X183444461Y-106347862D01*
X183393389Y-106224564D01*
X183353000Y-106021516D01*
X183353000Y-105814484D01*
X183393389Y-105611436D01*
X183472615Y-105420167D01*
X183587635Y-105248027D01*
X183734027Y-105101635D01*
X183906165Y-104986616D01*
X183906167Y-104986615D01*
X184097436Y-104907389D01*
X184300484Y-104867000D01*
X184507516Y-104867000D01*
X184710564Y-104907389D01*
G37*
G36*
X191210564Y-104907389D02*
G01*
X191401833Y-104986615D01*
X191401835Y-104986616D01*
X191573973Y-105101635D01*
X191720365Y-105248027D01*
X191835385Y-105420167D01*
X191914611Y-105611436D01*
X191955000Y-105814484D01*
X191955000Y-106021516D01*
X191914611Y-106224564D01*
X191863539Y-106347862D01*
X191835384Y-106415835D01*
X191720365Y-106587973D01*
X191573973Y-106734365D01*
X191401835Y-106849384D01*
X191401834Y-106849385D01*
X191401833Y-106849385D01*
X191210564Y-106928611D01*
X191007516Y-106969000D01*
X190800484Y-106969000D01*
X190597436Y-106928611D01*
X190406167Y-106849385D01*
X190406166Y-106849385D01*
X190406165Y-106849384D01*
X190234027Y-106734365D01*
X190087635Y-106587973D01*
X189972616Y-106415835D01*
X189944461Y-106347862D01*
X189893389Y-106224564D01*
X189853000Y-106021516D01*
X189853000Y-105814484D01*
X189893389Y-105611436D01*
X189972615Y-105420167D01*
X190087635Y-105248027D01*
X190234027Y-105101635D01*
X190406165Y-104986616D01*
X190406167Y-104986615D01*
X190597436Y-104907389D01*
X190800484Y-104867000D01*
X191007516Y-104867000D01*
X191210564Y-104907389D01*
G37*
G36*
X180718928Y-102775764D02*
G01*
X180740009Y-102782160D01*
X180759445Y-102792548D01*
X180776476Y-102806524D01*
X180790452Y-102823555D01*
X180800840Y-102842991D01*
X180807236Y-102864072D01*
X180810000Y-102892140D01*
X180810000Y-103355860D01*
X180807236Y-103383928D01*
X180800840Y-103405009D01*
X180790452Y-103424445D01*
X180776476Y-103441476D01*
X180759445Y-103455452D01*
X180740009Y-103465840D01*
X180718928Y-103472236D01*
X180690860Y-103475000D01*
X178777140Y-103475000D01*
X178749072Y-103472236D01*
X178727991Y-103465840D01*
X178708555Y-103455452D01*
X178691524Y-103441476D01*
X178677548Y-103424445D01*
X178667160Y-103405009D01*
X178660764Y-103383928D01*
X178658000Y-103355860D01*
X178658000Y-102892140D01*
X178660764Y-102864072D01*
X178667160Y-102842991D01*
X178677548Y-102823555D01*
X178691524Y-102806524D01*
X178708555Y-102792548D01*
X178727991Y-102782160D01*
X178749072Y-102775764D01*
X178777140Y-102773000D01*
X180690860Y-102773000D01*
X180718928Y-102775764D01*
G37*
G36*
X171418928Y-102775764D02*
G01*
X171440009Y-102782160D01*
X171459445Y-102792548D01*
X171476476Y-102806524D01*
X171490452Y-102823555D01*
X171500840Y-102842991D01*
X171507236Y-102864072D01*
X171510000Y-102892140D01*
X171510000Y-103355860D01*
X171507236Y-103383928D01*
X171500840Y-103405009D01*
X171490452Y-103424445D01*
X171476476Y-103441476D01*
X171459445Y-103455452D01*
X171440009Y-103465840D01*
X171418928Y-103472236D01*
X171390860Y-103475000D01*
X169477140Y-103475000D01*
X169449072Y-103472236D01*
X169427991Y-103465840D01*
X169408555Y-103455452D01*
X169391524Y-103441476D01*
X169377548Y-103424445D01*
X169367160Y-103405009D01*
X169360764Y-103383928D01*
X169358000Y-103355860D01*
X169358000Y-102892140D01*
X169360764Y-102864072D01*
X169367160Y-102842991D01*
X169377548Y-102823555D01*
X169391524Y-102806524D01*
X169408555Y-102792548D01*
X169427991Y-102782160D01*
X169449072Y-102775764D01*
X169477140Y-102773000D01*
X171390860Y-102773000D01*
X171418928Y-102775764D01*
G37*
G36*
X184710564Y-101097389D02*
G01*
X184901833Y-101176615D01*
X184901835Y-101176616D01*
X185073973Y-101291635D01*
X185220365Y-101438027D01*
X185315895Y-101580997D01*
X185335385Y-101610167D01*
X185414611Y-101801436D01*
X185455000Y-102004484D01*
X185455000Y-102211516D01*
X185414611Y-102414564D01*
X185335385Y-102605833D01*
X185335384Y-102605835D01*
X185220365Y-102777973D01*
X185073973Y-102924365D01*
X184901835Y-103039384D01*
X184901834Y-103039385D01*
X184901833Y-103039385D01*
X184710564Y-103118611D01*
X184507516Y-103159000D01*
X184300484Y-103159000D01*
X184097436Y-103118611D01*
X183906167Y-103039385D01*
X183906166Y-103039385D01*
X183906165Y-103039384D01*
X183734027Y-102924365D01*
X183587635Y-102777973D01*
X183472616Y-102605835D01*
X183472615Y-102605833D01*
X183393389Y-102414564D01*
X183353000Y-102211516D01*
X183353000Y-102004484D01*
X183393389Y-101801436D01*
X183472615Y-101610167D01*
X183492106Y-101580997D01*
X183587635Y-101438027D01*
X183734027Y-101291635D01*
X183906165Y-101176616D01*
X183906167Y-101176615D01*
X184097436Y-101097389D01*
X184300484Y-101057000D01*
X184507516Y-101057000D01*
X184710564Y-101097389D01*
G37*
G36*
X191210564Y-101097389D02*
G01*
X191401833Y-101176615D01*
X191401835Y-101176616D01*
X191573973Y-101291635D01*
X191720365Y-101438027D01*
X191815895Y-101580997D01*
X191835385Y-101610167D01*
X191914611Y-101801436D01*
X191955000Y-102004484D01*
X191955000Y-102211516D01*
X191914611Y-102414564D01*
X191835385Y-102605833D01*
X191835384Y-102605835D01*
X191720365Y-102777973D01*
X191573973Y-102924365D01*
X191401835Y-103039384D01*
X191401834Y-103039385D01*
X191401833Y-103039385D01*
X191210564Y-103118611D01*
X191007516Y-103159000D01*
X190800484Y-103159000D01*
X190597436Y-103118611D01*
X190406167Y-103039385D01*
X190406166Y-103039385D01*
X190406165Y-103039384D01*
X190234027Y-102924365D01*
X190087635Y-102777973D01*
X189972616Y-102605835D01*
X189972615Y-102605833D01*
X189893389Y-102414564D01*
X189853000Y-102211516D01*
X189853000Y-102004484D01*
X189893389Y-101801436D01*
X189972615Y-101610167D01*
X189992106Y-101580997D01*
X190087635Y-101438027D01*
X190234027Y-101291635D01*
X190406165Y-101176616D01*
X190406167Y-101176615D01*
X190597436Y-101097389D01*
X190800484Y-101057000D01*
X191007516Y-101057000D01*
X191210564Y-101097389D01*
G37*
G36*
X180718928Y-101505764D02*
G01*
X180740009Y-101512160D01*
X180759445Y-101522548D01*
X180776476Y-101536524D01*
X180790452Y-101553555D01*
X180800840Y-101572991D01*
X180807236Y-101594072D01*
X180810000Y-101622140D01*
X180810000Y-102085860D01*
X180807236Y-102113928D01*
X180800840Y-102135009D01*
X180790452Y-102154445D01*
X180776476Y-102171476D01*
X180759445Y-102185452D01*
X180740009Y-102195840D01*
X180718928Y-102202236D01*
X180690860Y-102205000D01*
X178777140Y-102205000D01*
X178749072Y-102202236D01*
X178727991Y-102195840D01*
X178708555Y-102185452D01*
X178691524Y-102171476D01*
X178677548Y-102154445D01*
X178667160Y-102135009D01*
X178660764Y-102113928D01*
X178658000Y-102085860D01*
X178658000Y-101622140D01*
X178660764Y-101594072D01*
X178667160Y-101572991D01*
X178677548Y-101553555D01*
X178691524Y-101536524D01*
X178708555Y-101522548D01*
X178727991Y-101512160D01*
X178749072Y-101505764D01*
X178777140Y-101503000D01*
X180690860Y-101503000D01*
X180718928Y-101505764D01*
G37*
G36*
X171418928Y-101505764D02*
G01*
X171440009Y-101512160D01*
X171459445Y-101522548D01*
X171476476Y-101536524D01*
X171490452Y-101553555D01*
X171500840Y-101572991D01*
X171507236Y-101594072D01*
X171510000Y-101622140D01*
X171510000Y-102085860D01*
X171507236Y-102113928D01*
X171500840Y-102135009D01*
X171490452Y-102154445D01*
X171476476Y-102171476D01*
X171459445Y-102185452D01*
X171440009Y-102195840D01*
X171418928Y-102202236D01*
X171390860Y-102205000D01*
X169477140Y-102205000D01*
X169449072Y-102202236D01*
X169427991Y-102195840D01*
X169408555Y-102185452D01*
X169391524Y-102171476D01*
X169377548Y-102154445D01*
X169367160Y-102135009D01*
X169360764Y-102113928D01*
X169358000Y-102085860D01*
X169358000Y-101622140D01*
X169360764Y-101594072D01*
X169367160Y-101572991D01*
X169377548Y-101553555D01*
X169391524Y-101536524D01*
X169408555Y-101522548D01*
X169427991Y-101512160D01*
X169449072Y-101505764D01*
X169477140Y-101503000D01*
X171390860Y-101503000D01*
X171418928Y-101505764D01*
G37*
G36*
X180718928Y-100235764D02*
G01*
X180740009Y-100242160D01*
X180759445Y-100252548D01*
X180776476Y-100266524D01*
X180790452Y-100283555D01*
X180800840Y-100302991D01*
X180807236Y-100324072D01*
X180810000Y-100352140D01*
X180810000Y-100815860D01*
X180807236Y-100843928D01*
X180800840Y-100865009D01*
X180790452Y-100884445D01*
X180776476Y-100901476D01*
X180759445Y-100915452D01*
X180740009Y-100925840D01*
X180718928Y-100932236D01*
X180690860Y-100935000D01*
X178777140Y-100935000D01*
X178749072Y-100932236D01*
X178727991Y-100925840D01*
X178708555Y-100915452D01*
X178691524Y-100901476D01*
X178677548Y-100884445D01*
X178667160Y-100865009D01*
X178660764Y-100843928D01*
X178658000Y-100815860D01*
X178658000Y-100352140D01*
X178660764Y-100324072D01*
X178667160Y-100302991D01*
X178677548Y-100283555D01*
X178691524Y-100266524D01*
X178708555Y-100252548D01*
X178727991Y-100242160D01*
X178749072Y-100235764D01*
X178777140Y-100233000D01*
X180690860Y-100233000D01*
X180718928Y-100235764D01*
G37*
G36*
X171418928Y-100235764D02*
G01*
X171440009Y-100242160D01*
X171459445Y-100252548D01*
X171476476Y-100266524D01*
X171490452Y-100283555D01*
X171500840Y-100302991D01*
X171507236Y-100324072D01*
X171510000Y-100352140D01*
X171510000Y-100815860D01*
X171507236Y-100843928D01*
X171500840Y-100865009D01*
X171490452Y-100884445D01*
X171476476Y-100901476D01*
X171459445Y-100915452D01*
X171440009Y-100925840D01*
X171418928Y-100932236D01*
X171390860Y-100935000D01*
X169477140Y-100935000D01*
X169449072Y-100932236D01*
X169427991Y-100925840D01*
X169408555Y-100915452D01*
X169391524Y-100901476D01*
X169377548Y-100884445D01*
X169367160Y-100865009D01*
X169360764Y-100843928D01*
X169358000Y-100815860D01*
X169358000Y-100352140D01*
X169360764Y-100324072D01*
X169367160Y-100302991D01*
X169377548Y-100283555D01*
X169391524Y-100266524D01*
X169408555Y-100252548D01*
X169427991Y-100242160D01*
X169449072Y-100235764D01*
X169477140Y-100233000D01*
X171390860Y-100233000D01*
X171418928Y-100235764D01*
G37*
G36*
X171418928Y-98965764D02*
G01*
X171440009Y-98972160D01*
X171459445Y-98982548D01*
X171476476Y-98996524D01*
X171490452Y-99013555D01*
X171500840Y-99032991D01*
X171507236Y-99054072D01*
X171510000Y-99082140D01*
X171510000Y-99545860D01*
X171507236Y-99573928D01*
X171500840Y-99595009D01*
X171490452Y-99614445D01*
X171476476Y-99631476D01*
X171459445Y-99645452D01*
X171440009Y-99655840D01*
X171418928Y-99662236D01*
X171390860Y-99665000D01*
X169477140Y-99665000D01*
X169449072Y-99662236D01*
X169427991Y-99655840D01*
X169408555Y-99645452D01*
X169391524Y-99631476D01*
X169377548Y-99614445D01*
X169367160Y-99595009D01*
X169360764Y-99573928D01*
X169358000Y-99545860D01*
X169358000Y-99082140D01*
X169360764Y-99054072D01*
X169367160Y-99032991D01*
X169377548Y-99013555D01*
X169391524Y-98996524D01*
X169408555Y-98982548D01*
X169427991Y-98972160D01*
X169449072Y-98965764D01*
X169477140Y-98963000D01*
X171390860Y-98963000D01*
X171418928Y-98965764D01*
G37*
G36*
X180718928Y-98965764D02*
G01*
X180740009Y-98972160D01*
X180759445Y-98982548D01*
X180776476Y-98996524D01*
X180790452Y-99013555D01*
X180800840Y-99032991D01*
X180807236Y-99054072D01*
X180810000Y-99082140D01*
X180810000Y-99545860D01*
X180807236Y-99573928D01*
X180800840Y-99595009D01*
X180790452Y-99614445D01*
X180776476Y-99631476D01*
X180759445Y-99645452D01*
X180740009Y-99655840D01*
X180718928Y-99662236D01*
X180690860Y-99665000D01*
X178777140Y-99665000D01*
X178749072Y-99662236D01*
X178727991Y-99655840D01*
X178708555Y-99645452D01*
X178691524Y-99631476D01*
X178677548Y-99614445D01*
X178667160Y-99595009D01*
X178660764Y-99573928D01*
X178658000Y-99545860D01*
X178658000Y-99082140D01*
X178660764Y-99054072D01*
X178667160Y-99032991D01*
X178677548Y-99013555D01*
X178691524Y-98996524D01*
X178708555Y-98982548D01*
X178727991Y-98972160D01*
X178749072Y-98965764D01*
X178777140Y-98963000D01*
X180690860Y-98963000D01*
X180718928Y-98965764D01*
G37*
G36*
X184710564Y-96597389D02*
G01*
X184901833Y-96676615D01*
X184901835Y-96676616D01*
X185073973Y-96791635D01*
X185220365Y-96938027D01*
X185325534Y-97095423D01*
X185335385Y-97110167D01*
X185414611Y-97301436D01*
X185455000Y-97504484D01*
X185455000Y-97711516D01*
X185414611Y-97914564D01*
X185335385Y-98105833D01*
X185335384Y-98105835D01*
X185220365Y-98277973D01*
X185073973Y-98424365D01*
X184901835Y-98539384D01*
X184901834Y-98539385D01*
X184901833Y-98539385D01*
X184710564Y-98618611D01*
X184507516Y-98659000D01*
X184300484Y-98659000D01*
X184097436Y-98618611D01*
X183906167Y-98539385D01*
X183906166Y-98539385D01*
X183906165Y-98539384D01*
X183734027Y-98424365D01*
X183587635Y-98277973D01*
X183472616Y-98105835D01*
X183472615Y-98105833D01*
X183393389Y-97914564D01*
X183353000Y-97711516D01*
X183353000Y-97504484D01*
X183393389Y-97301436D01*
X183472615Y-97110167D01*
X183482467Y-97095423D01*
X183587635Y-96938027D01*
X183734027Y-96791635D01*
X183906165Y-96676616D01*
X183906167Y-96676615D01*
X184097436Y-96597389D01*
X184300484Y-96557000D01*
X184507516Y-96557000D01*
X184710564Y-96597389D01*
G37*
G36*
X191210564Y-96597389D02*
G01*
X191401833Y-96676615D01*
X191401835Y-96676616D01*
X191573973Y-96791635D01*
X191720365Y-96938027D01*
X191825534Y-97095423D01*
X191835385Y-97110167D01*
X191914611Y-97301436D01*
X191955000Y-97504484D01*
X191955000Y-97711516D01*
X191914611Y-97914564D01*
X191835385Y-98105833D01*
X191835384Y-98105835D01*
X191720365Y-98277973D01*
X191573973Y-98424365D01*
X191401835Y-98539384D01*
X191401834Y-98539385D01*
X191401833Y-98539385D01*
X191210564Y-98618611D01*
X191007516Y-98659000D01*
X190800484Y-98659000D01*
X190597436Y-98618611D01*
X190406167Y-98539385D01*
X190406166Y-98539385D01*
X190406165Y-98539384D01*
X190234027Y-98424365D01*
X190087635Y-98277973D01*
X189972616Y-98105835D01*
X189972615Y-98105833D01*
X189893389Y-97914564D01*
X189853000Y-97711516D01*
X189853000Y-97504484D01*
X189893389Y-97301436D01*
X189972615Y-97110167D01*
X189982467Y-97095423D01*
X190087635Y-96938027D01*
X190234027Y-96791635D01*
X190406165Y-96676616D01*
X190406167Y-96676615D01*
X190597436Y-96597389D01*
X190800484Y-96557000D01*
X191007516Y-96557000D01*
X191210564Y-96597389D01*
G37*
G36*
X180718928Y-97695764D02*
G01*
X180740009Y-97702160D01*
X180759445Y-97712548D01*
X180776476Y-97726524D01*
X180790452Y-97743555D01*
X180800840Y-97762991D01*
X180807236Y-97784072D01*
X180810000Y-97812140D01*
X180810000Y-98275860D01*
X180807236Y-98303928D01*
X180800840Y-98325009D01*
X180790452Y-98344445D01*
X180776476Y-98361476D01*
X180759445Y-98375452D01*
X180740009Y-98385840D01*
X180718928Y-98392236D01*
X180690860Y-98395000D01*
X178777140Y-98395000D01*
X178749072Y-98392236D01*
X178727991Y-98385840D01*
X178708555Y-98375452D01*
X178691524Y-98361476D01*
X178677548Y-98344445D01*
X178667160Y-98325009D01*
X178660764Y-98303928D01*
X178658000Y-98275860D01*
X178658000Y-97812140D01*
X178660764Y-97784072D01*
X178667160Y-97762991D01*
X178677548Y-97743555D01*
X178691524Y-97726524D01*
X178708555Y-97712548D01*
X178727991Y-97702160D01*
X178749072Y-97695764D01*
X178777140Y-97693000D01*
X180690860Y-97693000D01*
X180718928Y-97695764D01*
G37*
G36*
X171418928Y-97695764D02*
G01*
X171440009Y-97702160D01*
X171459445Y-97712548D01*
X171476476Y-97726524D01*
X171490452Y-97743555D01*
X171500840Y-97762991D01*
X171507236Y-97784072D01*
X171510000Y-97812140D01*
X171510000Y-98275860D01*
X171507236Y-98303928D01*
X171500840Y-98325009D01*
X171490452Y-98344445D01*
X171476476Y-98361476D01*
X171459445Y-98375452D01*
X171440009Y-98385840D01*
X171418928Y-98392236D01*
X171390860Y-98395000D01*
X169477140Y-98395000D01*
X169449072Y-98392236D01*
X169427991Y-98385840D01*
X169408555Y-98375452D01*
X169391524Y-98361476D01*
X169377548Y-98344445D01*
X169367160Y-98325009D01*
X169360764Y-98303928D01*
X169358000Y-98275860D01*
X169358000Y-97812140D01*
X169360764Y-97784072D01*
X169367160Y-97762991D01*
X169377548Y-97743555D01*
X169391524Y-97726524D01*
X169408555Y-97712548D01*
X169427991Y-97702160D01*
X169449072Y-97695764D01*
X169477140Y-97693000D01*
X171390860Y-97693000D01*
X171418928Y-97695764D01*
G37*
G36*
X180718928Y-96425764D02*
G01*
X180740009Y-96432160D01*
X180759445Y-96442548D01*
X180776476Y-96456524D01*
X180790452Y-96473555D01*
X180800840Y-96492991D01*
X180807236Y-96514072D01*
X180810000Y-96542140D01*
X180810000Y-97005860D01*
X180807236Y-97033928D01*
X180800840Y-97055009D01*
X180790452Y-97074445D01*
X180776476Y-97091476D01*
X180759445Y-97105452D01*
X180740009Y-97115840D01*
X180718928Y-97122236D01*
X180690860Y-97125000D01*
X178777140Y-97125000D01*
X178749072Y-97122236D01*
X178727991Y-97115840D01*
X178708555Y-97105452D01*
X178691524Y-97091476D01*
X178677548Y-97074445D01*
X178667160Y-97055009D01*
X178660764Y-97033928D01*
X178658000Y-97005860D01*
X178658000Y-96542140D01*
X178660764Y-96514072D01*
X178667160Y-96492991D01*
X178677548Y-96473555D01*
X178691524Y-96456524D01*
X178708555Y-96442548D01*
X178727991Y-96432160D01*
X178749072Y-96425764D01*
X178777140Y-96423000D01*
X180690860Y-96423000D01*
X180718928Y-96425764D01*
G37*
G36*
X171418928Y-96425764D02*
G01*
X171440009Y-96432160D01*
X171459445Y-96442548D01*
X171476476Y-96456524D01*
X171490452Y-96473555D01*
X171500840Y-96492991D01*
X171507236Y-96514072D01*
X171510000Y-96542140D01*
X171510000Y-97005860D01*
X171507236Y-97033928D01*
X171500840Y-97055009D01*
X171490452Y-97074445D01*
X171476476Y-97091476D01*
X171459445Y-97105452D01*
X171440009Y-97115840D01*
X171418928Y-97122236D01*
X171390860Y-97125000D01*
X169477140Y-97125000D01*
X169449072Y-97122236D01*
X169427991Y-97115840D01*
X169408555Y-97105452D01*
X169391524Y-97091476D01*
X169377548Y-97074445D01*
X169367160Y-97055009D01*
X169360764Y-97033928D01*
X169358000Y-97005860D01*
X169358000Y-96542140D01*
X169360764Y-96514072D01*
X169367160Y-96492991D01*
X169377548Y-96473555D01*
X169391524Y-96456524D01*
X169408555Y-96442548D01*
X169427991Y-96432160D01*
X169449072Y-96425764D01*
X169477140Y-96423000D01*
X171390860Y-96423000D01*
X171418928Y-96425764D01*
G37*
G36*
X180718928Y-95155764D02*
G01*
X180740009Y-95162160D01*
X180759445Y-95172548D01*
X180776476Y-95186524D01*
X180790452Y-95203555D01*
X180800840Y-95222991D01*
X180807236Y-95244072D01*
X180810000Y-95272140D01*
X180810000Y-95735860D01*
X180807236Y-95763928D01*
X180800840Y-95785009D01*
X180790452Y-95804445D01*
X180776476Y-95821476D01*
X180759445Y-95835452D01*
X180740009Y-95845840D01*
X180718928Y-95852236D01*
X180690860Y-95855000D01*
X178777140Y-95855000D01*
X178749072Y-95852236D01*
X178727991Y-95845840D01*
X178708555Y-95835452D01*
X178691524Y-95821476D01*
X178677548Y-95804445D01*
X178667160Y-95785009D01*
X178660764Y-95763928D01*
X178658000Y-95735860D01*
X178658000Y-95272140D01*
X178660764Y-95244072D01*
X178667160Y-95222991D01*
X178677548Y-95203555D01*
X178691524Y-95186524D01*
X178708555Y-95172548D01*
X178727991Y-95162160D01*
X178749072Y-95155764D01*
X178777140Y-95153000D01*
X180690860Y-95153000D01*
X180718928Y-95155764D01*
G37*
G36*
X171418928Y-95155764D02*
G01*
X171440009Y-95162160D01*
X171459445Y-95172548D01*
X171476476Y-95186524D01*
X171490452Y-95203555D01*
X171500840Y-95222991D01*
X171507236Y-95244072D01*
X171510000Y-95272140D01*
X171510000Y-95735860D01*
X171507236Y-95763928D01*
X171500840Y-95785009D01*
X171490452Y-95804445D01*
X171476476Y-95821476D01*
X171459445Y-95835452D01*
X171440009Y-95845840D01*
X171418928Y-95852236D01*
X171390860Y-95855000D01*
X169477140Y-95855000D01*
X169449072Y-95852236D01*
X169427991Y-95845840D01*
X169408555Y-95835452D01*
X169391524Y-95821476D01*
X169377548Y-95804445D01*
X169367160Y-95785009D01*
X169360764Y-95763928D01*
X169358000Y-95735860D01*
X169358000Y-95272140D01*
X169360764Y-95244072D01*
X169367160Y-95222991D01*
X169377548Y-95203555D01*
X169391524Y-95186524D01*
X169408555Y-95172548D01*
X169427991Y-95162160D01*
X169449072Y-95155764D01*
X169477140Y-95153000D01*
X171390860Y-95153000D01*
X171418928Y-95155764D01*
G37*
G36*
X180718928Y-93885764D02*
G01*
X180740009Y-93892160D01*
X180759445Y-93902548D01*
X180776476Y-93916524D01*
X180790452Y-93933555D01*
X180800840Y-93952991D01*
X180807236Y-93974072D01*
X180810000Y-94002140D01*
X180810000Y-94465860D01*
X180807236Y-94493928D01*
X180800840Y-94515009D01*
X180790452Y-94534445D01*
X180776476Y-94551476D01*
X180759445Y-94565452D01*
X180740009Y-94575840D01*
X180718928Y-94582236D01*
X180690860Y-94585000D01*
X178777140Y-94585000D01*
X178749072Y-94582236D01*
X178727991Y-94575840D01*
X178708555Y-94565452D01*
X178691524Y-94551476D01*
X178677548Y-94534445D01*
X178667160Y-94515009D01*
X178660764Y-94493928D01*
X178658000Y-94465860D01*
X178658000Y-94002140D01*
X178660764Y-93974072D01*
X178667160Y-93952991D01*
X178677548Y-93933555D01*
X178691524Y-93916524D01*
X178708555Y-93902548D01*
X178727991Y-93892160D01*
X178749072Y-93885764D01*
X178777140Y-93883000D01*
X180690860Y-93883000D01*
X180718928Y-93885764D01*
G37*
G36*
X171418928Y-93885764D02*
G01*
X171440009Y-93892160D01*
X171459445Y-93902548D01*
X171476476Y-93916524D01*
X171490452Y-93933555D01*
X171500840Y-93952991D01*
X171507236Y-93974072D01*
X171510000Y-94002140D01*
X171510000Y-94465860D01*
X171507236Y-94493928D01*
X171500840Y-94515009D01*
X171490452Y-94534445D01*
X171476476Y-94551476D01*
X171459445Y-94565452D01*
X171440009Y-94575840D01*
X171418928Y-94582236D01*
X171390860Y-94585000D01*
X169477140Y-94585000D01*
X169449072Y-94582236D01*
X169427991Y-94575840D01*
X169408555Y-94565452D01*
X169391524Y-94551476D01*
X169377548Y-94534445D01*
X169367160Y-94515009D01*
X169360764Y-94493928D01*
X169358000Y-94465860D01*
X169358000Y-94002140D01*
X169360764Y-93974072D01*
X169367160Y-93952991D01*
X169377548Y-93933555D01*
X169391524Y-93916524D01*
X169408555Y-93902548D01*
X169427991Y-93892160D01*
X169449072Y-93885764D01*
X169477140Y-93883000D01*
X171390860Y-93883000D01*
X171418928Y-93885764D01*
G37*
G36*
X186992585Y-90934802D02*
G01*
X187142410Y-90964604D01*
X187424674Y-91081521D01*
X187678705Y-91251259D01*
X187894741Y-91467295D01*
X188064479Y-91721326D01*
X188181396Y-92003590D01*
X188241000Y-92303240D01*
X188241000Y-92608760D01*
X188181396Y-92908410D01*
X188064479Y-93190674D01*
X187894741Y-93444705D01*
X187678705Y-93660741D01*
X187424674Y-93830479D01*
X187142410Y-93947396D01*
X187074033Y-93960997D01*
X186842761Y-94007000D01*
X186537239Y-94007000D01*
X186305967Y-93960997D01*
X186237590Y-93947396D01*
X185955326Y-93830479D01*
X185701295Y-93660741D01*
X185485259Y-93444705D01*
X185315521Y-93190674D01*
X185198604Y-92908410D01*
X185139000Y-92608760D01*
X185139000Y-92303240D01*
X185198604Y-92003590D01*
X185315521Y-91721326D01*
X185485259Y-91467295D01*
X185701295Y-91251259D01*
X185955326Y-91081521D01*
X186237590Y-90964604D01*
X186387415Y-90934802D01*
X186537239Y-90905000D01*
X186842761Y-90905000D01*
X186992585Y-90934802D01*
G37*
G36*
X175299468Y-90947565D02*
G01*
X175338138Y-90959296D01*
X175373777Y-90978346D01*
X175405017Y-91003983D01*
X175430654Y-91035223D01*
X175449704Y-91070862D01*
X175461435Y-91109532D01*
X175466000Y-91155888D01*
X175466000Y-92232112D01*
X175461435Y-92278468D01*
X175449704Y-92317138D01*
X175430654Y-92352777D01*
X175405017Y-92384017D01*
X175373777Y-92409654D01*
X175338138Y-92428704D01*
X175299468Y-92440435D01*
X175253112Y-92445000D01*
X174601888Y-92445000D01*
X174555532Y-92440435D01*
X174516862Y-92428704D01*
X174481223Y-92409654D01*
X174449983Y-92384017D01*
X174424346Y-92352777D01*
X174405296Y-92317138D01*
X174393565Y-92278468D01*
X174389000Y-92232112D01*
X174389000Y-91155888D01*
X174393565Y-91109532D01*
X174405296Y-91070862D01*
X174424346Y-91035223D01*
X174449983Y-91003983D01*
X174481223Y-90978346D01*
X174516862Y-90959296D01*
X174555532Y-90947565D01*
X174601888Y-90943000D01*
X175253112Y-90943000D01*
X175299468Y-90947565D01*
G37*
G36*
X173424468Y-90947565D02*
G01*
X173463138Y-90959296D01*
X173498777Y-90978346D01*
X173530017Y-91003983D01*
X173555654Y-91035223D01*
X173574704Y-91070862D01*
X173586435Y-91109532D01*
X173591000Y-91155888D01*
X173591000Y-92232112D01*
X173586435Y-92278468D01*
X173574704Y-92317138D01*
X173555654Y-92352777D01*
X173530017Y-92384017D01*
X173498777Y-92409654D01*
X173463138Y-92428704D01*
X173424468Y-92440435D01*
X173378112Y-92445000D01*
X172726888Y-92445000D01*
X172680532Y-92440435D01*
X172641862Y-92428704D01*
X172606223Y-92409654D01*
X172574983Y-92384017D01*
X172549346Y-92352777D01*
X172530296Y-92317138D01*
X172518565Y-92278468D01*
X172514000Y-92232112D01*
X172514000Y-91155888D01*
X172518565Y-91109532D01*
X172530296Y-91070862D01*
X172549346Y-91035223D01*
X172574983Y-91003983D01*
X172606223Y-90978346D01*
X172641862Y-90959296D01*
X172680532Y-90947565D01*
X172726888Y-90943000D01*
X173378112Y-90943000D01*
X173424468Y-90947565D01*
G37*
G36*
X181495000Y-91071000D02*
G01*
X179693000Y-91071000D01*
X179693000Y-89269000D01*
X181495000Y-89269000D01*
X181495000Y-91071000D01*
G37*
G36*
X175710468Y-88153565D02*
G01*
X175749138Y-88165296D01*
X175784777Y-88184346D01*
X175816017Y-88209983D01*
X175841654Y-88241223D01*
X175860704Y-88276862D01*
X175872435Y-88315532D01*
X175877000Y-88361888D01*
X175877000Y-89438112D01*
X175872435Y-89484468D01*
X175860704Y-89523138D01*
X175841654Y-89558777D01*
X175816017Y-89590017D01*
X175784777Y-89615654D01*
X175749138Y-89634704D01*
X175710468Y-89646435D01*
X175664112Y-89651000D01*
X175012888Y-89651000D01*
X174966532Y-89646435D01*
X174927862Y-89634704D01*
X174892223Y-89615654D01*
X174860983Y-89590017D01*
X174835346Y-89558777D01*
X174816296Y-89523138D01*
X174804565Y-89484468D01*
X174800000Y-89438112D01*
X174800000Y-88361888D01*
X174804565Y-88315532D01*
X174816296Y-88276862D01*
X174835346Y-88241223D01*
X174860983Y-88209983D01*
X174892223Y-88184346D01*
X174927862Y-88165296D01*
X174966532Y-88153565D01*
X175012888Y-88149000D01*
X175664112Y-88149000D01*
X175710468Y-88153565D01*
G37*
G36*
X177585468Y-88153565D02*
G01*
X177624138Y-88165296D01*
X177659777Y-88184346D01*
X177691017Y-88209983D01*
X177716654Y-88241223D01*
X177735704Y-88276862D01*
X177747435Y-88315532D01*
X177752000Y-88361888D01*
X177752000Y-89438112D01*
X177747435Y-89484468D01*
X177735704Y-89523138D01*
X177716654Y-89558777D01*
X177691017Y-89590017D01*
X177659777Y-89615654D01*
X177624138Y-89634704D01*
X177585468Y-89646435D01*
X177539112Y-89651000D01*
X176887888Y-89651000D01*
X176841532Y-89646435D01*
X176802862Y-89634704D01*
X176767223Y-89615654D01*
X176735983Y-89590017D01*
X176710346Y-89558777D01*
X176691296Y-89523138D01*
X176679565Y-89484468D01*
X176675000Y-89438112D01*
X176675000Y-88361888D01*
X176679565Y-88315532D01*
X176691296Y-88276862D01*
X176710346Y-88241223D01*
X176735983Y-88209983D01*
X176767223Y-88184346D01*
X176802862Y-88165296D01*
X176841532Y-88153565D01*
X176887888Y-88149000D01*
X177539112Y-88149000D01*
X177585468Y-88153565D01*
G37*
G36*
X170884468Y-88153565D02*
G01*
X170923138Y-88165296D01*
X170958777Y-88184346D01*
X170990017Y-88209983D01*
X171015654Y-88241223D01*
X171034704Y-88276862D01*
X171046435Y-88315532D01*
X171051000Y-88361888D01*
X171051000Y-89438112D01*
X171046435Y-89484468D01*
X171034704Y-89523138D01*
X171015654Y-89558777D01*
X170990017Y-89590017D01*
X170958777Y-89615654D01*
X170923138Y-89634704D01*
X170884468Y-89646435D01*
X170838112Y-89651000D01*
X170186888Y-89651000D01*
X170140532Y-89646435D01*
X170101862Y-89634704D01*
X170066223Y-89615654D01*
X170034983Y-89590017D01*
X170009346Y-89558777D01*
X169990296Y-89523138D01*
X169978565Y-89484468D01*
X169974000Y-89438112D01*
X169974000Y-88361888D01*
X169978565Y-88315532D01*
X169990296Y-88276862D01*
X170009346Y-88241223D01*
X170034983Y-88209983D01*
X170066223Y-88184346D01*
X170101862Y-88165296D01*
X170140532Y-88153565D01*
X170186888Y-88149000D01*
X170838112Y-88149000D01*
X170884468Y-88153565D01*
G37*
G36*
X172759468Y-88153565D02*
G01*
X172798138Y-88165296D01*
X172833777Y-88184346D01*
X172865017Y-88209983D01*
X172890654Y-88241223D01*
X172909704Y-88276862D01*
X172921435Y-88315532D01*
X172926000Y-88361888D01*
X172926000Y-89438112D01*
X172921435Y-89484468D01*
X172909704Y-89523138D01*
X172890654Y-89558777D01*
X172865017Y-89590017D01*
X172833777Y-89615654D01*
X172798138Y-89634704D01*
X172759468Y-89646435D01*
X172713112Y-89651000D01*
X172061888Y-89651000D01*
X172015532Y-89646435D01*
X171976862Y-89634704D01*
X171941223Y-89615654D01*
X171909983Y-89590017D01*
X171884346Y-89558777D01*
X171865296Y-89523138D01*
X171853565Y-89484468D01*
X171849000Y-89438112D01*
X171849000Y-88361888D01*
X171853565Y-88315532D01*
X171865296Y-88276862D01*
X171884346Y-88241223D01*
X171909983Y-88209983D01*
X171941223Y-88184346D01*
X171976862Y-88165296D01*
X172015532Y-88153565D01*
X172061888Y-88149000D01*
X172713112Y-88149000D01*
X172759468Y-88153565D01*
G37*
G36*
X188241000Y-88927000D02*
G01*
X185139000Y-88927000D01*
X185139000Y-85825000D01*
X188241000Y-85825000D01*
X188241000Y-88927000D01*
G37*
G36*
X180707512Y-86733927D02*
G01*
X180856812Y-86763624D01*
X181020784Y-86831544D01*
X181168354Y-86930147D01*
X181293853Y-87055646D01*
X181392456Y-87203216D01*
X181460376Y-87367188D01*
X181495000Y-87541259D01*
X181495000Y-87718741D01*
X181460376Y-87892812D01*
X181392456Y-88056784D01*
X181293853Y-88204354D01*
X181168354Y-88329853D01*
X181020784Y-88428456D01*
X180856812Y-88496376D01*
X180707512Y-88526073D01*
X180682742Y-88531000D01*
X180505258Y-88531000D01*
X180480488Y-88526073D01*
X180331188Y-88496376D01*
X180167216Y-88428456D01*
X180019646Y-88329853D01*
X179894147Y-88204354D01*
X179795544Y-88056784D01*
X179727624Y-87892812D01*
X179693000Y-87718741D01*
X179693000Y-87541259D01*
X179727624Y-87367188D01*
X179795544Y-87203216D01*
X179894147Y-87055646D01*
X180019646Y-86930147D01*
X180167216Y-86831544D01*
X180331188Y-86763624D01*
X180480488Y-86733927D01*
X180505258Y-86729000D01*
X180682742Y-86729000D01*
X180707512Y-86733927D01*
G37*
G36*
X170884468Y-85613565D02*
G01*
X170923138Y-85625296D01*
X170958777Y-85644346D01*
X170990017Y-85669983D01*
X171015654Y-85701223D01*
X171034704Y-85736862D01*
X171046435Y-85775532D01*
X171051000Y-85821888D01*
X171051000Y-86898112D01*
X171046435Y-86944468D01*
X171034704Y-86983138D01*
X171015654Y-87018777D01*
X170990017Y-87050017D01*
X170958777Y-87075654D01*
X170923138Y-87094704D01*
X170884468Y-87106435D01*
X170838112Y-87111000D01*
X170186888Y-87111000D01*
X170140532Y-87106435D01*
X170101862Y-87094704D01*
X170066223Y-87075654D01*
X170034983Y-87050017D01*
X170009346Y-87018777D01*
X169990296Y-86983138D01*
X169978565Y-86944468D01*
X169974000Y-86898112D01*
X169974000Y-85821888D01*
X169978565Y-85775532D01*
X169990296Y-85736862D01*
X170009346Y-85701223D01*
X170034983Y-85669983D01*
X170066223Y-85644346D01*
X170101862Y-85625296D01*
X170140532Y-85613565D01*
X170186888Y-85609000D01*
X170838112Y-85609000D01*
X170884468Y-85613565D01*
G37*
G36*
X172759468Y-85613565D02*
G01*
X172798138Y-85625296D01*
X172833777Y-85644346D01*
X172865017Y-85669983D01*
X172890654Y-85701223D01*
X172909704Y-85736862D01*
X172921435Y-85775532D01*
X172926000Y-85821888D01*
X172926000Y-86898112D01*
X172921435Y-86944468D01*
X172909704Y-86983138D01*
X172890654Y-87018777D01*
X172865017Y-87050017D01*
X172833777Y-87075654D01*
X172798138Y-87094704D01*
X172759468Y-87106435D01*
X172713112Y-87111000D01*
X172061888Y-87111000D01*
X172015532Y-87106435D01*
X171976862Y-87094704D01*
X171941223Y-87075654D01*
X171909983Y-87050017D01*
X171884346Y-87018777D01*
X171865296Y-86983138D01*
X171853565Y-86944468D01*
X171849000Y-86898112D01*
X171849000Y-85821888D01*
X171853565Y-85775532D01*
X171865296Y-85736862D01*
X171884346Y-85701223D01*
X171909983Y-85669983D01*
X171941223Y-85644346D01*
X171976862Y-85625296D01*
X172015532Y-85613565D01*
X172061888Y-85609000D01*
X172713112Y-85609000D01*
X172759468Y-85613565D01*
G37*
G36*
X175710468Y-85613565D02*
G01*
X175749138Y-85625296D01*
X175784777Y-85644346D01*
X175816017Y-85669983D01*
X175841654Y-85701223D01*
X175860704Y-85736862D01*
X175872435Y-85775532D01*
X175877000Y-85821888D01*
X175877000Y-86898112D01*
X175872435Y-86944468D01*
X175860704Y-86983138D01*
X175841654Y-87018777D01*
X175816017Y-87050017D01*
X175784777Y-87075654D01*
X175749138Y-87094704D01*
X175710468Y-87106435D01*
X175664112Y-87111000D01*
X175012888Y-87111000D01*
X174966532Y-87106435D01*
X174927862Y-87094704D01*
X174892223Y-87075654D01*
X174860983Y-87050017D01*
X174835346Y-87018777D01*
X174816296Y-86983138D01*
X174804565Y-86944468D01*
X174800000Y-86898112D01*
X174800000Y-85821888D01*
X174804565Y-85775532D01*
X174816296Y-85736862D01*
X174835346Y-85701223D01*
X174860983Y-85669983D01*
X174892223Y-85644346D01*
X174927862Y-85625296D01*
X174966532Y-85613565D01*
X175012888Y-85609000D01*
X175664112Y-85609000D01*
X175710468Y-85613565D01*
G37*
G36*
X177585468Y-85613565D02*
G01*
X177624138Y-85625296D01*
X177659777Y-85644346D01*
X177691017Y-85669983D01*
X177716654Y-85701223D01*
X177735704Y-85736862D01*
X177747435Y-85775532D01*
X177752000Y-85821888D01*
X177752000Y-86898112D01*
X177747435Y-86944468D01*
X177735704Y-86983138D01*
X177716654Y-87018777D01*
X177691017Y-87050017D01*
X177659777Y-87075654D01*
X177624138Y-87094704D01*
X177585468Y-87106435D01*
X177539112Y-87111000D01*
X176887888Y-87111000D01*
X176841532Y-87106435D01*
X176802862Y-87094704D01*
X176767223Y-87075654D01*
X176735983Y-87050017D01*
X176710346Y-87018777D01*
X176691296Y-86983138D01*
X176679565Y-86944468D01*
X176675000Y-86898112D01*
X176675000Y-85821888D01*
X176679565Y-85775532D01*
X176691296Y-85736862D01*
X176710346Y-85701223D01*
X176735983Y-85669983D01*
X176767223Y-85644346D01*
X176802862Y-85625296D01*
X176841532Y-85613565D01*
X176887888Y-85609000D01*
X177539112Y-85609000D01*
X177585468Y-85613565D01*
G37*
G36*
X181495000Y-84721000D02*
G01*
X179693000Y-84721000D01*
X179693000Y-82919000D01*
X181495000Y-82919000D01*
X181495000Y-84721000D01*
G37*
G36*
X172759468Y-82819565D02*
G01*
X172798138Y-82831296D01*
X172833777Y-82850346D01*
X172865017Y-82875983D01*
X172890654Y-82907223D01*
X172909704Y-82942862D01*
X172921435Y-82981532D01*
X172926000Y-83027888D01*
X172926000Y-84104112D01*
X172921435Y-84150468D01*
X172909704Y-84189138D01*
X172890654Y-84224777D01*
X172865017Y-84256017D01*
X172833777Y-84281654D01*
X172798138Y-84300704D01*
X172759468Y-84312435D01*
X172713112Y-84317000D01*
X172061888Y-84317000D01*
X172015532Y-84312435D01*
X171976862Y-84300704D01*
X171941223Y-84281654D01*
X171909983Y-84256017D01*
X171884346Y-84224777D01*
X171865296Y-84189138D01*
X171853565Y-84150468D01*
X171849000Y-84104112D01*
X171849000Y-83027888D01*
X171853565Y-82981532D01*
X171865296Y-82942862D01*
X171884346Y-82907223D01*
X171909983Y-82875983D01*
X171941223Y-82850346D01*
X171976862Y-82831296D01*
X172015532Y-82819565D01*
X172061888Y-82815000D01*
X172713112Y-82815000D01*
X172759468Y-82819565D01*
G37*
G36*
X175631968Y-82819565D02*
G01*
X175670638Y-82831296D01*
X175706277Y-82850346D01*
X175737517Y-82875983D01*
X175763154Y-82907223D01*
X175782204Y-82942862D01*
X175793935Y-82981532D01*
X175798500Y-83027888D01*
X175798500Y-84104112D01*
X175793935Y-84150468D01*
X175782204Y-84189138D01*
X175763154Y-84224777D01*
X175737517Y-84256017D01*
X175706277Y-84281654D01*
X175670638Y-84300704D01*
X175631968Y-84312435D01*
X175585612Y-84317000D01*
X174934388Y-84317000D01*
X174888032Y-84312435D01*
X174849362Y-84300704D01*
X174813723Y-84281654D01*
X174782483Y-84256017D01*
X174756846Y-84224777D01*
X174737796Y-84189138D01*
X174726065Y-84150468D01*
X174721500Y-84104112D01*
X174721500Y-83027888D01*
X174726065Y-82981532D01*
X174737796Y-82942862D01*
X174756846Y-82907223D01*
X174782483Y-82875983D01*
X174813723Y-82850346D01*
X174849362Y-82831296D01*
X174888032Y-82819565D01*
X174934388Y-82815000D01*
X175585612Y-82815000D01*
X175631968Y-82819565D01*
G37*
G36*
X170884468Y-82819565D02*
G01*
X170923138Y-82831296D01*
X170958777Y-82850346D01*
X170990017Y-82875983D01*
X171015654Y-82907223D01*
X171034704Y-82942862D01*
X171046435Y-82981532D01*
X171051000Y-83027888D01*
X171051000Y-84104112D01*
X171046435Y-84150468D01*
X171034704Y-84189138D01*
X171015654Y-84224777D01*
X170990017Y-84256017D01*
X170958777Y-84281654D01*
X170923138Y-84300704D01*
X170884468Y-84312435D01*
X170838112Y-84317000D01*
X170186888Y-84317000D01*
X170140532Y-84312435D01*
X170101862Y-84300704D01*
X170066223Y-84281654D01*
X170034983Y-84256017D01*
X170009346Y-84224777D01*
X169990296Y-84189138D01*
X169978565Y-84150468D01*
X169974000Y-84104112D01*
X169974000Y-83027888D01*
X169978565Y-82981532D01*
X169990296Y-82942862D01*
X170009346Y-82907223D01*
X170034983Y-82875983D01*
X170066223Y-82850346D01*
X170101862Y-82831296D01*
X170140532Y-82819565D01*
X170186888Y-82815000D01*
X170838112Y-82815000D01*
X170884468Y-82819565D01*
G37*
G36*
X177506968Y-82819565D02*
G01*
X177545638Y-82831296D01*
X177581277Y-82850346D01*
X177612517Y-82875983D01*
X177638154Y-82907223D01*
X177657204Y-82942862D01*
X177668935Y-82981532D01*
X177673500Y-83027888D01*
X177673500Y-84104112D01*
X177668935Y-84150468D01*
X177657204Y-84189138D01*
X177638154Y-84224777D01*
X177612517Y-84256017D01*
X177581277Y-84281654D01*
X177545638Y-84300704D01*
X177506968Y-84312435D01*
X177460612Y-84317000D01*
X176809388Y-84317000D01*
X176763032Y-84312435D01*
X176724362Y-84300704D01*
X176688723Y-84281654D01*
X176657483Y-84256017D01*
X176631846Y-84224777D01*
X176612796Y-84189138D01*
X176601065Y-84150468D01*
X176596500Y-84104112D01*
X176596500Y-83027888D01*
X176601065Y-82981532D01*
X176612796Y-82942862D01*
X176631846Y-82907223D01*
X176657483Y-82875983D01*
X176688723Y-82850346D01*
X176724362Y-82831296D01*
X176763032Y-82819565D01*
X176809388Y-82815000D01*
X177460612Y-82815000D01*
X177506968Y-82819565D01*
G37*
G36*
X188241000Y-82577000D02*
G01*
X185139000Y-82577000D01*
X185139000Y-79475000D01*
X188241000Y-79475000D01*
X188241000Y-82577000D01*
G37*
G36*
X180707512Y-80383927D02*
G01*
X180856812Y-80413624D01*
X181020784Y-80481544D01*
X181168354Y-80580147D01*
X181293853Y-80705646D01*
X181392456Y-80853216D01*
X181460376Y-81017188D01*
X181495000Y-81191259D01*
X181495000Y-81368741D01*
X181460376Y-81542812D01*
X181392456Y-81706784D01*
X181293853Y-81854354D01*
X181168354Y-81979853D01*
X181020784Y-82078456D01*
X180856812Y-82146376D01*
X180707512Y-82176073D01*
X180682742Y-82181000D01*
X180505258Y-82181000D01*
X180480488Y-82176073D01*
X180331188Y-82146376D01*
X180167216Y-82078456D01*
X180019646Y-81979853D01*
X179894147Y-81854354D01*
X179795544Y-81706784D01*
X179727624Y-81542812D01*
X179693000Y-81368741D01*
X179693000Y-81191259D01*
X179727624Y-81017188D01*
X179795544Y-80853216D01*
X179894147Y-80705646D01*
X180019646Y-80580147D01*
X180167216Y-80481544D01*
X180331188Y-80413624D01*
X180480488Y-80383927D01*
X180505258Y-80379000D01*
X180682742Y-80379000D01*
X180707512Y-80383927D01*
G37*
G36*
X176891928Y-80423764D02*
G01*
X176913009Y-80430160D01*
X176932445Y-80440548D01*
X176949476Y-80454524D01*
X176963452Y-80471555D01*
X176973840Y-80490991D01*
X176980236Y-80512072D01*
X176983000Y-80540140D01*
X176983000Y-81003860D01*
X176980236Y-81031928D01*
X176973840Y-81053009D01*
X176963452Y-81072445D01*
X176949476Y-81089476D01*
X176932445Y-81103452D01*
X176913009Y-81113840D01*
X176891928Y-81120236D01*
X176863860Y-81123000D01*
X175050140Y-81123000D01*
X175022072Y-81120236D01*
X175000991Y-81113840D01*
X174981555Y-81103452D01*
X174964524Y-81089476D01*
X174950548Y-81072445D01*
X174940160Y-81053009D01*
X174933764Y-81031928D01*
X174931000Y-81003860D01*
X174931000Y-80540140D01*
X174933764Y-80512072D01*
X174940160Y-80490991D01*
X174950548Y-80471555D01*
X174964524Y-80454524D01*
X174981555Y-80440548D01*
X175000991Y-80430160D01*
X175022072Y-80423764D01*
X175050140Y-80421000D01*
X176863860Y-80421000D01*
X176891928Y-80423764D01*
G37*
G36*
X171941928Y-80423764D02*
G01*
X171963009Y-80430160D01*
X171982445Y-80440548D01*
X171999476Y-80454524D01*
X172013452Y-80471555D01*
X172023840Y-80490991D01*
X172030236Y-80512072D01*
X172033000Y-80540140D01*
X172033000Y-81003860D01*
X172030236Y-81031928D01*
X172023840Y-81053009D01*
X172013452Y-81072445D01*
X171999476Y-81089476D01*
X171982445Y-81103452D01*
X171963009Y-81113840D01*
X171941928Y-81120236D01*
X171913860Y-81123000D01*
X170100140Y-81123000D01*
X170072072Y-81120236D01*
X170050991Y-81113840D01*
X170031555Y-81103452D01*
X170014524Y-81089476D01*
X170000548Y-81072445D01*
X169990160Y-81053009D01*
X169983764Y-81031928D01*
X169981000Y-81003860D01*
X169981000Y-80540140D01*
X169983764Y-80512072D01*
X169990160Y-80490991D01*
X170000548Y-80471555D01*
X170014524Y-80454524D01*
X170031555Y-80440548D01*
X170050991Y-80430160D01*
X170072072Y-80423764D01*
X170100140Y-80421000D01*
X171913860Y-80421000D01*
X171941928Y-80423764D01*
G37*
G36*
X176891928Y-79153764D02*
G01*
X176913009Y-79160160D01*
X176932445Y-79170548D01*
X176949476Y-79184524D01*
X176963452Y-79201555D01*
X176973840Y-79220991D01*
X176980236Y-79242072D01*
X176983000Y-79270140D01*
X176983000Y-79733860D01*
X176980236Y-79761928D01*
X176973840Y-79783009D01*
X176963452Y-79802445D01*
X176949476Y-79819476D01*
X176932445Y-79833452D01*
X176913009Y-79843840D01*
X176891928Y-79850236D01*
X176863860Y-79853000D01*
X175050140Y-79853000D01*
X175022072Y-79850236D01*
X175000991Y-79843840D01*
X174981555Y-79833452D01*
X174964524Y-79819476D01*
X174950548Y-79802445D01*
X174940160Y-79783009D01*
X174933764Y-79761928D01*
X174931000Y-79733860D01*
X174931000Y-79270140D01*
X174933764Y-79242072D01*
X174940160Y-79220991D01*
X174950548Y-79201555D01*
X174964524Y-79184524D01*
X174981555Y-79170548D01*
X175000991Y-79160160D01*
X175022072Y-79153764D01*
X175050140Y-79151000D01*
X176863860Y-79151000D01*
X176891928Y-79153764D01*
G37*
G36*
X171941928Y-79153764D02*
G01*
X171963009Y-79160160D01*
X171982445Y-79170548D01*
X171999476Y-79184524D01*
X172013452Y-79201555D01*
X172023840Y-79220991D01*
X172030236Y-79242072D01*
X172033000Y-79270140D01*
X172033000Y-79733860D01*
X172030236Y-79761928D01*
X172023840Y-79783009D01*
X172013452Y-79802445D01*
X171999476Y-79819476D01*
X171982445Y-79833452D01*
X171963009Y-79843840D01*
X171941928Y-79850236D01*
X171913860Y-79853000D01*
X170100140Y-79853000D01*
X170072072Y-79850236D01*
X170050991Y-79843840D01*
X170031555Y-79833452D01*
X170014524Y-79819476D01*
X170000548Y-79802445D01*
X169990160Y-79783009D01*
X169983764Y-79761928D01*
X169981000Y-79733860D01*
X169981000Y-79270140D01*
X169983764Y-79242072D01*
X169990160Y-79220991D01*
X170000548Y-79201555D01*
X170014524Y-79184524D01*
X170031555Y-79170548D01*
X170050991Y-79160160D01*
X170072072Y-79153764D01*
X170100140Y-79151000D01*
X171913860Y-79151000D01*
X171941928Y-79153764D01*
G37*
G36*
X171941928Y-77883764D02*
G01*
X171963009Y-77890160D01*
X171982445Y-77900548D01*
X171999476Y-77914524D01*
X172013452Y-77931555D01*
X172023840Y-77950991D01*
X172030236Y-77972072D01*
X172033000Y-78000140D01*
X172033000Y-78463860D01*
X172030236Y-78491928D01*
X172023840Y-78513009D01*
X172013452Y-78532445D01*
X171999476Y-78549476D01*
X171982445Y-78563452D01*
X171963009Y-78573840D01*
X171941928Y-78580236D01*
X171913860Y-78583000D01*
X170100140Y-78583000D01*
X170072072Y-78580236D01*
X170050991Y-78573840D01*
X170031555Y-78563452D01*
X170014524Y-78549476D01*
X170000548Y-78532445D01*
X169990160Y-78513009D01*
X169983764Y-78491928D01*
X169981000Y-78463860D01*
X169981000Y-78000140D01*
X169983764Y-77972072D01*
X169990160Y-77950991D01*
X170000548Y-77931555D01*
X170014524Y-77914524D01*
X170031555Y-77900548D01*
X170050991Y-77890160D01*
X170072072Y-77883764D01*
X170100140Y-77881000D01*
X171913860Y-77881000D01*
X171941928Y-77883764D01*
G37*
G36*
X176891928Y-77883764D02*
G01*
X176913009Y-77890160D01*
X176932445Y-77900548D01*
X176949476Y-77914524D01*
X176963452Y-77931555D01*
X176973840Y-77950991D01*
X176980236Y-77972072D01*
X176983000Y-78000140D01*
X176983000Y-78463860D01*
X176980236Y-78491928D01*
X176973840Y-78513009D01*
X176963452Y-78532445D01*
X176949476Y-78549476D01*
X176932445Y-78563452D01*
X176913009Y-78573840D01*
X176891928Y-78580236D01*
X176863860Y-78583000D01*
X175050140Y-78583000D01*
X175022072Y-78580236D01*
X175000991Y-78573840D01*
X174981555Y-78563452D01*
X174964524Y-78549476D01*
X174950548Y-78532445D01*
X174940160Y-78513009D01*
X174933764Y-78491928D01*
X174931000Y-78463860D01*
X174931000Y-78000140D01*
X174933764Y-77972072D01*
X174940160Y-77950991D01*
X174950548Y-77931555D01*
X174964524Y-77914524D01*
X174981555Y-77900548D01*
X175000991Y-77890160D01*
X175022072Y-77883764D01*
X175050140Y-77881000D01*
X176863860Y-77881000D01*
X176891928Y-77883764D01*
G37*
G36*
X181495000Y-78371000D02*
G01*
X179693000Y-78371000D01*
X179693000Y-76569000D01*
X181495000Y-76569000D01*
X181495000Y-78371000D01*
G37*
G36*
X186992585Y-74424802D02*
G01*
X187142410Y-74454604D01*
X187424674Y-74571521D01*
X187678705Y-74741259D01*
X187894741Y-74957295D01*
X188064479Y-75211326D01*
X188181396Y-75493590D01*
X188241000Y-75793240D01*
X188241000Y-76098760D01*
X188181396Y-76398410D01*
X188064479Y-76680674D01*
X187894741Y-76934705D01*
X187678705Y-77150741D01*
X187424674Y-77320479D01*
X187142410Y-77437396D01*
X186992585Y-77467198D01*
X186842761Y-77497000D01*
X186537239Y-77497000D01*
X186387415Y-77467198D01*
X186237590Y-77437396D01*
X185955326Y-77320479D01*
X185701295Y-77150741D01*
X185485259Y-76934705D01*
X185315521Y-76680674D01*
X185198604Y-76398410D01*
X185139000Y-76098760D01*
X185139000Y-75793240D01*
X185198604Y-75493590D01*
X185315521Y-75211326D01*
X185485259Y-74957295D01*
X185701295Y-74741259D01*
X185955326Y-74571521D01*
X186237590Y-74454604D01*
X186387415Y-74424802D01*
X186537239Y-74395000D01*
X186842761Y-74395000D01*
X186992585Y-74424802D01*
G37*
G36*
X171941928Y-76613764D02*
G01*
X171963009Y-76620160D01*
X171982445Y-76630548D01*
X171999476Y-76644524D01*
X172013452Y-76661555D01*
X172023840Y-76680991D01*
X172030236Y-76702072D01*
X172033000Y-76730140D01*
X172033000Y-77193860D01*
X172030236Y-77221928D01*
X172023840Y-77243009D01*
X172013452Y-77262445D01*
X171999476Y-77279476D01*
X171982445Y-77293452D01*
X171963009Y-77303840D01*
X171941928Y-77310236D01*
X171913860Y-77313000D01*
X170100140Y-77313000D01*
X170072072Y-77310236D01*
X170050991Y-77303840D01*
X170031555Y-77293452D01*
X170014524Y-77279476D01*
X170000548Y-77262445D01*
X169990160Y-77243009D01*
X169983764Y-77221928D01*
X169981000Y-77193860D01*
X169981000Y-76730140D01*
X169983764Y-76702072D01*
X169990160Y-76680991D01*
X170000548Y-76661555D01*
X170014524Y-76644524D01*
X170031555Y-76630548D01*
X170050991Y-76620160D01*
X170072072Y-76613764D01*
X170100140Y-76611000D01*
X171913860Y-76611000D01*
X171941928Y-76613764D01*
G37*
G36*
X176891928Y-76613764D02*
G01*
X176913009Y-76620160D01*
X176932445Y-76630548D01*
X176949476Y-76644524D01*
X176963452Y-76661555D01*
X176973840Y-76680991D01*
X176980236Y-76702072D01*
X176983000Y-76730140D01*
X176983000Y-77193860D01*
X176980236Y-77221928D01*
X176973840Y-77243009D01*
X176963452Y-77262445D01*
X176949476Y-77279476D01*
X176932445Y-77293452D01*
X176913009Y-77303840D01*
X176891928Y-77310236D01*
X176863860Y-77313000D01*
X175050140Y-77313000D01*
X175022072Y-77310236D01*
X175000991Y-77303840D01*
X174981555Y-77293452D01*
X174964524Y-77279476D01*
X174950548Y-77262445D01*
X174940160Y-77243009D01*
X174933764Y-77221928D01*
X174931000Y-77193860D01*
X174931000Y-76730140D01*
X174933764Y-76702072D01*
X174940160Y-76680991D01*
X174950548Y-76661555D01*
X174964524Y-76644524D01*
X174981555Y-76630548D01*
X175000991Y-76620160D01*
X175022072Y-76613764D01*
X175050140Y-76611000D01*
X176863860Y-76611000D01*
X176891928Y-76613764D01*
G37*
G36*
X180707512Y-74033927D02*
G01*
X180856812Y-74063624D01*
X181020784Y-74131544D01*
X181168354Y-74230147D01*
X181293853Y-74355646D01*
X181392456Y-74503216D01*
X181460376Y-74667188D01*
X181486661Y-74799337D01*
X181492120Y-74826777D01*
X181495000Y-74841259D01*
X181495000Y-75018741D01*
X181460376Y-75192812D01*
X181392456Y-75356784D01*
X181293853Y-75504354D01*
X181168354Y-75629853D01*
X181020784Y-75728456D01*
X180856812Y-75796376D01*
X180707512Y-75826073D01*
X180682742Y-75831000D01*
X180505258Y-75831000D01*
X180480488Y-75826073D01*
X180331188Y-75796376D01*
X180167216Y-75728456D01*
X180019646Y-75629853D01*
X179894147Y-75504354D01*
X179795544Y-75356784D01*
X179727624Y-75192812D01*
X179693000Y-75018741D01*
X179693000Y-74841259D01*
X179695881Y-74826777D01*
X179701339Y-74799337D01*
X179727624Y-74667188D01*
X179795544Y-74503216D01*
X179894147Y-74355646D01*
X180019646Y-74230147D01*
X180167216Y-74131544D01*
X180331188Y-74063624D01*
X180480488Y-74033927D01*
X180505258Y-74029000D01*
X180682742Y-74029000D01*
X180707512Y-74033927D01*
G37*
G36*
X173267468Y-73421565D02*
G01*
X173306138Y-73433296D01*
X173341777Y-73452346D01*
X173373017Y-73477983D01*
X173398654Y-73509223D01*
X173417704Y-73544862D01*
X173429435Y-73583532D01*
X173434000Y-73629888D01*
X173434000Y-74706112D01*
X173429435Y-74752468D01*
X173417704Y-74791138D01*
X173398654Y-74826777D01*
X173373017Y-74858017D01*
X173341777Y-74883654D01*
X173306138Y-74902704D01*
X173267468Y-74914435D01*
X173221112Y-74919000D01*
X172569888Y-74919000D01*
X172523532Y-74914435D01*
X172484862Y-74902704D01*
X172449223Y-74883654D01*
X172417983Y-74858017D01*
X172392346Y-74826777D01*
X172373296Y-74791138D01*
X172361565Y-74752468D01*
X172357000Y-74706112D01*
X172357000Y-73629888D01*
X172361565Y-73583532D01*
X172373296Y-73544862D01*
X172392346Y-73509223D01*
X172417983Y-73477983D01*
X172449223Y-73452346D01*
X172484862Y-73433296D01*
X172523532Y-73421565D01*
X172569888Y-73417000D01*
X173221112Y-73417000D01*
X173267468Y-73421565D01*
G37*
G36*
X171392468Y-73421565D02*
G01*
X171431138Y-73433296D01*
X171466777Y-73452346D01*
X171498017Y-73477983D01*
X171523654Y-73509223D01*
X171542704Y-73544862D01*
X171554435Y-73583532D01*
X171559000Y-73629888D01*
X171559000Y-74706112D01*
X171554435Y-74752468D01*
X171542704Y-74791138D01*
X171523654Y-74826777D01*
X171498017Y-74858017D01*
X171466777Y-74883654D01*
X171431138Y-74902704D01*
X171392468Y-74914435D01*
X171346112Y-74919000D01*
X170694888Y-74919000D01*
X170648532Y-74914435D01*
X170609862Y-74902704D01*
X170574223Y-74883654D01*
X170542983Y-74858017D01*
X170517346Y-74826777D01*
X170498296Y-74791138D01*
X170486565Y-74752468D01*
X170482000Y-74706112D01*
X170482000Y-73629888D01*
X170486565Y-73583532D01*
X170498296Y-73544862D01*
X170517346Y-73509223D01*
X170542983Y-73477983D01*
X170574223Y-73452346D01*
X170609862Y-73433296D01*
X170648532Y-73421565D01*
X170694888Y-73417000D01*
X171346112Y-73417000D01*
X171392468Y-73421565D01*
G37*
G36*
X183436585Y-67312802D02*
G01*
X183586410Y-67342604D01*
X183868674Y-67459521D01*
X184122705Y-67629259D01*
X184338741Y-67845295D01*
X184508479Y-68099326D01*
X184625396Y-68381590D01*
X184685000Y-68681240D01*
X184685000Y-68986760D01*
X184625396Y-69286410D01*
X184508479Y-69568674D01*
X184338741Y-69822705D01*
X184122705Y-70038741D01*
X183868674Y-70208479D01*
X183586410Y-70325396D01*
X183436585Y-70355198D01*
X183286761Y-70385000D01*
X182981239Y-70385000D01*
X182831415Y-70355198D01*
X182681590Y-70325396D01*
X182399326Y-70208479D01*
X182145295Y-70038741D01*
X181929259Y-69822705D01*
X181759521Y-69568674D01*
X181642604Y-69286410D01*
X181583000Y-68986760D01*
X181583000Y-68681240D01*
X181642604Y-68381590D01*
X181759521Y-68099326D01*
X181929259Y-67845295D01*
X182145295Y-67629259D01*
X182399326Y-67459521D01*
X182681590Y-67342604D01*
X182831415Y-67312802D01*
X182981239Y-67283000D01*
X183286761Y-67283000D01*
X183436585Y-67312802D01*
G37*
G36*
X179605000Y-70385000D02*
G01*
X176503000Y-70385000D01*
X176503000Y-67283000D01*
X179605000Y-67283000D01*
X179605000Y-70385000D01*
G37*
G36*
X189605256Y-65193298D02*
G01*
X189711579Y-65214447D01*
X190012042Y-65338903D01*
X190282451Y-65519585D01*
X190512415Y-65749549D01*
X190693097Y-66019958D01*
X190817553Y-66320421D01*
X190881000Y-66639391D01*
X190881000Y-66964609D01*
X190817553Y-67283579D01*
X190693097Y-67584042D01*
X190512415Y-67854451D01*
X190282451Y-68084415D01*
X190012042Y-68265097D01*
X189711579Y-68389553D01*
X189605256Y-68410702D01*
X189392611Y-68453000D01*
X189067389Y-68453000D01*
X188854744Y-68410702D01*
X188748421Y-68389553D01*
X188447958Y-68265097D01*
X188177549Y-68084415D01*
X187947585Y-67854451D01*
X187766903Y-67584042D01*
X187642447Y-67283579D01*
X187579000Y-66964609D01*
X187579000Y-66639391D01*
X187642447Y-66320421D01*
X187766903Y-66019958D01*
X187947585Y-65749549D01*
X188177549Y-65519585D01*
X188447958Y-65338903D01*
X188748421Y-65214447D01*
X188854744Y-65193298D01*
X189067389Y-65151000D01*
X189392611Y-65151000D01*
X189605256Y-65193298D01*
G37*
G36*
X172079256Y-65193298D02*
G01*
X172185579Y-65214447D01*
X172486042Y-65338903D01*
X172756451Y-65519585D01*
X172986415Y-65749549D01*
X173167097Y-66019958D01*
X173291553Y-66320421D01*
X173355000Y-66639391D01*
X173355000Y-66964609D01*
X173291553Y-67283579D01*
X173167097Y-67584042D01*
X172986415Y-67854451D01*
X172756451Y-68084415D01*
X172486042Y-68265097D01*
X172185579Y-68389553D01*
X172079256Y-68410702D01*
X171866611Y-68453000D01*
X171541389Y-68453000D01*
X171328744Y-68410702D01*
X171222421Y-68389553D01*
X170921958Y-68265097D01*
X170651549Y-68084415D01*
X170421585Y-67854451D01*
X170240903Y-67584042D01*
X170116447Y-67283579D01*
X170053000Y-66964609D01*
X170053000Y-66639391D01*
X170116447Y-66320421D01*
X170240903Y-66019958D01*
X170421585Y-65749549D01*
X170651549Y-65519585D01*
X170921958Y-65338903D01*
X171222421Y-65214447D01*
X171328744Y-65193298D01*
X171541389Y-65151000D01*
X171866611Y-65151000D01*
X172079256Y-65193298D01*
G37*
M02*
