M48
; DRILL file {KiCad (5.1.5)-3} date 4/12/2020 11:52:42 AM
; FORMAT={-:-/ absolute / inch / decimal}
; #@! TF.CreationDate,2020-12-04T11:52:42+08:00
; #@! TF.GenerationSoftware,Kicad,Pcbnew,(5.1.5)-3
; #@! TF.FileFunction,Plated,1,2,PTH
FMAT,2
INCH
T1C0.0157
T2C0.0394
T3C0.0433
T4C0.0598
%
G90
G05
T1
X6.69Y-4.14
X6.7326Y-2.9874
X6.83Y-3.03
X6.83Y-3.08
X6.83Y-3.13
X6.84Y-3.29
X6.86Y-3.76
X6.99Y-4.07
X7.01Y-3.18
X7.01Y-3.35
T2
X7.12Y-4.51
X7.22Y-4.51
X7.11Y-3.45
X7.11Y-3.55
X6.74Y-4.46
X6.74Y-4.56
X6.84Y-4.46
X6.84Y-4.56
X6.94Y-4.46
X6.94Y-4.56
X7.11Y-2.95
X7.11Y-3.05
X7.11Y-3.2
X7.11Y-3.3
X7.11Y-4.19
X7.11Y-4.29
T3
X7.26Y-3.8428
X7.26Y-4.02
X7.5159Y-3.8428
X7.5159Y-4.02
X7.26Y-4.17
X7.26Y-4.3472
X7.5159Y-4.17
X7.5159Y-4.3472
T4
X7.01Y-2.71
X7.21Y-2.71
X7.35Y-3.44
X7.35Y-3.64
X7.35Y-2.99
X7.35Y-3.19
T0
M30
