G04 #@! TF.GenerationSoftware,KiCad,Pcbnew,(5.1.5)-3*
G04 #@! TF.CreationDate,2020-12-04T11:48:41+08:00*
G04 #@! TF.ProjectId,Clock PCB,436c6f63-6b20-4504-9342-2e6b69636164,rev?*
G04 #@! TF.SameCoordinates,Original*
G04 #@! TF.FileFunction,Copper,L1,Top*
G04 #@! TF.FilePolarity,Positive*
%FSLAX46Y46*%
G04 Gerber Fmt 4.6, Leading zero omitted, Abs format (unit mm)*
G04 Created by KiCad (PCBNEW (5.1.5)-3) date 2020-12-04 11:48:41*
%MOMM*%
%LPD*%
G04 APERTURE LIST*
%ADD10O,1.700000X1.700000*%
%ADD11R,1.700000X1.700000*%
%ADD12C,3.000000*%
%ADD13R,3.000000X3.000000*%
%ADD14C,2.000000*%
%ADD15C,0.800000*%
%ADD16C,0.500000*%
%ADD17C,2.000000*%
%ADD18C,0.254000*%
G04 APERTURE END LIST*
D10*
X180594000Y-74930000D03*
D11*
X180594000Y-77470000D03*
D10*
X180594000Y-106426000D03*
D11*
X180594000Y-108966000D03*
D10*
X180848000Y-114554000D03*
D11*
X183388000Y-114554000D03*
D12*
X186690000Y-75946000D03*
D13*
X186690000Y-81026000D03*
D10*
X180594000Y-87630000D03*
D11*
X180594000Y-90170000D03*
D10*
X180594000Y-81280000D03*
D11*
X180594000Y-83820000D03*
D14*
X190904000Y-105918000D03*
X190904000Y-110418000D03*
X184404000Y-105918000D03*
X184404000Y-110418000D03*
X184404000Y-102108000D03*
X184404000Y-97608000D03*
X190904000Y-102108000D03*
X190904000Y-97608000D03*
D12*
X186690000Y-92456000D03*
D13*
X186690000Y-87376000D03*
D10*
X171196000Y-115824000D03*
X171196000Y-113284000D03*
X173736000Y-115824000D03*
X173736000Y-113284000D03*
X176276000Y-115824000D03*
D11*
X176276000Y-113284000D03*
D12*
X183134000Y-68834000D03*
D13*
X178054000Y-68834000D03*
D15*
X178054000Y-85090000D03*
X173736000Y-83566000D03*
X177546000Y-103378000D03*
X169926000Y-105156000D03*
X178054000Y-80772000D03*
X174244000Y-95504000D03*
X171007000Y-75881000D03*
X173482000Y-76962000D03*
X173482000Y-78232000D03*
X173482000Y-79502000D03*
D16*
X177546000Y-103378000D02*
X177546000Y-103378000D01*
X177546000Y-95504000D02*
X177546000Y-103378000D01*
X177546000Y-103378000D02*
X180594000Y-106426000D01*
D17*
X183134000Y-77470000D02*
X186690000Y-81026000D01*
X183134000Y-68834000D02*
X183134000Y-77470000D01*
X186690000Y-81026000D02*
X186690000Y-87376000D01*
D16*
X189904001Y-101108001D02*
X190904000Y-102108000D01*
X189353999Y-100557999D02*
X189904001Y-101108001D01*
X186690000Y-89421998D02*
X189353999Y-92085997D01*
X189353999Y-92085997D02*
X189353999Y-100557999D01*
X186690000Y-87376000D02*
X186690000Y-89421998D01*
X176087000Y-75881000D02*
X183134000Y-68834000D01*
X171007000Y-75881000D02*
X176087000Y-75881000D01*
X172916315Y-76962000D02*
X173482000Y-76962000D01*
X171196000Y-78682315D02*
X172916315Y-76962000D01*
X171196000Y-113284000D02*
X171196000Y-78682315D01*
X172916315Y-78232000D02*
X173482000Y-78232000D01*
X172531999Y-78616316D02*
X172916315Y-78232000D01*
X172531999Y-112079999D02*
X172531999Y-78616316D01*
X173736000Y-113284000D02*
X172531999Y-112079999D01*
X179744001Y-82129999D02*
X180594000Y-81280000D01*
X179193999Y-82680001D02*
X179744001Y-82129999D01*
X179193999Y-90119999D02*
X179193999Y-82680001D01*
X179244000Y-90170000D02*
X179193999Y-90119999D01*
X180594000Y-90170000D02*
X179244000Y-90170000D01*
X181443999Y-88479999D02*
X180594000Y-87630000D01*
X181994001Y-89030001D02*
X181443999Y-88479999D01*
X181994001Y-110302003D02*
X181994001Y-89030001D01*
X183388000Y-111696002D02*
X181994001Y-110302003D01*
X183388000Y-114554000D02*
X183388000Y-111696002D01*
X176276000Y-82296000D02*
X176276000Y-113284000D01*
X173482000Y-79502000D02*
X176276000Y-82296000D01*
X189904001Y-111417999D02*
X190904000Y-110418000D01*
X185367999Y-115954001D02*
X189904001Y-111417999D01*
X178946001Y-115954001D02*
X185367999Y-115954001D01*
X176276000Y-113284000D02*
X178946001Y-115954001D01*
D18*
G36*
X192126001Y-96517762D02*
G01*
X191946252Y-96338013D01*
X191678463Y-96159082D01*
X191380912Y-96035832D01*
X191065033Y-95973000D01*
X190742967Y-95973000D01*
X190427088Y-96035832D01*
X190238999Y-96113741D01*
X190238999Y-92129466D01*
X190243280Y-92085997D01*
X190238999Y-92042528D01*
X190238999Y-92042520D01*
X190226194Y-91912507D01*
X190175588Y-91745683D01*
X190093410Y-91591938D01*
X190010531Y-91490950D01*
X190010529Y-91490948D01*
X189982816Y-91457180D01*
X189949049Y-91429468D01*
X188033652Y-89514072D01*
X188190000Y-89514072D01*
X188314482Y-89501812D01*
X188434180Y-89465502D01*
X188544494Y-89406537D01*
X188641185Y-89327185D01*
X188720537Y-89230494D01*
X188779502Y-89120180D01*
X188815812Y-89000482D01*
X188828072Y-88876000D01*
X188828072Y-85876000D01*
X188815812Y-85751518D01*
X188779502Y-85631820D01*
X188720537Y-85521506D01*
X188641185Y-85424815D01*
X188544494Y-85345463D01*
X188434180Y-85286498D01*
X188325000Y-85253379D01*
X188325000Y-83148621D01*
X188434180Y-83115502D01*
X188544494Y-83056537D01*
X188641185Y-82977185D01*
X188720537Y-82880494D01*
X188779502Y-82770180D01*
X188815812Y-82650482D01*
X188828072Y-82526000D01*
X188828072Y-79526000D01*
X188815812Y-79401518D01*
X188779502Y-79281820D01*
X188720537Y-79171506D01*
X188641185Y-79074815D01*
X188544494Y-78995463D01*
X188434180Y-78936498D01*
X188314482Y-78900188D01*
X188190000Y-78887928D01*
X186864167Y-78887928D01*
X185924773Y-77948535D01*
X186313551Y-78058044D01*
X186732824Y-78090902D01*
X187150451Y-78041334D01*
X187550383Y-77911243D01*
X187846038Y-77753214D01*
X188002048Y-77437653D01*
X186690000Y-76125605D01*
X186675858Y-76139748D01*
X186496253Y-75960143D01*
X186510395Y-75946000D01*
X186869605Y-75946000D01*
X188181653Y-77258048D01*
X188497214Y-77102038D01*
X188688020Y-76727255D01*
X188802044Y-76322449D01*
X188834902Y-75903176D01*
X188785334Y-75485549D01*
X188655243Y-75085617D01*
X188497214Y-74789962D01*
X188181653Y-74633952D01*
X186869605Y-75946000D01*
X186510395Y-75946000D01*
X185198347Y-74633952D01*
X184882786Y-74789962D01*
X184769000Y-75013462D01*
X184769000Y-74454347D01*
X185377952Y-74454347D01*
X186690000Y-75766395D01*
X188002048Y-74454347D01*
X187846038Y-74138786D01*
X187471255Y-73947980D01*
X187066449Y-73833956D01*
X186647176Y-73801098D01*
X186229549Y-73850666D01*
X185829617Y-73980757D01*
X185533962Y-74138786D01*
X185377952Y-74454347D01*
X184769000Y-74454347D01*
X184769000Y-70218346D01*
X184792363Y-70194983D01*
X185026012Y-69845302D01*
X185186953Y-69456756D01*
X185269000Y-69044279D01*
X185269000Y-68623721D01*
X185186953Y-68211244D01*
X185026012Y-67822698D01*
X184792363Y-67473017D01*
X184494983Y-67175637D01*
X184145302Y-66941988D01*
X183756756Y-66781047D01*
X183344279Y-66699000D01*
X182923721Y-66699000D01*
X182511244Y-66781047D01*
X182122698Y-66941988D01*
X181773017Y-67175637D01*
X181475637Y-67473017D01*
X181241988Y-67822698D01*
X181081047Y-68211244D01*
X180999000Y-68623721D01*
X180999000Y-69044279D01*
X181081047Y-69456756D01*
X181133363Y-69583058D01*
X180145793Y-70570629D01*
X180179812Y-70458482D01*
X180192072Y-70334000D01*
X180189000Y-69119750D01*
X180030250Y-68961000D01*
X178181000Y-68961000D01*
X178181000Y-70810250D01*
X178339750Y-70969000D01*
X179554000Y-70972072D01*
X179678482Y-70959812D01*
X179790629Y-70925793D01*
X175720422Y-74996000D01*
X171545454Y-74996000D01*
X171497256Y-74963795D01*
X171308898Y-74885774D01*
X171108939Y-74846000D01*
X170905061Y-74846000D01*
X170705102Y-74885774D01*
X170516744Y-74963795D01*
X170347226Y-75077063D01*
X170203063Y-75221226D01*
X170089795Y-75390744D01*
X170011774Y-75579102D01*
X169972000Y-75779061D01*
X169972000Y-75982939D01*
X170011774Y-76182898D01*
X170089795Y-76371256D01*
X170203063Y-76540774D01*
X170347226Y-76684937D01*
X170516744Y-76798205D01*
X170705102Y-76876226D01*
X170905061Y-76916000D01*
X171108939Y-76916000D01*
X171308898Y-76876226D01*
X171497256Y-76798205D01*
X171545454Y-76766000D01*
X171860736Y-76766000D01*
X170600951Y-78025786D01*
X170567184Y-78053498D01*
X170539471Y-78087266D01*
X170539468Y-78087269D01*
X170456590Y-78188256D01*
X170374412Y-78342002D01*
X170323805Y-78508825D01*
X170306719Y-78682315D01*
X170311001Y-78725794D01*
X170311000Y-112089344D01*
X170249368Y-112130525D01*
X170042525Y-112337368D01*
X169880010Y-112580589D01*
X169768068Y-112850842D01*
X169711000Y-113137740D01*
X169711000Y-113430260D01*
X169768068Y-113717158D01*
X169880010Y-113987411D01*
X170042525Y-114230632D01*
X170249368Y-114437475D01*
X170425406Y-114555100D01*
X170195731Y-114726412D01*
X170000822Y-114942645D01*
X169851843Y-115192748D01*
X169754519Y-115467109D01*
X169875186Y-115697000D01*
X171069000Y-115697000D01*
X171069000Y-115677000D01*
X171323000Y-115677000D01*
X171323000Y-115697000D01*
X171343000Y-115697000D01*
X171343000Y-115951000D01*
X171323000Y-115951000D01*
X171323000Y-117144155D01*
X171552890Y-117265476D01*
X171700099Y-117220825D01*
X171962920Y-117095641D01*
X172196269Y-116921588D01*
X172391178Y-116705355D01*
X172460805Y-116588466D01*
X172582525Y-116770632D01*
X172789368Y-116977475D01*
X173032589Y-117139990D01*
X173302842Y-117251932D01*
X173589740Y-117309000D01*
X173882260Y-117309000D01*
X174169158Y-117251932D01*
X174439411Y-117139990D01*
X174682632Y-116977475D01*
X174889475Y-116770632D01*
X175006000Y-116596240D01*
X175122525Y-116770632D01*
X175329368Y-116977475D01*
X175572589Y-117139990D01*
X175842842Y-117251932D01*
X176129740Y-117309000D01*
X176422260Y-117309000D01*
X176709158Y-117251932D01*
X176979411Y-117139990D01*
X177222632Y-116977475D01*
X177429475Y-116770632D01*
X177591990Y-116527411D01*
X177703932Y-116257158D01*
X177752652Y-116012230D01*
X178289471Y-116549050D01*
X178317184Y-116582818D01*
X178350952Y-116610531D01*
X178350954Y-116610533D01*
X178451942Y-116693412D01*
X178605687Y-116775590D01*
X178772511Y-116826196D01*
X178902524Y-116839001D01*
X178902532Y-116839001D01*
X178946001Y-116843282D01*
X178989470Y-116839001D01*
X185324530Y-116839001D01*
X185367999Y-116843282D01*
X185411468Y-116839001D01*
X185411476Y-116839001D01*
X185541489Y-116826196D01*
X185708312Y-116775590D01*
X185862058Y-116693412D01*
X185996816Y-116582818D01*
X186024533Y-116549045D01*
X190557475Y-112016104D01*
X190742967Y-112053000D01*
X191065033Y-112053000D01*
X191380912Y-111990168D01*
X191678463Y-111866918D01*
X191946252Y-111687987D01*
X192126001Y-111508238D01*
X192126001Y-124816000D01*
X168808000Y-124816000D01*
X168808000Y-121699872D01*
X169469000Y-121699872D01*
X169469000Y-122140128D01*
X169554890Y-122571925D01*
X169723369Y-122978669D01*
X169967962Y-123344729D01*
X170279271Y-123656038D01*
X170645331Y-123900631D01*
X171052075Y-124069110D01*
X171483872Y-124155000D01*
X171924128Y-124155000D01*
X172355925Y-124069110D01*
X172762669Y-123900631D01*
X173128729Y-123656038D01*
X173440038Y-123344729D01*
X173684631Y-122978669D01*
X173853110Y-122571925D01*
X173939000Y-122140128D01*
X173939000Y-121699872D01*
X186995000Y-121699872D01*
X186995000Y-122140128D01*
X187080890Y-122571925D01*
X187249369Y-122978669D01*
X187493962Y-123344729D01*
X187805271Y-123656038D01*
X188171331Y-123900631D01*
X188578075Y-124069110D01*
X189009872Y-124155000D01*
X189450128Y-124155000D01*
X189881925Y-124069110D01*
X190288669Y-123900631D01*
X190654729Y-123656038D01*
X190966038Y-123344729D01*
X191210631Y-122978669D01*
X191379110Y-122571925D01*
X191465000Y-122140128D01*
X191465000Y-121699872D01*
X191379110Y-121268075D01*
X191210631Y-120861331D01*
X190966038Y-120495271D01*
X190654729Y-120183962D01*
X190288669Y-119939369D01*
X189881925Y-119770890D01*
X189450128Y-119685000D01*
X189009872Y-119685000D01*
X188578075Y-119770890D01*
X188171331Y-119939369D01*
X187805271Y-120183962D01*
X187493962Y-120495271D01*
X187249369Y-120861331D01*
X187080890Y-121268075D01*
X186995000Y-121699872D01*
X173939000Y-121699872D01*
X173853110Y-121268075D01*
X173684631Y-120861331D01*
X173440038Y-120495271D01*
X173128729Y-120183962D01*
X172762669Y-119939369D01*
X172355925Y-119770890D01*
X171924128Y-119685000D01*
X171483872Y-119685000D01*
X171052075Y-119770890D01*
X170645331Y-119939369D01*
X170279271Y-120183962D01*
X169967962Y-120495271D01*
X169723369Y-120861331D01*
X169554890Y-121268075D01*
X169469000Y-121699872D01*
X168808000Y-121699872D01*
X168808000Y-116180891D01*
X169754519Y-116180891D01*
X169851843Y-116455252D01*
X170000822Y-116705355D01*
X170195731Y-116921588D01*
X170429080Y-117095641D01*
X170691901Y-117220825D01*
X170839110Y-117265476D01*
X171069000Y-117144155D01*
X171069000Y-115951000D01*
X169875186Y-115951000D01*
X169754519Y-116180891D01*
X168808000Y-116180891D01*
X168808000Y-70334000D01*
X175915928Y-70334000D01*
X175928188Y-70458482D01*
X175964498Y-70578180D01*
X176023463Y-70688494D01*
X176102815Y-70785185D01*
X176199506Y-70864537D01*
X176309820Y-70923502D01*
X176429518Y-70959812D01*
X176554000Y-70972072D01*
X177768250Y-70969000D01*
X177927000Y-70810250D01*
X177927000Y-68961000D01*
X176077750Y-68961000D01*
X175919000Y-69119750D01*
X175915928Y-70334000D01*
X168808000Y-70334000D01*
X168808000Y-66581872D01*
X169469000Y-66581872D01*
X169469000Y-67022128D01*
X169554890Y-67453925D01*
X169723369Y-67860669D01*
X169967962Y-68226729D01*
X170279271Y-68538038D01*
X170645331Y-68782631D01*
X171052075Y-68951110D01*
X171483872Y-69037000D01*
X171924128Y-69037000D01*
X172355925Y-68951110D01*
X172762669Y-68782631D01*
X173128729Y-68538038D01*
X173440038Y-68226729D01*
X173684631Y-67860669D01*
X173853110Y-67453925D01*
X173876964Y-67334000D01*
X175915928Y-67334000D01*
X175919000Y-68548250D01*
X176077750Y-68707000D01*
X177927000Y-68707000D01*
X177927000Y-66857750D01*
X178181000Y-66857750D01*
X178181000Y-68707000D01*
X180030250Y-68707000D01*
X180189000Y-68548250D01*
X180192072Y-67334000D01*
X180179812Y-67209518D01*
X180143502Y-67089820D01*
X180084537Y-66979506D01*
X180005185Y-66882815D01*
X179908494Y-66803463D01*
X179798180Y-66744498D01*
X179678482Y-66708188D01*
X179554000Y-66695928D01*
X178339750Y-66699000D01*
X178181000Y-66857750D01*
X177927000Y-66857750D01*
X177768250Y-66699000D01*
X176554000Y-66695928D01*
X176429518Y-66708188D01*
X176309820Y-66744498D01*
X176199506Y-66803463D01*
X176102815Y-66882815D01*
X176023463Y-66979506D01*
X175964498Y-67089820D01*
X175928188Y-67209518D01*
X175915928Y-67334000D01*
X173876964Y-67334000D01*
X173939000Y-67022128D01*
X173939000Y-66581872D01*
X186995000Y-66581872D01*
X186995000Y-67022128D01*
X187080890Y-67453925D01*
X187249369Y-67860669D01*
X187493962Y-68226729D01*
X187805271Y-68538038D01*
X188171331Y-68782631D01*
X188578075Y-68951110D01*
X189009872Y-69037000D01*
X189450128Y-69037000D01*
X189881925Y-68951110D01*
X190288669Y-68782631D01*
X190654729Y-68538038D01*
X190966038Y-68226729D01*
X191210631Y-67860669D01*
X191379110Y-67453925D01*
X191465000Y-67022128D01*
X191465000Y-66581872D01*
X191379110Y-66150075D01*
X191210631Y-65743331D01*
X190966038Y-65377271D01*
X190654729Y-65065962D01*
X190288669Y-64821369D01*
X189881925Y-64652890D01*
X189450128Y-64567000D01*
X189009872Y-64567000D01*
X188578075Y-64652890D01*
X188171331Y-64821369D01*
X187805271Y-65065962D01*
X187493962Y-65377271D01*
X187249369Y-65743331D01*
X187080890Y-66150075D01*
X186995000Y-66581872D01*
X173939000Y-66581872D01*
X173853110Y-66150075D01*
X173684631Y-65743331D01*
X173440038Y-65377271D01*
X173128729Y-65065962D01*
X172762669Y-64821369D01*
X172355925Y-64652890D01*
X171924128Y-64567000D01*
X171483872Y-64567000D01*
X171052075Y-64652890D01*
X170645331Y-64821369D01*
X170279271Y-65065962D01*
X169967962Y-65377271D01*
X169723369Y-65743331D01*
X169554890Y-66150075D01*
X169469000Y-66581872D01*
X168808000Y-66581872D01*
X168808000Y-63906000D01*
X192126000Y-63906000D01*
X192126001Y-96517762D01*
G37*
X192126001Y-96517762D02*
X191946252Y-96338013D01*
X191678463Y-96159082D01*
X191380912Y-96035832D01*
X191065033Y-95973000D01*
X190742967Y-95973000D01*
X190427088Y-96035832D01*
X190238999Y-96113741D01*
X190238999Y-92129466D01*
X190243280Y-92085997D01*
X190238999Y-92042528D01*
X190238999Y-92042520D01*
X190226194Y-91912507D01*
X190175588Y-91745683D01*
X190093410Y-91591938D01*
X190010531Y-91490950D01*
X190010529Y-91490948D01*
X189982816Y-91457180D01*
X189949049Y-91429468D01*
X188033652Y-89514072D01*
X188190000Y-89514072D01*
X188314482Y-89501812D01*
X188434180Y-89465502D01*
X188544494Y-89406537D01*
X188641185Y-89327185D01*
X188720537Y-89230494D01*
X188779502Y-89120180D01*
X188815812Y-89000482D01*
X188828072Y-88876000D01*
X188828072Y-85876000D01*
X188815812Y-85751518D01*
X188779502Y-85631820D01*
X188720537Y-85521506D01*
X188641185Y-85424815D01*
X188544494Y-85345463D01*
X188434180Y-85286498D01*
X188325000Y-85253379D01*
X188325000Y-83148621D01*
X188434180Y-83115502D01*
X188544494Y-83056537D01*
X188641185Y-82977185D01*
X188720537Y-82880494D01*
X188779502Y-82770180D01*
X188815812Y-82650482D01*
X188828072Y-82526000D01*
X188828072Y-79526000D01*
X188815812Y-79401518D01*
X188779502Y-79281820D01*
X188720537Y-79171506D01*
X188641185Y-79074815D01*
X188544494Y-78995463D01*
X188434180Y-78936498D01*
X188314482Y-78900188D01*
X188190000Y-78887928D01*
X186864167Y-78887928D01*
X185924773Y-77948535D01*
X186313551Y-78058044D01*
X186732824Y-78090902D01*
X187150451Y-78041334D01*
X187550383Y-77911243D01*
X187846038Y-77753214D01*
X188002048Y-77437653D01*
X186690000Y-76125605D01*
X186675858Y-76139748D01*
X186496253Y-75960143D01*
X186510395Y-75946000D01*
X186869605Y-75946000D01*
X188181653Y-77258048D01*
X188497214Y-77102038D01*
X188688020Y-76727255D01*
X188802044Y-76322449D01*
X188834902Y-75903176D01*
X188785334Y-75485549D01*
X188655243Y-75085617D01*
X188497214Y-74789962D01*
X188181653Y-74633952D01*
X186869605Y-75946000D01*
X186510395Y-75946000D01*
X185198347Y-74633952D01*
X184882786Y-74789962D01*
X184769000Y-75013462D01*
X184769000Y-74454347D01*
X185377952Y-74454347D01*
X186690000Y-75766395D01*
X188002048Y-74454347D01*
X187846038Y-74138786D01*
X187471255Y-73947980D01*
X187066449Y-73833956D01*
X186647176Y-73801098D01*
X186229549Y-73850666D01*
X185829617Y-73980757D01*
X185533962Y-74138786D01*
X185377952Y-74454347D01*
X184769000Y-74454347D01*
X184769000Y-70218346D01*
X184792363Y-70194983D01*
X185026012Y-69845302D01*
X185186953Y-69456756D01*
X185269000Y-69044279D01*
X185269000Y-68623721D01*
X185186953Y-68211244D01*
X185026012Y-67822698D01*
X184792363Y-67473017D01*
X184494983Y-67175637D01*
X184145302Y-66941988D01*
X183756756Y-66781047D01*
X183344279Y-66699000D01*
X182923721Y-66699000D01*
X182511244Y-66781047D01*
X182122698Y-66941988D01*
X181773017Y-67175637D01*
X181475637Y-67473017D01*
X181241988Y-67822698D01*
X181081047Y-68211244D01*
X180999000Y-68623721D01*
X180999000Y-69044279D01*
X181081047Y-69456756D01*
X181133363Y-69583058D01*
X180145793Y-70570629D01*
X180179812Y-70458482D01*
X180192072Y-70334000D01*
X180189000Y-69119750D01*
X180030250Y-68961000D01*
X178181000Y-68961000D01*
X178181000Y-70810250D01*
X178339750Y-70969000D01*
X179554000Y-70972072D01*
X179678482Y-70959812D01*
X179790629Y-70925793D01*
X175720422Y-74996000D01*
X171545454Y-74996000D01*
X171497256Y-74963795D01*
X171308898Y-74885774D01*
X171108939Y-74846000D01*
X170905061Y-74846000D01*
X170705102Y-74885774D01*
X170516744Y-74963795D01*
X170347226Y-75077063D01*
X170203063Y-75221226D01*
X170089795Y-75390744D01*
X170011774Y-75579102D01*
X169972000Y-75779061D01*
X169972000Y-75982939D01*
X170011774Y-76182898D01*
X170089795Y-76371256D01*
X170203063Y-76540774D01*
X170347226Y-76684937D01*
X170516744Y-76798205D01*
X170705102Y-76876226D01*
X170905061Y-76916000D01*
X171108939Y-76916000D01*
X171308898Y-76876226D01*
X171497256Y-76798205D01*
X171545454Y-76766000D01*
X171860736Y-76766000D01*
X170600951Y-78025786D01*
X170567184Y-78053498D01*
X170539471Y-78087266D01*
X170539468Y-78087269D01*
X170456590Y-78188256D01*
X170374412Y-78342002D01*
X170323805Y-78508825D01*
X170306719Y-78682315D01*
X170311001Y-78725794D01*
X170311000Y-112089344D01*
X170249368Y-112130525D01*
X170042525Y-112337368D01*
X169880010Y-112580589D01*
X169768068Y-112850842D01*
X169711000Y-113137740D01*
X169711000Y-113430260D01*
X169768068Y-113717158D01*
X169880010Y-113987411D01*
X170042525Y-114230632D01*
X170249368Y-114437475D01*
X170425406Y-114555100D01*
X170195731Y-114726412D01*
X170000822Y-114942645D01*
X169851843Y-115192748D01*
X169754519Y-115467109D01*
X169875186Y-115697000D01*
X171069000Y-115697000D01*
X171069000Y-115677000D01*
X171323000Y-115677000D01*
X171323000Y-115697000D01*
X171343000Y-115697000D01*
X171343000Y-115951000D01*
X171323000Y-115951000D01*
X171323000Y-117144155D01*
X171552890Y-117265476D01*
X171700099Y-117220825D01*
X171962920Y-117095641D01*
X172196269Y-116921588D01*
X172391178Y-116705355D01*
X172460805Y-116588466D01*
X172582525Y-116770632D01*
X172789368Y-116977475D01*
X173032589Y-117139990D01*
X173302842Y-117251932D01*
X173589740Y-117309000D01*
X173882260Y-117309000D01*
X174169158Y-117251932D01*
X174439411Y-117139990D01*
X174682632Y-116977475D01*
X174889475Y-116770632D01*
X175006000Y-116596240D01*
X175122525Y-116770632D01*
X175329368Y-116977475D01*
X175572589Y-117139990D01*
X175842842Y-117251932D01*
X176129740Y-117309000D01*
X176422260Y-117309000D01*
X176709158Y-117251932D01*
X176979411Y-117139990D01*
X177222632Y-116977475D01*
X177429475Y-116770632D01*
X177591990Y-116527411D01*
X177703932Y-116257158D01*
X177752652Y-116012230D01*
X178289471Y-116549050D01*
X178317184Y-116582818D01*
X178350952Y-116610531D01*
X178350954Y-116610533D01*
X178451942Y-116693412D01*
X178605687Y-116775590D01*
X178772511Y-116826196D01*
X178902524Y-116839001D01*
X178902532Y-116839001D01*
X178946001Y-116843282D01*
X178989470Y-116839001D01*
X185324530Y-116839001D01*
X185367999Y-116843282D01*
X185411468Y-116839001D01*
X185411476Y-116839001D01*
X185541489Y-116826196D01*
X185708312Y-116775590D01*
X185862058Y-116693412D01*
X185996816Y-116582818D01*
X186024533Y-116549045D01*
X190557475Y-112016104D01*
X190742967Y-112053000D01*
X191065033Y-112053000D01*
X191380912Y-111990168D01*
X191678463Y-111866918D01*
X191946252Y-111687987D01*
X192126001Y-111508238D01*
X192126001Y-124816000D01*
X168808000Y-124816000D01*
X168808000Y-121699872D01*
X169469000Y-121699872D01*
X169469000Y-122140128D01*
X169554890Y-122571925D01*
X169723369Y-122978669D01*
X169967962Y-123344729D01*
X170279271Y-123656038D01*
X170645331Y-123900631D01*
X171052075Y-124069110D01*
X171483872Y-124155000D01*
X171924128Y-124155000D01*
X172355925Y-124069110D01*
X172762669Y-123900631D01*
X173128729Y-123656038D01*
X173440038Y-123344729D01*
X173684631Y-122978669D01*
X173853110Y-122571925D01*
X173939000Y-122140128D01*
X173939000Y-121699872D01*
X186995000Y-121699872D01*
X186995000Y-122140128D01*
X187080890Y-122571925D01*
X187249369Y-122978669D01*
X187493962Y-123344729D01*
X187805271Y-123656038D01*
X188171331Y-123900631D01*
X188578075Y-124069110D01*
X189009872Y-124155000D01*
X189450128Y-124155000D01*
X189881925Y-124069110D01*
X190288669Y-123900631D01*
X190654729Y-123656038D01*
X190966038Y-123344729D01*
X191210631Y-122978669D01*
X191379110Y-122571925D01*
X191465000Y-122140128D01*
X191465000Y-121699872D01*
X191379110Y-121268075D01*
X191210631Y-120861331D01*
X190966038Y-120495271D01*
X190654729Y-120183962D01*
X190288669Y-119939369D01*
X189881925Y-119770890D01*
X189450128Y-119685000D01*
X189009872Y-119685000D01*
X188578075Y-119770890D01*
X188171331Y-119939369D01*
X187805271Y-120183962D01*
X187493962Y-120495271D01*
X187249369Y-120861331D01*
X187080890Y-121268075D01*
X186995000Y-121699872D01*
X173939000Y-121699872D01*
X173853110Y-121268075D01*
X173684631Y-120861331D01*
X173440038Y-120495271D01*
X173128729Y-120183962D01*
X172762669Y-119939369D01*
X172355925Y-119770890D01*
X171924128Y-119685000D01*
X171483872Y-119685000D01*
X171052075Y-119770890D01*
X170645331Y-119939369D01*
X170279271Y-120183962D01*
X169967962Y-120495271D01*
X169723369Y-120861331D01*
X169554890Y-121268075D01*
X169469000Y-121699872D01*
X168808000Y-121699872D01*
X168808000Y-116180891D01*
X169754519Y-116180891D01*
X169851843Y-116455252D01*
X170000822Y-116705355D01*
X170195731Y-116921588D01*
X170429080Y-117095641D01*
X170691901Y-117220825D01*
X170839110Y-117265476D01*
X171069000Y-117144155D01*
X171069000Y-115951000D01*
X169875186Y-115951000D01*
X169754519Y-116180891D01*
X168808000Y-116180891D01*
X168808000Y-70334000D01*
X175915928Y-70334000D01*
X175928188Y-70458482D01*
X175964498Y-70578180D01*
X176023463Y-70688494D01*
X176102815Y-70785185D01*
X176199506Y-70864537D01*
X176309820Y-70923502D01*
X176429518Y-70959812D01*
X176554000Y-70972072D01*
X177768250Y-70969000D01*
X177927000Y-70810250D01*
X177927000Y-68961000D01*
X176077750Y-68961000D01*
X175919000Y-69119750D01*
X175915928Y-70334000D01*
X168808000Y-70334000D01*
X168808000Y-66581872D01*
X169469000Y-66581872D01*
X169469000Y-67022128D01*
X169554890Y-67453925D01*
X169723369Y-67860669D01*
X169967962Y-68226729D01*
X170279271Y-68538038D01*
X170645331Y-68782631D01*
X171052075Y-68951110D01*
X171483872Y-69037000D01*
X171924128Y-69037000D01*
X172355925Y-68951110D01*
X172762669Y-68782631D01*
X173128729Y-68538038D01*
X173440038Y-68226729D01*
X173684631Y-67860669D01*
X173853110Y-67453925D01*
X173876964Y-67334000D01*
X175915928Y-67334000D01*
X175919000Y-68548250D01*
X176077750Y-68707000D01*
X177927000Y-68707000D01*
X177927000Y-66857750D01*
X178181000Y-66857750D01*
X178181000Y-68707000D01*
X180030250Y-68707000D01*
X180189000Y-68548250D01*
X180192072Y-67334000D01*
X180179812Y-67209518D01*
X180143502Y-67089820D01*
X180084537Y-66979506D01*
X180005185Y-66882815D01*
X179908494Y-66803463D01*
X179798180Y-66744498D01*
X179678482Y-66708188D01*
X179554000Y-66695928D01*
X178339750Y-66699000D01*
X178181000Y-66857750D01*
X177927000Y-66857750D01*
X177768250Y-66699000D01*
X176554000Y-66695928D01*
X176429518Y-66708188D01*
X176309820Y-66744498D01*
X176199506Y-66803463D01*
X176102815Y-66882815D01*
X176023463Y-66979506D01*
X175964498Y-67089820D01*
X175928188Y-67209518D01*
X175915928Y-67334000D01*
X173876964Y-67334000D01*
X173939000Y-67022128D01*
X173939000Y-66581872D01*
X186995000Y-66581872D01*
X186995000Y-67022128D01*
X187080890Y-67453925D01*
X187249369Y-67860669D01*
X187493962Y-68226729D01*
X187805271Y-68538038D01*
X188171331Y-68782631D01*
X188578075Y-68951110D01*
X189009872Y-69037000D01*
X189450128Y-69037000D01*
X189881925Y-68951110D01*
X190288669Y-68782631D01*
X190654729Y-68538038D01*
X190966038Y-68226729D01*
X191210631Y-67860669D01*
X191379110Y-67453925D01*
X191465000Y-67022128D01*
X191465000Y-66581872D01*
X191379110Y-66150075D01*
X191210631Y-65743331D01*
X190966038Y-65377271D01*
X190654729Y-65065962D01*
X190288669Y-64821369D01*
X189881925Y-64652890D01*
X189450128Y-64567000D01*
X189009872Y-64567000D01*
X188578075Y-64652890D01*
X188171331Y-64821369D01*
X187805271Y-65065962D01*
X187493962Y-65377271D01*
X187249369Y-65743331D01*
X187080890Y-66150075D01*
X186995000Y-66581872D01*
X173939000Y-66581872D01*
X173853110Y-66150075D01*
X173684631Y-65743331D01*
X173440038Y-65377271D01*
X173128729Y-65065962D01*
X172762669Y-64821369D01*
X172355925Y-64652890D01*
X171924128Y-64567000D01*
X171483872Y-64567000D01*
X171052075Y-64652890D01*
X170645331Y-64821369D01*
X170279271Y-65065962D01*
X169967962Y-65377271D01*
X169723369Y-65743331D01*
X169554890Y-66150075D01*
X169469000Y-66581872D01*
X168808000Y-66581872D01*
X168808000Y-63906000D01*
X192126000Y-63906000D01*
X192126001Y-96517762D01*
G36*
X181499001Y-73748708D02*
G01*
X181297411Y-73614010D01*
X181027158Y-73502068D01*
X180740260Y-73445000D01*
X180447740Y-73445000D01*
X180160842Y-73502068D01*
X179890589Y-73614010D01*
X179647368Y-73776525D01*
X179440525Y-73983368D01*
X179278010Y-74226589D01*
X179166068Y-74496842D01*
X179109000Y-74783740D01*
X179109000Y-75076260D01*
X179166068Y-75363158D01*
X179278010Y-75633411D01*
X179440525Y-75876632D01*
X179572380Y-76008487D01*
X179499820Y-76030498D01*
X179389506Y-76089463D01*
X179292815Y-76168815D01*
X179213463Y-76265506D01*
X179154498Y-76375820D01*
X179118188Y-76495518D01*
X179105928Y-76620000D01*
X179105928Y-78320000D01*
X179118188Y-78444482D01*
X179154498Y-78564180D01*
X179213463Y-78674494D01*
X179292815Y-78771185D01*
X179389506Y-78850537D01*
X179499820Y-78909502D01*
X179619518Y-78945812D01*
X179744000Y-78958072D01*
X181444000Y-78958072D01*
X181568482Y-78945812D01*
X181688180Y-78909502D01*
X181798494Y-78850537D01*
X181895185Y-78771185D01*
X181974537Y-78674494D01*
X181989745Y-78646042D01*
X182034682Y-78682920D01*
X184551928Y-81200167D01*
X184551928Y-82526000D01*
X184564188Y-82650482D01*
X184600498Y-82770180D01*
X184659463Y-82880494D01*
X184738815Y-82977185D01*
X184835506Y-83056537D01*
X184945820Y-83115502D01*
X185055000Y-83148622D01*
X185055001Y-85253378D01*
X184945820Y-85286498D01*
X184835506Y-85345463D01*
X184738815Y-85424815D01*
X184659463Y-85521506D01*
X184600498Y-85631820D01*
X184564188Y-85751518D01*
X184551928Y-85876000D01*
X184551928Y-88876000D01*
X184564188Y-89000482D01*
X184600498Y-89120180D01*
X184659463Y-89230494D01*
X184738815Y-89327185D01*
X184835506Y-89406537D01*
X184945820Y-89465502D01*
X185065518Y-89501812D01*
X185190000Y-89514072D01*
X185809787Y-89514072D01*
X185817805Y-89595488D01*
X185868412Y-89762311D01*
X185950590Y-89916057D01*
X186033468Y-90017044D01*
X186033471Y-90017047D01*
X186061184Y-90050815D01*
X186094951Y-90078527D01*
X186361436Y-90345012D01*
X186229549Y-90360666D01*
X185829617Y-90490757D01*
X185533962Y-90648786D01*
X185377952Y-90964347D01*
X186690000Y-92276395D01*
X186704143Y-92262253D01*
X186883748Y-92441858D01*
X186869605Y-92456000D01*
X188181653Y-93768048D01*
X188468999Y-93625987D01*
X188469000Y-100514520D01*
X188464718Y-100557999D01*
X188481804Y-100731489D01*
X188532411Y-100898312D01*
X188614589Y-101052058D01*
X188697467Y-101153045D01*
X188697470Y-101153048D01*
X188725183Y-101186816D01*
X188758951Y-101214529D01*
X189305897Y-101761475D01*
X189269000Y-101946967D01*
X189269000Y-102269033D01*
X189331832Y-102584912D01*
X189455082Y-102882463D01*
X189634013Y-103150252D01*
X189861748Y-103377987D01*
X190129537Y-103556918D01*
X190427088Y-103680168D01*
X190742967Y-103743000D01*
X191065033Y-103743000D01*
X191380912Y-103680168D01*
X191678463Y-103556918D01*
X191946252Y-103377987D01*
X192126001Y-103198238D01*
X192126001Y-104827762D01*
X191946252Y-104648013D01*
X191678463Y-104469082D01*
X191380912Y-104345832D01*
X191065033Y-104283000D01*
X190742967Y-104283000D01*
X190427088Y-104345832D01*
X190129537Y-104469082D01*
X189861748Y-104648013D01*
X189634013Y-104875748D01*
X189455082Y-105143537D01*
X189331832Y-105441088D01*
X189269000Y-105756967D01*
X189269000Y-106079033D01*
X189331832Y-106394912D01*
X189455082Y-106692463D01*
X189634013Y-106960252D01*
X189861748Y-107187987D01*
X190129537Y-107366918D01*
X190427088Y-107490168D01*
X190742967Y-107553000D01*
X191065033Y-107553000D01*
X191380912Y-107490168D01*
X191678463Y-107366918D01*
X191946252Y-107187987D01*
X192126001Y-107008238D01*
X192126001Y-109327762D01*
X191946252Y-109148013D01*
X191678463Y-108969082D01*
X191380912Y-108845832D01*
X191065033Y-108783000D01*
X190742967Y-108783000D01*
X190427088Y-108845832D01*
X190129537Y-108969082D01*
X189861748Y-109148013D01*
X189634013Y-109375748D01*
X189455082Y-109643537D01*
X189331832Y-109941088D01*
X189269000Y-110256967D01*
X189269000Y-110579033D01*
X189305896Y-110764525D01*
X185001421Y-115069001D01*
X184876072Y-115069001D01*
X184876072Y-113704000D01*
X184863812Y-113579518D01*
X184827502Y-113459820D01*
X184768537Y-113349506D01*
X184689185Y-113252815D01*
X184592494Y-113173463D01*
X184482180Y-113114498D01*
X184362482Y-113078188D01*
X184273000Y-113069375D01*
X184273000Y-112053000D01*
X184565033Y-112053000D01*
X184880912Y-111990168D01*
X185178463Y-111866918D01*
X185446252Y-111687987D01*
X185673987Y-111460252D01*
X185852918Y-111192463D01*
X185976168Y-110894912D01*
X186039000Y-110579033D01*
X186039000Y-110256967D01*
X185976168Y-109941088D01*
X185852918Y-109643537D01*
X185673987Y-109375748D01*
X185446252Y-109148013D01*
X185178463Y-108969082D01*
X184880912Y-108845832D01*
X184565033Y-108783000D01*
X184242967Y-108783000D01*
X183927088Y-108845832D01*
X183629537Y-108969082D01*
X183361748Y-109148013D01*
X183134013Y-109375748D01*
X182955082Y-109643537D01*
X182879001Y-109827212D01*
X182879001Y-106508788D01*
X182955082Y-106692463D01*
X183134013Y-106960252D01*
X183361748Y-107187987D01*
X183629537Y-107366918D01*
X183927088Y-107490168D01*
X184242967Y-107553000D01*
X184565033Y-107553000D01*
X184880912Y-107490168D01*
X185178463Y-107366918D01*
X185446252Y-107187987D01*
X185673987Y-106960252D01*
X185852918Y-106692463D01*
X185976168Y-106394912D01*
X186039000Y-106079033D01*
X186039000Y-105756967D01*
X185976168Y-105441088D01*
X185852918Y-105143537D01*
X185673987Y-104875748D01*
X185446252Y-104648013D01*
X185178463Y-104469082D01*
X184880912Y-104345832D01*
X184565033Y-104283000D01*
X184242967Y-104283000D01*
X183927088Y-104345832D01*
X183629537Y-104469082D01*
X183361748Y-104648013D01*
X183134013Y-104875748D01*
X182955082Y-105143537D01*
X182879001Y-105327212D01*
X182879001Y-102698788D01*
X182955082Y-102882463D01*
X183134013Y-103150252D01*
X183361748Y-103377987D01*
X183629537Y-103556918D01*
X183927088Y-103680168D01*
X184242967Y-103743000D01*
X184565033Y-103743000D01*
X184880912Y-103680168D01*
X185178463Y-103556918D01*
X185446252Y-103377987D01*
X185673987Y-103150252D01*
X185852918Y-102882463D01*
X185976168Y-102584912D01*
X186039000Y-102269033D01*
X186039000Y-101946967D01*
X185976168Y-101631088D01*
X185852918Y-101333537D01*
X185673987Y-101065748D01*
X185446252Y-100838013D01*
X185178463Y-100659082D01*
X184880912Y-100535832D01*
X184565033Y-100473000D01*
X184242967Y-100473000D01*
X183927088Y-100535832D01*
X183629537Y-100659082D01*
X183361748Y-100838013D01*
X183134013Y-101065748D01*
X182955082Y-101333537D01*
X182879001Y-101517212D01*
X182879001Y-98198788D01*
X182955082Y-98382463D01*
X183134013Y-98650252D01*
X183361748Y-98877987D01*
X183629537Y-99056918D01*
X183927088Y-99180168D01*
X184242967Y-99243000D01*
X184565033Y-99243000D01*
X184880912Y-99180168D01*
X185178463Y-99056918D01*
X185446252Y-98877987D01*
X185673987Y-98650252D01*
X185852918Y-98382463D01*
X185976168Y-98084912D01*
X186039000Y-97769033D01*
X186039000Y-97446967D01*
X185976168Y-97131088D01*
X185852918Y-96833537D01*
X185673987Y-96565748D01*
X185446252Y-96338013D01*
X185178463Y-96159082D01*
X184880912Y-96035832D01*
X184565033Y-95973000D01*
X184242967Y-95973000D01*
X183927088Y-96035832D01*
X183629537Y-96159082D01*
X183361748Y-96338013D01*
X183134013Y-96565748D01*
X182955082Y-96833537D01*
X182879001Y-97017212D01*
X182879001Y-93947653D01*
X185377952Y-93947653D01*
X185533962Y-94263214D01*
X185908745Y-94454020D01*
X186313551Y-94568044D01*
X186732824Y-94600902D01*
X187150451Y-94551334D01*
X187550383Y-94421243D01*
X187846038Y-94263214D01*
X188002048Y-93947653D01*
X186690000Y-92635605D01*
X185377952Y-93947653D01*
X182879001Y-93947653D01*
X182879001Y-92498824D01*
X184545098Y-92498824D01*
X184594666Y-92916451D01*
X184724757Y-93316383D01*
X184882786Y-93612038D01*
X185198347Y-93768048D01*
X186510395Y-92456000D01*
X185198347Y-91143952D01*
X184882786Y-91299962D01*
X184691980Y-91674745D01*
X184577956Y-92079551D01*
X184545098Y-92498824D01*
X182879001Y-92498824D01*
X182879001Y-89073466D01*
X182883282Y-89030000D01*
X182879001Y-88986534D01*
X182879001Y-88986524D01*
X182866196Y-88856511D01*
X182815590Y-88689688D01*
X182733412Y-88535942D01*
X182622818Y-88401184D01*
X182589045Y-88373467D01*
X182100536Y-87884958D01*
X182100531Y-87884952D01*
X182064539Y-87848960D01*
X182079000Y-87776260D01*
X182079000Y-87483740D01*
X182021932Y-87196842D01*
X181909990Y-86926589D01*
X181747475Y-86683368D01*
X181540632Y-86476525D01*
X181297411Y-86314010D01*
X181027158Y-86202068D01*
X180740260Y-86145000D01*
X180447740Y-86145000D01*
X180160842Y-86202068D01*
X180078999Y-86235968D01*
X180078999Y-85308072D01*
X181444000Y-85308072D01*
X181568482Y-85295812D01*
X181688180Y-85259502D01*
X181798494Y-85200537D01*
X181895185Y-85121185D01*
X181974537Y-85024494D01*
X182033502Y-84914180D01*
X182069812Y-84794482D01*
X182082072Y-84670000D01*
X182082072Y-82970000D01*
X182069812Y-82845518D01*
X182033502Y-82725820D01*
X181974537Y-82615506D01*
X181895185Y-82518815D01*
X181798494Y-82439463D01*
X181688180Y-82380498D01*
X181615620Y-82358487D01*
X181747475Y-82226632D01*
X181909990Y-81983411D01*
X182021932Y-81713158D01*
X182079000Y-81426260D01*
X182079000Y-81133740D01*
X182021932Y-80846842D01*
X181909990Y-80576589D01*
X181747475Y-80333368D01*
X181540632Y-80126525D01*
X181297411Y-79964010D01*
X181027158Y-79852068D01*
X180740260Y-79795000D01*
X180447740Y-79795000D01*
X180160842Y-79852068D01*
X179890589Y-79964010D01*
X179647368Y-80126525D01*
X179440525Y-80333368D01*
X179278010Y-80576589D01*
X179166068Y-80846842D01*
X179109000Y-81133740D01*
X179109000Y-81426260D01*
X179123461Y-81498961D01*
X178598951Y-82023471D01*
X178565183Y-82051184D01*
X178537470Y-82084952D01*
X178537467Y-82084955D01*
X178454589Y-82185942D01*
X178372411Y-82339688D01*
X178321804Y-82506511D01*
X178304718Y-82680001D01*
X178309000Y-82723480D01*
X178308999Y-90076530D01*
X178304718Y-90119999D01*
X178308999Y-90163468D01*
X178308999Y-90163475D01*
X178321804Y-90293488D01*
X178372410Y-90460311D01*
X178454588Y-90614057D01*
X178565182Y-90748816D01*
X178592645Y-90771354D01*
X178615183Y-90798817D01*
X178749941Y-90909411D01*
X178903687Y-90991589D01*
X179070510Y-91042195D01*
X179108482Y-91045935D01*
X179118188Y-91144482D01*
X179154498Y-91264180D01*
X179213463Y-91374494D01*
X179292815Y-91471185D01*
X179389506Y-91550537D01*
X179499820Y-91609502D01*
X179619518Y-91645812D01*
X179744000Y-91658072D01*
X181109002Y-91658072D01*
X181109001Y-105040605D01*
X180950891Y-104984519D01*
X180721000Y-105105186D01*
X180721000Y-106299000D01*
X180741000Y-106299000D01*
X180741000Y-106553000D01*
X180721000Y-106553000D01*
X180721000Y-106573000D01*
X180467000Y-106573000D01*
X180467000Y-106553000D01*
X179273845Y-106553000D01*
X179152524Y-106782890D01*
X179197175Y-106930099D01*
X179322359Y-107192920D01*
X179496412Y-107426269D01*
X179580466Y-107502034D01*
X179499820Y-107526498D01*
X179389506Y-107585463D01*
X179292815Y-107664815D01*
X179213463Y-107761506D01*
X179154498Y-107871820D01*
X179118188Y-107991518D01*
X179105928Y-108116000D01*
X179105928Y-109816000D01*
X179118188Y-109940482D01*
X179154498Y-110060180D01*
X179213463Y-110170494D01*
X179292815Y-110267185D01*
X179389506Y-110346537D01*
X179499820Y-110405502D01*
X179619518Y-110441812D01*
X179744000Y-110454072D01*
X181119696Y-110454072D01*
X181121806Y-110475492D01*
X181172412Y-110642315D01*
X181254590Y-110796061D01*
X181365184Y-110930820D01*
X181398957Y-110958537D01*
X182503001Y-112062582D01*
X182503001Y-113069375D01*
X182413518Y-113078188D01*
X182293820Y-113114498D01*
X182183506Y-113173463D01*
X182086815Y-113252815D01*
X182007463Y-113349506D01*
X181948498Y-113459820D01*
X181926487Y-113532380D01*
X181794632Y-113400525D01*
X181551411Y-113238010D01*
X181281158Y-113126068D01*
X180994260Y-113069000D01*
X180701740Y-113069000D01*
X180414842Y-113126068D01*
X180144589Y-113238010D01*
X179901368Y-113400525D01*
X179694525Y-113607368D01*
X179532010Y-113850589D01*
X179420068Y-114120842D01*
X179363000Y-114407740D01*
X179363000Y-114700260D01*
X179420068Y-114987158D01*
X179453968Y-115069001D01*
X179312580Y-115069001D01*
X177764072Y-113520494D01*
X177764072Y-112434000D01*
X177751812Y-112309518D01*
X177715502Y-112189820D01*
X177656537Y-112079506D01*
X177577185Y-111982815D01*
X177480494Y-111903463D01*
X177370180Y-111844498D01*
X177250482Y-111808188D01*
X177161000Y-111799375D01*
X177161000Y-106069110D01*
X179152524Y-106069110D01*
X179273845Y-106299000D01*
X180467000Y-106299000D01*
X180467000Y-105105186D01*
X180237109Y-104984519D01*
X179962748Y-105081843D01*
X179712645Y-105230822D01*
X179496412Y-105425731D01*
X179322359Y-105659080D01*
X179197175Y-105921901D01*
X179152524Y-106069110D01*
X177161000Y-106069110D01*
X177161000Y-82339469D01*
X177165281Y-82296000D01*
X177161000Y-82252531D01*
X177161000Y-82252523D01*
X177148195Y-82122510D01*
X177097839Y-81956510D01*
X177097589Y-81955686D01*
X177015411Y-81801941D01*
X176932532Y-81700953D01*
X176932530Y-81700951D01*
X176904817Y-81667183D01*
X176871050Y-81639471D01*
X174488535Y-79256957D01*
X174477226Y-79200102D01*
X174399205Y-79011744D01*
X174302490Y-78867000D01*
X174399205Y-78722256D01*
X174477226Y-78533898D01*
X174517000Y-78333939D01*
X174517000Y-78130061D01*
X174477226Y-77930102D01*
X174399205Y-77741744D01*
X174302490Y-77597000D01*
X174399205Y-77452256D01*
X174477226Y-77263898D01*
X174517000Y-77063939D01*
X174517000Y-76860061D01*
X174498290Y-76766000D01*
X176043531Y-76766000D01*
X176087000Y-76770281D01*
X176130469Y-76766000D01*
X176130477Y-76766000D01*
X176260490Y-76753195D01*
X176427313Y-76702589D01*
X176581059Y-76620411D01*
X176715817Y-76509817D01*
X176743534Y-76476044D01*
X181499000Y-71720578D01*
X181499001Y-73748708D01*
G37*
X181499001Y-73748708D02*
X181297411Y-73614010D01*
X181027158Y-73502068D01*
X180740260Y-73445000D01*
X180447740Y-73445000D01*
X180160842Y-73502068D01*
X179890589Y-73614010D01*
X179647368Y-73776525D01*
X179440525Y-73983368D01*
X179278010Y-74226589D01*
X179166068Y-74496842D01*
X179109000Y-74783740D01*
X179109000Y-75076260D01*
X179166068Y-75363158D01*
X179278010Y-75633411D01*
X179440525Y-75876632D01*
X179572380Y-76008487D01*
X179499820Y-76030498D01*
X179389506Y-76089463D01*
X179292815Y-76168815D01*
X179213463Y-76265506D01*
X179154498Y-76375820D01*
X179118188Y-76495518D01*
X179105928Y-76620000D01*
X179105928Y-78320000D01*
X179118188Y-78444482D01*
X179154498Y-78564180D01*
X179213463Y-78674494D01*
X179292815Y-78771185D01*
X179389506Y-78850537D01*
X179499820Y-78909502D01*
X179619518Y-78945812D01*
X179744000Y-78958072D01*
X181444000Y-78958072D01*
X181568482Y-78945812D01*
X181688180Y-78909502D01*
X181798494Y-78850537D01*
X181895185Y-78771185D01*
X181974537Y-78674494D01*
X181989745Y-78646042D01*
X182034682Y-78682920D01*
X184551928Y-81200167D01*
X184551928Y-82526000D01*
X184564188Y-82650482D01*
X184600498Y-82770180D01*
X184659463Y-82880494D01*
X184738815Y-82977185D01*
X184835506Y-83056537D01*
X184945820Y-83115502D01*
X185055000Y-83148622D01*
X185055001Y-85253378D01*
X184945820Y-85286498D01*
X184835506Y-85345463D01*
X184738815Y-85424815D01*
X184659463Y-85521506D01*
X184600498Y-85631820D01*
X184564188Y-85751518D01*
X184551928Y-85876000D01*
X184551928Y-88876000D01*
X184564188Y-89000482D01*
X184600498Y-89120180D01*
X184659463Y-89230494D01*
X184738815Y-89327185D01*
X184835506Y-89406537D01*
X184945820Y-89465502D01*
X185065518Y-89501812D01*
X185190000Y-89514072D01*
X185809787Y-89514072D01*
X185817805Y-89595488D01*
X185868412Y-89762311D01*
X185950590Y-89916057D01*
X186033468Y-90017044D01*
X186033471Y-90017047D01*
X186061184Y-90050815D01*
X186094951Y-90078527D01*
X186361436Y-90345012D01*
X186229549Y-90360666D01*
X185829617Y-90490757D01*
X185533962Y-90648786D01*
X185377952Y-90964347D01*
X186690000Y-92276395D01*
X186704143Y-92262253D01*
X186883748Y-92441858D01*
X186869605Y-92456000D01*
X188181653Y-93768048D01*
X188468999Y-93625987D01*
X188469000Y-100514520D01*
X188464718Y-100557999D01*
X188481804Y-100731489D01*
X188532411Y-100898312D01*
X188614589Y-101052058D01*
X188697467Y-101153045D01*
X188697470Y-101153048D01*
X188725183Y-101186816D01*
X188758951Y-101214529D01*
X189305897Y-101761475D01*
X189269000Y-101946967D01*
X189269000Y-102269033D01*
X189331832Y-102584912D01*
X189455082Y-102882463D01*
X189634013Y-103150252D01*
X189861748Y-103377987D01*
X190129537Y-103556918D01*
X190427088Y-103680168D01*
X190742967Y-103743000D01*
X191065033Y-103743000D01*
X191380912Y-103680168D01*
X191678463Y-103556918D01*
X191946252Y-103377987D01*
X192126001Y-103198238D01*
X192126001Y-104827762D01*
X191946252Y-104648013D01*
X191678463Y-104469082D01*
X191380912Y-104345832D01*
X191065033Y-104283000D01*
X190742967Y-104283000D01*
X190427088Y-104345832D01*
X190129537Y-104469082D01*
X189861748Y-104648013D01*
X189634013Y-104875748D01*
X189455082Y-105143537D01*
X189331832Y-105441088D01*
X189269000Y-105756967D01*
X189269000Y-106079033D01*
X189331832Y-106394912D01*
X189455082Y-106692463D01*
X189634013Y-106960252D01*
X189861748Y-107187987D01*
X190129537Y-107366918D01*
X190427088Y-107490168D01*
X190742967Y-107553000D01*
X191065033Y-107553000D01*
X191380912Y-107490168D01*
X191678463Y-107366918D01*
X191946252Y-107187987D01*
X192126001Y-107008238D01*
X192126001Y-109327762D01*
X191946252Y-109148013D01*
X191678463Y-108969082D01*
X191380912Y-108845832D01*
X191065033Y-108783000D01*
X190742967Y-108783000D01*
X190427088Y-108845832D01*
X190129537Y-108969082D01*
X189861748Y-109148013D01*
X189634013Y-109375748D01*
X189455082Y-109643537D01*
X189331832Y-109941088D01*
X189269000Y-110256967D01*
X189269000Y-110579033D01*
X189305896Y-110764525D01*
X185001421Y-115069001D01*
X184876072Y-115069001D01*
X184876072Y-113704000D01*
X184863812Y-113579518D01*
X184827502Y-113459820D01*
X184768537Y-113349506D01*
X184689185Y-113252815D01*
X184592494Y-113173463D01*
X184482180Y-113114498D01*
X184362482Y-113078188D01*
X184273000Y-113069375D01*
X184273000Y-112053000D01*
X184565033Y-112053000D01*
X184880912Y-111990168D01*
X185178463Y-111866918D01*
X185446252Y-111687987D01*
X185673987Y-111460252D01*
X185852918Y-111192463D01*
X185976168Y-110894912D01*
X186039000Y-110579033D01*
X186039000Y-110256967D01*
X185976168Y-109941088D01*
X185852918Y-109643537D01*
X185673987Y-109375748D01*
X185446252Y-109148013D01*
X185178463Y-108969082D01*
X184880912Y-108845832D01*
X184565033Y-108783000D01*
X184242967Y-108783000D01*
X183927088Y-108845832D01*
X183629537Y-108969082D01*
X183361748Y-109148013D01*
X183134013Y-109375748D01*
X182955082Y-109643537D01*
X182879001Y-109827212D01*
X182879001Y-106508788D01*
X182955082Y-106692463D01*
X183134013Y-106960252D01*
X183361748Y-107187987D01*
X183629537Y-107366918D01*
X183927088Y-107490168D01*
X184242967Y-107553000D01*
X184565033Y-107553000D01*
X184880912Y-107490168D01*
X185178463Y-107366918D01*
X185446252Y-107187987D01*
X185673987Y-106960252D01*
X185852918Y-106692463D01*
X185976168Y-106394912D01*
X186039000Y-106079033D01*
X186039000Y-105756967D01*
X185976168Y-105441088D01*
X185852918Y-105143537D01*
X185673987Y-104875748D01*
X185446252Y-104648013D01*
X185178463Y-104469082D01*
X184880912Y-104345832D01*
X184565033Y-104283000D01*
X184242967Y-104283000D01*
X183927088Y-104345832D01*
X183629537Y-104469082D01*
X183361748Y-104648013D01*
X183134013Y-104875748D01*
X182955082Y-105143537D01*
X182879001Y-105327212D01*
X182879001Y-102698788D01*
X182955082Y-102882463D01*
X183134013Y-103150252D01*
X183361748Y-103377987D01*
X183629537Y-103556918D01*
X183927088Y-103680168D01*
X184242967Y-103743000D01*
X184565033Y-103743000D01*
X184880912Y-103680168D01*
X185178463Y-103556918D01*
X185446252Y-103377987D01*
X185673987Y-103150252D01*
X185852918Y-102882463D01*
X185976168Y-102584912D01*
X186039000Y-102269033D01*
X186039000Y-101946967D01*
X185976168Y-101631088D01*
X185852918Y-101333537D01*
X185673987Y-101065748D01*
X185446252Y-100838013D01*
X185178463Y-100659082D01*
X184880912Y-100535832D01*
X184565033Y-100473000D01*
X184242967Y-100473000D01*
X183927088Y-100535832D01*
X183629537Y-100659082D01*
X183361748Y-100838013D01*
X183134013Y-101065748D01*
X182955082Y-101333537D01*
X182879001Y-101517212D01*
X182879001Y-98198788D01*
X182955082Y-98382463D01*
X183134013Y-98650252D01*
X183361748Y-98877987D01*
X183629537Y-99056918D01*
X183927088Y-99180168D01*
X184242967Y-99243000D01*
X184565033Y-99243000D01*
X184880912Y-99180168D01*
X185178463Y-99056918D01*
X185446252Y-98877987D01*
X185673987Y-98650252D01*
X185852918Y-98382463D01*
X185976168Y-98084912D01*
X186039000Y-97769033D01*
X186039000Y-97446967D01*
X185976168Y-97131088D01*
X185852918Y-96833537D01*
X185673987Y-96565748D01*
X185446252Y-96338013D01*
X185178463Y-96159082D01*
X184880912Y-96035832D01*
X184565033Y-95973000D01*
X184242967Y-95973000D01*
X183927088Y-96035832D01*
X183629537Y-96159082D01*
X183361748Y-96338013D01*
X183134013Y-96565748D01*
X182955082Y-96833537D01*
X182879001Y-97017212D01*
X182879001Y-93947653D01*
X185377952Y-93947653D01*
X185533962Y-94263214D01*
X185908745Y-94454020D01*
X186313551Y-94568044D01*
X186732824Y-94600902D01*
X187150451Y-94551334D01*
X187550383Y-94421243D01*
X187846038Y-94263214D01*
X188002048Y-93947653D01*
X186690000Y-92635605D01*
X185377952Y-93947653D01*
X182879001Y-93947653D01*
X182879001Y-92498824D01*
X184545098Y-92498824D01*
X184594666Y-92916451D01*
X184724757Y-93316383D01*
X184882786Y-93612038D01*
X185198347Y-93768048D01*
X186510395Y-92456000D01*
X185198347Y-91143952D01*
X184882786Y-91299962D01*
X184691980Y-91674745D01*
X184577956Y-92079551D01*
X184545098Y-92498824D01*
X182879001Y-92498824D01*
X182879001Y-89073466D01*
X182883282Y-89030000D01*
X182879001Y-88986534D01*
X182879001Y-88986524D01*
X182866196Y-88856511D01*
X182815590Y-88689688D01*
X182733412Y-88535942D01*
X182622818Y-88401184D01*
X182589045Y-88373467D01*
X182100536Y-87884958D01*
X182100531Y-87884952D01*
X182064539Y-87848960D01*
X182079000Y-87776260D01*
X182079000Y-87483740D01*
X182021932Y-87196842D01*
X181909990Y-86926589D01*
X181747475Y-86683368D01*
X181540632Y-86476525D01*
X181297411Y-86314010D01*
X181027158Y-86202068D01*
X180740260Y-86145000D01*
X180447740Y-86145000D01*
X180160842Y-86202068D01*
X180078999Y-86235968D01*
X180078999Y-85308072D01*
X181444000Y-85308072D01*
X181568482Y-85295812D01*
X181688180Y-85259502D01*
X181798494Y-85200537D01*
X181895185Y-85121185D01*
X181974537Y-85024494D01*
X182033502Y-84914180D01*
X182069812Y-84794482D01*
X182082072Y-84670000D01*
X182082072Y-82970000D01*
X182069812Y-82845518D01*
X182033502Y-82725820D01*
X181974537Y-82615506D01*
X181895185Y-82518815D01*
X181798494Y-82439463D01*
X181688180Y-82380498D01*
X181615620Y-82358487D01*
X181747475Y-82226632D01*
X181909990Y-81983411D01*
X182021932Y-81713158D01*
X182079000Y-81426260D01*
X182079000Y-81133740D01*
X182021932Y-80846842D01*
X181909990Y-80576589D01*
X181747475Y-80333368D01*
X181540632Y-80126525D01*
X181297411Y-79964010D01*
X181027158Y-79852068D01*
X180740260Y-79795000D01*
X180447740Y-79795000D01*
X180160842Y-79852068D01*
X179890589Y-79964010D01*
X179647368Y-80126525D01*
X179440525Y-80333368D01*
X179278010Y-80576589D01*
X179166068Y-80846842D01*
X179109000Y-81133740D01*
X179109000Y-81426260D01*
X179123461Y-81498961D01*
X178598951Y-82023471D01*
X178565183Y-82051184D01*
X178537470Y-82084952D01*
X178537467Y-82084955D01*
X178454589Y-82185942D01*
X178372411Y-82339688D01*
X178321804Y-82506511D01*
X178304718Y-82680001D01*
X178309000Y-82723480D01*
X178308999Y-90076530D01*
X178304718Y-90119999D01*
X178308999Y-90163468D01*
X178308999Y-90163475D01*
X178321804Y-90293488D01*
X178372410Y-90460311D01*
X178454588Y-90614057D01*
X178565182Y-90748816D01*
X178592645Y-90771354D01*
X178615183Y-90798817D01*
X178749941Y-90909411D01*
X178903687Y-90991589D01*
X179070510Y-91042195D01*
X179108482Y-91045935D01*
X179118188Y-91144482D01*
X179154498Y-91264180D01*
X179213463Y-91374494D01*
X179292815Y-91471185D01*
X179389506Y-91550537D01*
X179499820Y-91609502D01*
X179619518Y-91645812D01*
X179744000Y-91658072D01*
X181109002Y-91658072D01*
X181109001Y-105040605D01*
X180950891Y-104984519D01*
X180721000Y-105105186D01*
X180721000Y-106299000D01*
X180741000Y-106299000D01*
X180741000Y-106553000D01*
X180721000Y-106553000D01*
X180721000Y-106573000D01*
X180467000Y-106573000D01*
X180467000Y-106553000D01*
X179273845Y-106553000D01*
X179152524Y-106782890D01*
X179197175Y-106930099D01*
X179322359Y-107192920D01*
X179496412Y-107426269D01*
X179580466Y-107502034D01*
X179499820Y-107526498D01*
X179389506Y-107585463D01*
X179292815Y-107664815D01*
X179213463Y-107761506D01*
X179154498Y-107871820D01*
X179118188Y-107991518D01*
X179105928Y-108116000D01*
X179105928Y-109816000D01*
X179118188Y-109940482D01*
X179154498Y-110060180D01*
X179213463Y-110170494D01*
X179292815Y-110267185D01*
X179389506Y-110346537D01*
X179499820Y-110405502D01*
X179619518Y-110441812D01*
X179744000Y-110454072D01*
X181119696Y-110454072D01*
X181121806Y-110475492D01*
X181172412Y-110642315D01*
X181254590Y-110796061D01*
X181365184Y-110930820D01*
X181398957Y-110958537D01*
X182503001Y-112062582D01*
X182503001Y-113069375D01*
X182413518Y-113078188D01*
X182293820Y-113114498D01*
X182183506Y-113173463D01*
X182086815Y-113252815D01*
X182007463Y-113349506D01*
X181948498Y-113459820D01*
X181926487Y-113532380D01*
X181794632Y-113400525D01*
X181551411Y-113238010D01*
X181281158Y-113126068D01*
X180994260Y-113069000D01*
X180701740Y-113069000D01*
X180414842Y-113126068D01*
X180144589Y-113238010D01*
X179901368Y-113400525D01*
X179694525Y-113607368D01*
X179532010Y-113850589D01*
X179420068Y-114120842D01*
X179363000Y-114407740D01*
X179363000Y-114700260D01*
X179420068Y-114987158D01*
X179453968Y-115069001D01*
X179312580Y-115069001D01*
X177764072Y-113520494D01*
X177764072Y-112434000D01*
X177751812Y-112309518D01*
X177715502Y-112189820D01*
X177656537Y-112079506D01*
X177577185Y-111982815D01*
X177480494Y-111903463D01*
X177370180Y-111844498D01*
X177250482Y-111808188D01*
X177161000Y-111799375D01*
X177161000Y-106069110D01*
X179152524Y-106069110D01*
X179273845Y-106299000D01*
X180467000Y-106299000D01*
X180467000Y-105105186D01*
X180237109Y-104984519D01*
X179962748Y-105081843D01*
X179712645Y-105230822D01*
X179496412Y-105425731D01*
X179322359Y-105659080D01*
X179197175Y-105921901D01*
X179152524Y-106069110D01*
X177161000Y-106069110D01*
X177161000Y-82339469D01*
X177165281Y-82296000D01*
X177161000Y-82252531D01*
X177161000Y-82252523D01*
X177148195Y-82122510D01*
X177097839Y-81956510D01*
X177097589Y-81955686D01*
X177015411Y-81801941D01*
X176932532Y-81700953D01*
X176932530Y-81700951D01*
X176904817Y-81667183D01*
X176871050Y-81639471D01*
X174488535Y-79256957D01*
X174477226Y-79200102D01*
X174399205Y-79011744D01*
X174302490Y-78867000D01*
X174399205Y-78722256D01*
X174477226Y-78533898D01*
X174517000Y-78333939D01*
X174517000Y-78130061D01*
X174477226Y-77930102D01*
X174399205Y-77741744D01*
X174302490Y-77597000D01*
X174399205Y-77452256D01*
X174477226Y-77263898D01*
X174517000Y-77063939D01*
X174517000Y-76860061D01*
X174498290Y-76766000D01*
X176043531Y-76766000D01*
X176087000Y-76770281D01*
X176130469Y-76766000D01*
X176130477Y-76766000D01*
X176260490Y-76753195D01*
X176427313Y-76702589D01*
X176581059Y-76620411D01*
X176715817Y-76509817D01*
X176743534Y-76476044D01*
X181499000Y-71720578D01*
X181499001Y-73748708D01*
G36*
X175391000Y-82662579D02*
G01*
X175391001Y-111799375D01*
X175301518Y-111808188D01*
X175181820Y-111844498D01*
X175071506Y-111903463D01*
X174974815Y-111982815D01*
X174895463Y-112079506D01*
X174836498Y-112189820D01*
X174814487Y-112262380D01*
X174682632Y-112130525D01*
X174439411Y-111968010D01*
X174169158Y-111856068D01*
X173882260Y-111799000D01*
X173589740Y-111799000D01*
X173517039Y-111813461D01*
X173416999Y-111713421D01*
X173416999Y-80688577D01*
X175391000Y-82662579D01*
G37*
X175391000Y-82662579D02*
X175391001Y-111799375D01*
X175301518Y-111808188D01*
X175181820Y-111844498D01*
X175071506Y-111903463D01*
X174974815Y-111982815D01*
X174895463Y-112079506D01*
X174836498Y-112189820D01*
X174814487Y-112262380D01*
X174682632Y-112130525D01*
X174439411Y-111968010D01*
X174169158Y-111856068D01*
X173882260Y-111799000D01*
X173589740Y-111799000D01*
X173517039Y-111813461D01*
X173416999Y-111713421D01*
X173416999Y-80688577D01*
X175391000Y-82662579D01*
M02*
